<?xml version="1.0" encoding="UTF-8"?>
<svg id="Layer_1" data-name="Layer 1" xmlns="http://www.w3.org/2000/svg" xmlns:xlink="http://www.w3.org/1999/xlink" viewBox="0 0 44.74 22.34">
  <defs>
    <clipPath id="clippath">
      <path d="m27.48,5.06c0,1.13,1.29,2.04,1.29,2.04,1.18.95,2.11.95,2.11.95l.29-.63.33-.84s-.36-2.34-.56-2.42c-.2-.08-1.62-.17-1.62-.17-.04,0-.07,0-.11,0-1.72,0-1.73,1.07-1.73,1.07" style="fill: none;"/>
    </clipPath>
    <linearGradient id="linear-gradient" x1="31.83" y1="16.66" x2="32.05" y2="16.66" gradientTransform="translate(-248.63 -527.49) rotate(90) scale(16.7 -16.7)" gradientUnits="userSpaceOnUse">
      <stop offset="0" stop-color="#27aae1"/>
      <stop offset=".13" stop-color="#2793d1"/>
      <stop offset=".39" stop-color="#296cb5"/>
      <stop offset=".63" stop-color="#2a50a0"/>
      <stop offset=".84" stop-color="#2a3f94"/>
      <stop offset="1" stop-color="#2b3990"/>
    </linearGradient>
    <clipPath id="clippath-1">
      <path d="m35.65.72c-.08,0-.15.03-.15.03l-1.9.59c-3.22.93-2.74,3.3-2.74,3.3.68,3.42-.83,3.21-.83,3.21.89.41,1.95.09,1.95.09,2.72-1.11,4.53-4.67,4.53-4.67,1.01-2.13-.18-2.55-.75-2.55-.04,0-.08,0-.11,0" style="fill: none;"/>
    </clipPath>
    <linearGradient id="linear-gradient-2" x1="32.76" y1="26.1" x2="32.98" y2="26.1" gradientTransform="translate(-1370.02 1121.75) scale(42.81 -42.81)" gradientUnits="userSpaceOnUse">
      <stop offset="0" stop-color="#ec008c"/>
      <stop offset=".1" stop-color="#ec008c"/>
      <stop offset=".15" stop-color="#ec0e91"/>
      <stop offset=".46" stop-color="#f262b5"/>
      <stop offset=".72" stop-color="#f6a0ce"/>
      <stop offset=".9" stop-color="#f9c6de"/>
      <stop offset="1" stop-color="#fad5e5"/>
    </linearGradient>
  </defs>
  <path d="m43.75,13c-.02-6.36-3.84-7.78-5.88-8.09v-.4h-1.52c.37-.57.58-.98.61-1.03.51-1.08.58-1.93.19-2.54-.33-.53-.94-.72-1.39-.72-.06,0-.11,0-.16,0-.1.01-.2.03-.24.04l-1.89.59c-2.13.62-2.82,1.82-3.03,2.73-.46-.05-1-.08-1.1-.09h-.12c-1.25,0-1.84.51-2.08,1H7.41v.37c-1.96.24-6.06,1.53-6.08,8.11,0,0-.5,7.35,6.08,8.4h0s30.46.01,30.46.01v-.05c6.37-1.17,5.88-8.36,5.88-8.36" style="fill: #fff;"/>
  <path d="m24.31,11.1c.24.05.36.22.36.52v.09c.46-.4.9-.6,1.34-.6h.16c.71,0,1.32.43,1.81,1.29.19.44.28.84.28,1.19v.32c0,.77-.32,1.44-.96,2.03-.38.3-.79.45-1.22.45-.5,0-.98-.21-1.41-.63v2.33c-.03.33-.14.5-.34.5h-.08c-.21,0-.33-.16-.36-.47v-6.47c0-.36.14-.54.42-.54m.36,2.61v.04c0,.8.33,1.37.98,1.7.11.06.24.09.38.09h.12c.54,0,.96-.37,1.26-1.12.07-.22.1-.42.1-.6v-.15c0-.66-.27-1.19-.82-1.57-.19-.11-.4-.17-.62-.17-.57,0-1,.38-1.3,1.14-.07.2-.1.41-.1.65" style="fill: #ed1a8f;"/>
  <path d="m24.31,11.1v.07c.1.02.17.07.21.14.05.07.08.17.08.31v.24l.11-.1c.45-.4.88-.59,1.29-.59h.16c.34,0,.66.1.95.31.29.21.56.52.81.95l.06-.04-.06.03c.18.44.27.82.27,1.16v.32c0,.74-.31,1.39-.93,1.97l.04.06-.04-.06c-.38.29-.77.44-1.18.44-.49,0-.94-.2-1.37-.61l-.11-.11v2.49h.07-.07c-.01.15-.05.26-.09.33-.05.07-.1.09-.18.09h-.08c-.09,0-.15-.03-.2-.09-.05-.06-.08-.17-.09-.32h-.07s.07,0,.07,0v-6.47c0-.17.03-.29.09-.36.06-.07.14-.11.26-.11v-.07.07s0-.07,0-.07v-.07c-.15,0-.28.05-.37.16-.08.11-.12.26-.12.45v6.47h0c.01.17.05.3.12.4.07.1.18.15.3.15h.08c.12,0,.22-.05.29-.15.07-.1.1-.24.12-.41h0v-2.33h-.07l-.05.06c.45.43.94.64,1.46.64.44,0,.86-.16,1.26-.47h0s0,0,0,0c.65-.59.98-1.29.98-2.08v-.32c0-.36-.1-.77-.29-1.22h0s0,0,0,0c-.25-.44-.53-.77-.85-.99-.31-.22-.66-.34-1.02-.34h-.16c-.46,0-.92.21-1.38.62l.04.06h.07v-.09c0-.16-.03-.29-.1-.4-.07-.1-.18-.17-.31-.19h0s0,0,0,0v.07Zm.36,2.61h-.07v.04c0,.41.08.77.26,1.07.17.3.43.53.76.7h0c.12.06.26.09.41.09h.12c.28,0,.54-.1.76-.3.22-.2.4-.49.56-.87h0s0,0,0,0c.07-.23.1-.44.1-.63v-.15c0-.34-.07-.65-.21-.93-.14-.27-.35-.51-.63-.71h0s0,0,0,0c-.2-.12-.42-.18-.65-.18-.3,0-.57.1-.8.3-.23.2-.41.5-.56.89h0s0,0,0,0c-.07.21-.1.43-.1.67h.14c0-.23.03-.43.1-.62l-.06-.03.06.03c.14-.37.32-.65.52-.83.2-.18.44-.27.71-.27.21,0,.41.05.58.16l.03-.06-.04.06c.27.19.46.41.59.66.13.25.2.53.2.85v.15c0,.17-.03.36-.1.58l.06.02-.06-.03c-.15.37-.32.64-.52.81-.2.18-.42.26-.67.26h-.12c-.13,0-.25-.03-.35-.08h0c-.32-.16-.55-.38-.7-.65-.16-.27-.23-.6-.23-.99v-.04h-.07Z" style="fill: #ed1a8f;"/>
  <path d="m30.78,11.15c.95,0,1.56.36,1.83,1.08.05.17.08.31.08.41v3.34c0,.19-.13.31-.4.35-.2,0-.32-.17-.34-.5v-.04c-.56.42-1.11.63-1.65.63-.71,0-1.24-.33-1.59-.99-.07-.25-.1-.43-.1-.52,0-.01,0-.05.02-.13l-.02-.04c.06-.36.2-.69.42-.99.7-.69,1.41-1.04,2.13-1.04.23,0,.5.07.8.22v-.26c0-.35-.27-.57-.82-.69-.07-.01-.15-.02-.24-.02h-.2c-.58,0-.96.22-1.16.65-.09.13-.19.19-.3.19-.25-.05-.38-.18-.38-.39v-.04c.09-.32.23-.55.42-.67.01-.09.24-.23.68-.43.3-.07.57-.11.82-.11m-1.44,3.75c0,.32.25.55.74.69.08,0,.12,0,.12.02.62,0,1.13-.23,1.53-.69.15-.19.22-.39.22-.58v-.02c0-.38-.17-.64-.5-.75-.09-.04-.19-.06-.32-.06-.49,0-1.01.25-1.55.75-.16.22-.24.43-.24.65" style="fill: #ed1a8f;"/>
  <path d="m30.78,11.15v.07c.47,0,.84.09,1.14.26.29.17.5.43.64.77l.06-.03-.06.02c.05.16.08.3.08.39v3.34c0,.08-.02.13-.07.17-.05.05-.14.08-.26.1v.07s0-.07,0-.07c-.08,0-.14-.03-.18-.09-.04-.07-.08-.18-.09-.33h-.07s.07,0,.07,0v-.18l-.11.08c-.55.41-1.09.61-1.62.61-.34,0-.64-.08-.9-.24-.25-.16-.47-.39-.64-.72l-.06.04.07-.02c-.07-.25-.1-.43-.1-.5h-.03.03s0,0,0,0h-.03.03s0-.01,0-.03c0-.02,0-.05.01-.08v-.03s-.03-.07-.03-.07l-.06.03h.07c.05-.33.19-.65.4-.95l-.05-.05.05.05c.69-.68,1.39-1.02,2.09-1.02.22,0,.48.07.77.21l.1.05v-.37c0-.19-.08-.36-.23-.49-.15-.13-.36-.21-.64-.27-.08-.02-.16-.02-.25-.02h-.2c-.3,0-.55.06-.75.17-.21.12-.36.29-.46.52l.06.03-.05-.05c-.09.12-.17.17-.25.17v.07-.07c-.11-.02-.19-.06-.24-.12-.05-.05-.07-.11-.07-.2v-.04h-.07l.07.02c.08-.31.21-.52.39-.63l.03-.02v-.03s0,0,0,0h0s0,0,0,0h-.01s0,0,0,0h0s.02-.03.05-.06c.09-.08.29-.19.58-.32l-.03-.07.02.07c.3-.07.56-.11.8-.11v-.15c-.25,0-.53.04-.83.11h0s0,0,0,0c-.22.1-.39.19-.51.26-.06.04-.1.07-.14.11-.03.03-.06.07-.07.12h.07s-.03-.05-.03-.05c-.21.14-.36.38-.45.71h0v.06c0,.12.04.23.12.31.08.08.18.13.32.15h0s0,0,0,0c.13,0,.25-.08.35-.22h0s0-.01,0-.01c.09-.2.22-.35.4-.45.18-.1.41-.15.69-.15h.2c.09,0,.16,0,.23.02.27.06.46.14.58.24.12.1.18.22.18.37v.26h.07l.03-.07c-.31-.15-.58-.22-.83-.22-.74,0-1.47.36-2.18,1.05h0s0,0,0,0c-.23.31-.37.66-.43,1.03v.02s.03.07.03.07l.06-.03h-.07s-.01.05-.02.08c0,.02,0,.03,0,.05,0,.11.04.28.1.54h0s0,.02,0,.02c.18.34.41.6.69.77.28.17.6.26.96.26.56,0,1.13-.21,1.69-.64l-.04-.06h-.07v.04h0c.01.18.05.32.12.42.07.1.17.16.29.15h0c.14-.02.25-.06.33-.13.08-.07.13-.17.13-.29v-3.34c0-.12-.03-.26-.08-.43h0s0,0,0,0c-.14-.37-.38-.66-.7-.85-.32-.19-.72-.28-1.2-.28v.07Zm-1.44,3.75h-.07c0,.18.07.35.21.47.14.13.33.22.58.29h0s0,0,0,0c.04,0,.07,0,.08,0h0s0,0,0,0v-.04s-.01.03-.01.03h.01s.01-.03.01-.03l-.02.03.04-.05h-.06s.01.04.02.05l.04-.05h-.06v.07h.07c.63,0,1.17-.24,1.58-.71h0s0,0,0,0c.15-.2.24-.41.24-.63v-.02c0-.2-.05-.38-.14-.52-.09-.14-.23-.24-.41-.31l-.02.07.03-.07c-.1-.05-.21-.07-.35-.07-.51,0-1.05.26-1.6.77h0s0,.01,0,.01c-.17.23-.25.46-.25.69h.14c0-.19.07-.39.22-.6l-.05-.05.04.06c.54-.5,1.04-.74,1.51-.74.12,0,.22.02.29.06h0s0,0,0,0c.16.06.27.14.34.25.07.11.11.25.11.43v.02c0,.17-.06.35-.2.54l.05.05-.05-.05c-.39.45-.88.67-1.48.67v.07h.07s0-.04-.02-.05c-.02-.02-.03-.02-.04-.03-.03-.01-.07-.01-.13-.01v.07l.02-.07c-.24-.07-.42-.16-.53-.26-.11-.1-.16-.22-.16-.36h-.07Z" style="fill: #ed1a8f;"/>
  <path d="m37.02,8.91c.22,0,.35.17.38.52v6.47c-.03.35-.16.52-.4.52s-.36-.18-.38-.54v-.09c-.42.42-.88.63-1.4.63h-.04c-.9,0-1.58-.57-2.03-1.7-.08-.3-.12-.56-.12-.78v-.32c0-.81.35-1.51,1.04-2.09.35-.26.74-.39,1.16-.39.49,0,.96.21,1.4.63v-2.31c.02-.35.13-.52.32-.52.02-.01.05-.02.08-.02m-3.23,4.79v.15c0,.68.29,1.21.86,1.6.2.1.38.15.56.15.6,0,1.05-.4,1.34-1.21.05-.19.08-.39.08-.58v-.09c0-.77-.33-1.33-1-1.68-.13-.04-.27-.07-.42-.09-.57,0-1.01.37-1.32,1.12-.07.24-.1.45-.1.63" style="fill: #ed1a8f;"/>
  <path d="m37.02,8.91v.07c.1,0,.16.03.21.1.05.07.09.19.1.35h.07s-.07,0-.07,0v6.47h.07-.07c-.01.16-.05.27-.1.34-.05.07-.12.1-.23.1-.1,0-.16-.04-.21-.11-.05-.07-.09-.19-.1-.36h-.07s.07,0,.07,0v-.25l-.12.11c-.41.41-.85.61-1.35.61h-.04c-.44,0-.82-.14-1.14-.41-.33-.27-.6-.69-.83-1.25l-.06.03.07-.02c-.08-.3-.12-.55-.12-.76v-.32c0-.79.33-1.46,1.01-2.03l-.04-.06.04.06c.34-.25.71-.37,1.12-.38.47,0,.92.2,1.35.61l.11.11v-2.47h-.07.07c.01-.16.04-.28.09-.35.02-.03.04-.06.07-.07.03-.02.06-.02.09-.02h.03s.03-.02.05-.02v-.15s-.08,0-.11.03l.03.06v-.07c-.06,0-.11.01-.16.04-.07.04-.13.11-.16.21-.04.09-.06.2-.07.34h0v2.31h.07l.04-.06c-.45-.43-.93-.64-1.44-.64-.43,0-.83.13-1.19.4h0s0,0,0,0c-.7.59-1.06,1.31-1.06,2.15v.32c0,.23.04.49.12.8h0s0,0,0,0c.23.58.52,1.01.87,1.31.35.29.76.44,1.23.44h.04c.53,0,1.01-.22,1.44-.64l-.05-.05h-.07v.09h0s0,0,0,0c.01.19.05.34.12.44.07.11.19.17.32.16.13,0,.25-.05.33-.16.08-.1.12-.25.14-.43h0v-6.48h0c-.02-.18-.06-.33-.13-.43-.07-.1-.19-.16-.32-.16v.07Zm-3.23,4.79h-.07v.15c0,.35.07.67.22.94.15.28.37.52.67.71h0s0,0,0,0c.2.1.4.16.59.16.32,0,.6-.11.83-.32.23-.21.42-.53.57-.94h0s0,0,0,0c.05-.2.08-.4.08-.6v-.09c0-.39-.09-.74-.26-1.03-.17-.29-.43-.53-.77-.71h0s0,0,0,0c-.13-.04-.28-.07-.43-.09h0c-.3,0-.57.1-.8.3-.23.2-.42.49-.58.87h0s0,0,0,0c-.07.25-.1.46-.1.65h.14c0-.17.03-.37.1-.6l-.07-.02.06.03c.15-.37.33-.64.54-.81.21-.18.44-.26.71-.26v-.07.07c.14.01.28.04.4.08l.02-.07-.03.07c.32.17.56.39.72.66.16.27.24.58.24.95v.09c0,.19-.03.37-.08.56l.07.02-.06-.03c-.14.39-.32.68-.53.88-.21.19-.46.28-.74.28-.16,0-.34-.05-.53-.14l-.03.07.04-.06c-.28-.19-.48-.41-.62-.66-.14-.25-.2-.54-.21-.87v-.15h-.07Z" style="fill: #ed1a8f;"/>
  <path d="m38.97,11.16h.17c.3,0,.63.12.97.37.05.13.07.21.07.24-.04.26-.16.39-.36.39-.05,0-.24-.07-.57-.2l-.22-.02c-.25,0-.4.17-.44.51v.02c0,.36.3.68.91.98.67.46,1,.96,1,1.49v.12c0,.51-.27.92-.81,1.25-.21.07-.4.1-.56.1-.43,0-.86-.14-1.29-.43-.06-.13-.09-.22-.09-.26.04-.26.16-.39.36-.39h.02l.74.26c.14.03.23.04.28.04.43-.06.64-.28.64-.65s-.39-.74-1.17-1.16c-.49-.38-.73-.83-.73-1.35v-.08c0-.55.28-.95.83-1.19.1-.03.18-.04.26-.04" style="fill: #ed1a8f;"/>
  <path d="m38.97,11.16v.07h.17c.29,0,.6.12.93.36l.04-.06-.06.03c.02.07.04.12.05.16,0,.02.01.03.01.05h0s0,.02,0,.02h0s0,0,0,0h0s0,0,0,0h0,.07-.07c-.02.11-.06.19-.1.24-.05.05-.1.07-.19.08h0s0,0,0,0h0s0,0,0,0c0,0-.02,0-.05-.01-.09-.02-.25-.09-.49-.19h0s-.24-.03-.24-.03h0c-.14,0-.26.05-.35.15-.09.1-.14.24-.16.42h0v.03c0,.2.09.39.25.56.16.17.39.33.7.48l.03-.07-.04.06c.33.23.57.46.73.7.16.24.24.48.24.73v.12c0,.24-.06.45-.19.65-.13.2-.32.37-.59.53l.03.06-.02-.07c-.21.07-.39.1-.54.1-.41,0-.83-.14-1.25-.42l-.04.06.06-.03c-.03-.06-.05-.12-.07-.16-.01-.04-.02-.07-.02-.07h-.07.07c.02-.11.06-.19.1-.24.05-.05.1-.07.19-.08h0l.73.26h0c.14.03.23.05.29.05h0c.22-.03.4-.11.52-.23.12-.12.18-.29.18-.49,0-.21-.11-.41-.31-.61-.2-.2-.5-.41-.89-.62l-.03.07.04-.06c-.48-.37-.7-.8-.7-1.29v-.08c0-.26.06-.48.19-.67.13-.18.32-.34.59-.45l-.02-.07.02.07c.09-.03.17-.04.25-.04v-.15c-.09,0-.18.02-.28.05h0s0,0,0,0c-.28.12-.5.29-.65.5-.15.21-.22.47-.22.76v.08c0,.54.26,1.02.76,1.41h0s0,0,0,0c.39.21.68.41.86.6.19.19.27.36.27.5,0,.17-.05.29-.14.39-.09.09-.24.16-.44.19v.07s0-.07,0-.07c-.04,0-.13-.01-.27-.04v.07s0-.07,0-.07l-.75-.27h-.03c-.11,0-.21.04-.28.12-.07.08-.12.19-.14.33h0c0,.05.01.09.03.14.02.05.04.11.07.17v.02s.02.01.02.01c.44.29.88.44,1.32.44.17,0,.36-.04.58-.11h0s0,0,0,0c.28-.17.49-.36.63-.58.14-.22.22-.47.22-.73v-.12c0-.28-.09-.55-.26-.81-.17-.26-.43-.5-.77-.74h0s0,0,0,0c-.3-.15-.52-.3-.66-.45-.14-.16-.21-.31-.21-.46v-.02h-.07.07c.02-.15.07-.27.12-.33.06-.07.14-.1.25-.1v-.07.07s.22.02.22.02v-.07s-.02.07-.02.07c.17.07.3.12.39.15.05.02.09.03.12.04.03,0,.05.01.08.02.11,0,.21-.04.29-.12.07-.08.12-.19.14-.33h0s0-.05,0-.06c-.01-.05-.04-.12-.07-.22v-.02s-.02-.01-.02-.01c-.35-.25-.68-.38-1-.38h-.17v.07Z" style="fill: #ed1a8f;"/>
  <path d="m10.67,15.51c.04.17.05.32.03.44-.02.12-.06.21-.13.28-.07.07-.15.12-.25.14-.1.03-.22.04-.34.04h-.53c-.06-.32-.12-.63-.18-.93-.06-.3-.13-.59-.19-.87h-2.9c-.06.28-.13.57-.19.87-.06.3-.12.61-.18.93h-.53c-.13,0-.24-.01-.34-.04-.1-.03-.19-.07-.25-.14-.07-.07-.11-.16-.13-.28-.02-.12-.01-.26.03-.44.16-.68.33-1.33.51-1.93.19-.6.37-1.15.56-1.64.19-.49.36-.93.53-1.31.17-.38.31-.69.43-.95.11-.22.25-.38.44-.47.19-.09.38-.15.56-.17.22-.03.45-.02.68.02.28.52.56,1.12.84,1.78.24.57.5,1.25.77,2.03.27.78.52,1.66.75,2.63m-1.84-1.85c-.15-.52-.29-1-.43-1.43-.14-.43-.27-.8-.38-1.1-.13-.36-.25-.67-.38-.95-.12.27-.25.59-.38.95-.12.3-.25.67-.39,1.1-.14.43-.29.91-.43,1.43h2.39Z" style="fill: #287dc1;"/>
  <path d="m10.67,15.51l-.07.02c.03.11.04.21.04.29,0,.04,0,.08,0,.11-.02.11-.06.18-.11.24-.06.06-.13.1-.22.13-.1.02-.2.04-.33.04h-.53v.07h.07c-.06-.33-.12-.64-.18-.94-.06-.3-.13-.59-.19-.87v-.06h-3.01v.06c-.08.28-.14.57-.2.87-.06.3-.12.61-.18.93h.07s0-.06,0-.06h-.53c-.12,0-.23-.01-.33-.04-.09-.02-.16-.07-.22-.13-.05-.06-.09-.13-.11-.24,0-.03,0-.07,0-.11,0-.08.01-.18.04-.29h0c.15-.68.32-1.32.51-1.92.19-.6.37-1.14.56-1.64.19-.49.36-.93.53-1.31.17-.38.31-.69.43-.94.1-.21.23-.35.41-.43.18-.09.36-.14.54-.16h0c.08-.01.17-.02.26-.02.13,0,.27.01.41.04v-.07s-.05.04-.05.04c.28.52.56,1.11.84,1.77.24.57.49,1.24.77,2.02.27.78.52,1.65.74,2.62h0s.07-.02.07-.02l.07-.02c-.23-.97-.47-1.85-.75-2.64-.27-.78-.53-1.46-.77-2.03-.28-.66-.56-1.26-.85-1.78l-.02-.03h-.03c-.15-.03-.29-.05-.43-.05-.09,0-.18,0-.27.02v.07s0-.07,0-.07c-.19.02-.38.08-.58.18-.2.1-.36.27-.48.5-.12.25-.26.57-.43.95-.17.38-.35.82-.53,1.31-.19.5-.37,1.04-.56,1.65-.19.6-.36,1.25-.51,1.93l.07.02-.07-.02c-.03.12-.04.23-.04.33,0,.05,0,.1.01.14.02.13.07.24.15.32.08.08.17.13.28.16.11.03.23.04.36.04h.58v-.06c.07-.32.13-.63.19-.93.06-.3.13-.59.19-.87l-.07-.02v.07h2.9v-.07l-.07.02c.06.28.13.57.19.87.06.3.12.61.18.93v.06h.59c.13,0,.25-.01.36-.04.11-.03.21-.08.28-.16.08-.08.13-.19.15-.32,0-.04.01-.09.01-.14,0-.1-.01-.21-.04-.33l-.07.02.07-.02-.07.02Zm-1.84-1.85l.07-.02c-.15-.52-.29-1-.43-1.43-.14-.43-.27-.8-.38-1.1l-.06.03.06-.03c-.13-.36-.25-.68-.38-.95l-.06-.14-.06.14c-.12.27-.25.59-.38.95l.06.03-.06-.03c-.12.31-.25.67-.4,1.1-.14.43-.29.91-.43,1.43l-.02.09h2.57l-.03-.1-.07.02v-.07h-2.39v.07l.06.02c.14-.52.28-1,.43-1.42.14-.43.27-.79.39-1.1h0c.13-.36.26-.67.38-.94l-.06-.03-.06.03c.13.27.25.58.38.94h0s0,0,0,0c.11.3.24.67.38,1.1.14.43.28.9.43,1.43l.07-.02v-.07.07Z" style="fill: #287dc1;"/>
  <path d="m12.28,10.02v1.98h2.72c0,.14-.01.26-.03.38-.02.11-.06.21-.13.3-.06.09-.15.15-.26.2-.11.05-.25.07-.42.07h-1.88v3.46h-.38c-.13,0-.24-.01-.35-.03-.11-.02-.2-.07-.28-.14-.08-.07-.14-.16-.18-.28-.04-.12-.06-.27-.06-.45v-5.28c0-.26.03-.46.1-.62.07-.15.16-.27.27-.35.11-.08.24-.13.39-.16.15-.03.3-.04.46-.04h3.28c0,.14-.01.26-.03.38-.02.11-.06.22-.13.3-.06.09-.15.15-.26.2-.11.05-.25.07-.42.07h-2.42Z" style="fill: #287dc1;"/>
  <path d="m12.28,10.02h-.07v2.06h2.78v-.07h-.07c0,.13-.01.25-.03.36-.02.1-.06.19-.11.27-.05.08-.13.13-.23.18-.1.04-.23.06-.39.06h-1.95v3.46h-.31c-.12,0-.23-.01-.33-.03-.1-.02-.18-.06-.25-.12-.07-.06-.12-.14-.16-.25-.04-.11-.06-.25-.06-.42v-5.28c0-.25.03-.45.09-.58.06-.14.14-.25.24-.32.1-.07.22-.12.36-.15.14-.03.29-.04.45-.04h3.28v-.07h-.07c0,.13-.01.25-.03.36-.02.1-.06.19-.11.27-.05.08-.13.13-.23.18-.1.04-.23.06-.39.06h-2.49v.07h.07v.07h2.42c.17,0,.32-.02.44-.07.12-.05.22-.12.29-.22.07-.1.12-.21.14-.33.02-.12.03-.25.03-.39v-.07h-3.35c-.16,0-.32.01-.47.04-.16.03-.29.08-.42.17-.12.09-.22.22-.29.38-.07.17-.11.38-.11.65v5.28c0,.19.02.35.07.48.05.13.11.23.21.31.09.08.19.13.31.15.11.02.23.04.36.04h.45v-3.46h1.82c.17,0,.32-.02.44-.07.12-.05.22-.12.29-.22.07-.1.12-.21.14-.33.02-.12.03-.25.03-.39v-.07h-2.72v-1.91h-.07v.07-.07Z" style="fill: #287dc1;"/>
  <path d="m20.63,14.33c.06.12.14.3.25.53.11.23.22.46.32.69.13.27.26.56.4.87h-.88c-.15,0-.29-.03-.39-.1-.11-.06-.2-.14-.27-.22-.07-.08-.12-.17-.16-.25-.03-.08-.06-.13-.07-.16-.01-.03-.04-.1-.09-.19-.05-.1-.1-.22-.16-.36-.06-.14-.13-.3-.2-.47-.07-.17-.14-.34-.21-.52-.1-.25-.24-.42-.42-.5-.18-.08-.38-.13-.58-.15h-1.05v2.92h-.38c-.13,0-.24-.01-.35-.03-.11-.02-.2-.07-.28-.14-.08-.07-.14-.16-.18-.28-.04-.12-.06-.27-.06-.45v-6.08c.25-.08.51-.14.8-.2.25-.05.54-.09.87-.12.33-.03.7-.04,1.1-.03.46.02.84.1,1.16.23.32.13.57.3.76.51.19.21.33.44.42.69.08.26.13.52.13.8,0,.41-.13.79-.38,1.13-.25.34-.59.61-1.02.8.13.07.25.15.35.23.1.09.18.18.26.28.07.1.14.2.19.3.06.1.11.2.15.28m-3.53-1.83h1.24c.46,0,.78-.1.96-.3.18-.2.28-.48.29-.84,0-.26-.02-.47-.09-.65-.07-.17-.16-.32-.27-.42-.12-.11-.25-.18-.4-.23-.15-.05-.3-.08-.46-.1-.37-.03-.8.02-1.27.15v2.39Z" style="fill: #287dc1;"/>
  <path d="m20.63,14.33l-.06.03c.06.12.14.3.25.53.11.23.22.46.32.69.13.27.26.56.4.87l.06-.03v-.07h-.88c-.15,0-.27-.03-.36-.09-.1-.06-.19-.13-.25-.21-.07-.08-.12-.15-.15-.23-.03-.08-.06-.14-.07-.17-.01-.03-.04-.1-.09-.19-.05-.1-.1-.22-.16-.36-.06-.14-.13-.3-.2-.46-.07-.17-.14-.34-.21-.52h0c-.1-.26-.26-.45-.46-.54-.19-.09-.39-.14-.6-.15h-1.13v2.92h-.31c-.12,0-.23-.01-.33-.03-.1-.02-.18-.06-.25-.12-.07-.06-.12-.14-.16-.25-.04-.11-.06-.25-.06-.42v-6.08h-.07l.02.07c.24-.07.51-.14.79-.2v-.07s0,.07,0,.07c.24-.04.53-.08.86-.12.23-.02.47-.04.73-.04.12,0,.23,0,.36,0v-.07s0,.07,0,.07c.45.02.83.1,1.14.23.31.13.56.29.74.49.19.2.32.42.4.67.08.25.12.51.12.77,0,.39-.12.75-.36,1.08-.24.33-.57.59-.99.78l-.14.06.14.07c.13.07.24.14.33.22h0c.1.08.18.17.25.27.07.1.13.19.19.29.06.1.1.19.15.28l.06-.04-.06.03.06-.03.06-.04c-.04-.08-.09-.18-.15-.28-.06-.11-.12-.21-.2-.31-.08-.1-.17-.2-.27-.29-.1-.09-.22-.17-.36-.24l-.03.07.03.07c.44-.19.79-.47,1.05-.82.26-.35.39-.75.39-1.17,0-.28-.04-.56-.13-.82-.09-.27-.23-.51-.43-.72-.2-.21-.46-.39-.79-.52-.32-.14-.72-.22-1.18-.24h0c-.12,0-.24,0-.36,0-.26,0-.51.01-.75.04-.33.03-.63.07-.87.12h0c-.29.06-.56.13-.81.21h-.05v6.16c0,.19.02.35.07.48.05.13.11.23.21.31.09.08.19.13.31.15.11.02.23.04.36.04h.45v-2.92h.98v-.07.07c.19.02.38.06.55.14.16.07.29.22.39.46h0c.07.18.14.35.21.52.07.17.14.33.2.47.06.14.12.26.16.36h0c.05.1.08.16.09.19.01.03.04.08.07.16.04.09.1.18.17.26.08.09.17.17.29.24.12.07.26.11.43.11h.99l-.05-.11c-.14-.3-.27-.59-.4-.87-.11-.23-.21-.46-.32-.69-.11-.23-.19-.41-.25-.53h0s0,0,0,0l-.06.04Zm-3.53-1.83v.07h1.24c.46,0,.8-.1,1.01-.32.2-.21.3-.52.31-.89h0s0-.05,0-.08c0-.23-.03-.44-.1-.61-.07-.18-.17-.33-.29-.45-.12-.11-.27-.2-.42-.25-.16-.05-.31-.08-.47-.1h0c-.07,0-.15,0-.22,0-.32,0-.68.05-1.07.16h-.05v2.54h.07v-.07h.07v-2.39h-.07l.02.07c.38-.1.73-.15,1.04-.15.07,0,.14,0,.21,0v-.07s0,.07,0,.07c.15.02.3.05.44.09.14.05.27.12.38.22.11.1.19.23.25.39.06.15.08.33.08.55,0,.02,0,.05,0,.07h.07s-.07,0-.07,0c-.01.35-.11.61-.27.79-.16.18-.46.28-.91.27h-1.24v.07h.07-.07Z" style="fill: #287dc1;"/>
  <path d="m23.21,16.41h-.38c-.13,0-.24-.01-.35-.03-.1-.02-.2-.07-.28-.14-.08-.07-.14-.16-.18-.28-.04-.12-.06-.27-.06-.45v-6.44h.37c.13,0,.24.01.35.03.11.02.2.07.28.14.08.07.14.16.18.28.04.12.06.27.06.45v6.44Z" style="fill: #287dc1;"/>
  <path d="m23.21,16.41v-.07h-.38c-.12,0-.23-.01-.33-.03-.1-.02-.18-.06-.25-.12-.07-.06-.12-.14-.16-.25-.04-.11-.06-.25-.06-.42v-6.36h.3c.12,0,.23.01.33.03.1.02.18.06.25.12.07.06.12.14.16.25.04.11.06.25.06.42v6.44s.08,0,.08,0v-.07.07h.07v-6.44c-.01-.19-.03-.35-.08-.48-.05-.13-.11-.23-.21-.31-.09-.08-.19-.13-.31-.15-.11-.02-.23-.04-.36-.04h-.44v6.51c0,.19.02.35.07.48.05.13.11.23.21.31.09.08.19.13.31.15.11.02.23.04.36.04h.45v-.07h-.07Z" style="fill: #287dc1;"/>
  <path d="m36.61,4.08c-.13.21-.29.47-.49.75h.4c3.88,0,7.03,3.66,7.03,8.16s-3.16,8.16-7.03,8.16H8.53c-3.88,0-7.03-3.66-7.03-8.16s3.16-8.16,7.03-8.16h18.5c.05-.2.16-.49.43-.76H8.53c-4.2,0-7.62,4-7.62,8.92s3.42,8.92,7.62,8.92h27.99c4.2,0,7.62-4,7.62-8.92s-3.37-8.86-7.54-8.92" style="fill: #287dc1;"/>
  <g style="clip-path: url(#clippath);">
    <rect x="26.75" y="3.29" width="5.49" height="5.47" transform="translate(10.1 29.04) rotate(-61.43)" style="fill: url(#linear-gradient);"/>
  </g>
  <g style="clip-path: url(#clippath-1);">
    <rect x="28.5" y="-.79" width="10.55" height="10.56" transform="translate(4.43 21.8) rotate(-38.11)" style="fill: url(#linear-gradient-2);"/>
  </g>
</svg>