<?xml version="1.0" encoding="UTF-8"?>
<svg id="Layer_1" data-name="Layer 1" xmlns="http://www.w3.org/2000/svg" viewBox="0 0 27.92 25.55">
  <path d="m23.65,23.87H4.27c-1.36,0-2.46-1.07-2.46-2.39V4.07c0-1.32,1.1-2.39,2.46-2.39h19.38c1.36,0,2.46,1.07,2.46,2.39v17.41c0,1.32-1.1,2.39-2.46,2.39Z" style="fill: #3ba348;"/>
  <g>
    <path d="m17.07,8.51c-.52,0-1.03,0-1.55,0-.33,0-.57-.15-.73-.41-.18-.3-.31-.63-.46-.95-.11-.22-.21-.44-.32-.66-.1-.22-.2-.45-.31-.67-.04-.09-.07-.18-.13-.25-.04-.05-.11-.1-.18-.11-.23-.06-.47-.11-.7-.16-.02,0-.04,0-.06-.01-.41-.06-.81-.12-1.22-.19-.24-.04-.47-.1-.7-.16-.22-.06-.37-.03-.48.13-.04.06-.06.14-.06.21,0,.95,0,1.9,0,2.85,0,.22-.11.32-.32.31-.14,0-.26-.12-.27-.27,0-.09,0-.18,0-.27,0-.89,0-1.78,0-2.68,0-.42.26-.75.61-.86.22-.07.48,0,.72,0,.04,0,.08.03.12.04.25.04.5.06.74.11.23.04.45.1.67.15.02,0,.04,0,.06.01.26.04.53.07.79.11.43.07.75.28.92.71.12.3.28.58.41.87.13.29.26.57.39.86.09.19.17.39.28.57.04.06.14.12.22.12.65.01,1.3,0,1.95.01.12,0,.11-.08.11-.16,0-.61,0-1.22,0-1.83,0-.1.03-.2.07-.29.05-.12.15-.16.28-.15.12.01.2.07.23.18.03.09.05.19.06.29,0,.61,0,1.22,0,1.83,0,.09.03.12.11.12.16,0,.32,0,.47,0,.37.02.62.24.77.55.07.16.09.35.1.53.01.49,0,.97,0,1.46,0,.12-.04.23-.07.34-.04.14-.15.16-.27.16-.13,0-.22-.05-.25-.19-.02-.1-.05-.19-.05-.29,0-.53,0-1.06,0-1.59,0-.28-.1-.38-.38-.38-.52,0-1.04,0-1.56,0Z" style="fill: #fff;"/>
    <path d="m17.07,8.51v-.11c-.31,0-.61,0-.92,0-.21,0-.42,0-.63,0,0,0,0,0-.01,0-.14,0-.26-.03-.36-.09-.1-.06-.19-.15-.26-.26-.17-.29-.31-.62-.46-.94-.11-.22-.21-.44-.32-.66-.1-.22-.2-.44-.31-.67-.02-.04-.04-.08-.06-.13-.02-.05-.05-.1-.08-.14-.03-.04-.07-.07-.11-.1-.04-.03-.09-.05-.13-.06-.24-.06-.47-.11-.71-.16-.02,0-.04,0-.06-.01-.41-.06-.81-.12-1.21-.19-.23-.04-.46-.1-.7-.16-.08-.02-.15-.03-.22-.03-.08,0-.15.01-.22.05-.07.03-.12.09-.17.15-.03.04-.05.09-.06.13-.01.05-.02.09-.02.14,0,.95,0,1.9,0,2.85,0,.04,0,.08-.01.1,0,.02-.01.03-.02.04-.01.02-.02.03-.05.04-.02,0-.05.02-.1.02,0,0-.02,0-.02,0h0s-.08-.02-.11-.05c-.03-.03-.05-.07-.05-.12,0-.04,0-.08,0-.13,0-.04,0-.09,0-.14h0s0,0,0,0h0s0-.08,0-.12c0-.5,0-.99,0-1.49,0-.35,0-.71,0-1.06h0c0-.19.06-.35.15-.48.09-.13.23-.22.38-.27.06-.02.13-.03.2-.03.07,0,.15,0,.23.02.08,0,.17.02.25.02h0s0,0,0,0h0s0-.01,0-.01h0s.01.02.03.03c.02,0,.04.02.08.03.25.04.5.06.74.11.22.04.44.1.67.15.01,0,.04,0,.06.01.26.04.53.07.79.11.2.03.37.1.51.2.14.1.24.24.32.44.12.31.28.59.42.87.13.28.26.57.39.86.09.19.17.39.29.58.02.03.04.05.06.07.04.03.08.05.12.07.04.02.09.03.13.03.65.01,1.3,0,1.95.01h0s.07,0,.1-.02c.02,0,.05-.02.07-.04.01-.01.02-.03.03-.05.01-.02.02-.05.02-.07,0-.02,0-.04,0-.05,0-.02,0-.04,0-.05h-.11.11s0,0,0,0h-.11.11s0,0,0,0h0s0-.05,0-.07c0-.29,0-.58,0-.87s0-.6,0-.9c0-.08.02-.16.06-.24.01-.03.03-.05.05-.06.02-.01.05-.02.09-.02,0,0,.02,0,.03,0,.04,0,.07.02.09.03.02.01.03.03.04.07.03.09.05.18.05.26,0,.23,0,.46,0,.69,0,.38,0,.76,0,1.14h0s0,.06.01.09c0,.02.02.04.03.06.01.02.03.03.04.04.02.02.05.03.07.03.02,0,.04,0,.07,0h0s0,0,0,0h0c.09,0,.17,0,.26,0,.07,0,.14,0,.21,0,.16.01.3.06.41.14.11.08.2.2.27.34.03.07.05.14.07.23.01.08.02.17.02.26,0,.23,0,.45,0,.68,0,.26,0,.52,0,.78,0,.05,0,.1-.02.15-.01.05-.03.11-.05.17,0,.02-.01.03-.02.04,0,0,0,.01-.02.01,0,0-.02.01-.05.02-.02,0-.05,0-.07,0h0s-.05,0-.06,0c-.03,0-.04-.02-.05-.03-.01-.01-.02-.03-.03-.06-.01-.05-.02-.1-.03-.15,0-.05-.02-.09-.02-.12,0-.3,0-.59,0-.89,0-.23,0-.46,0-.69h0s0-.01,0-.02c0-.07,0-.14-.02-.2-.01-.05-.03-.09-.06-.13-.04-.06-.1-.1-.17-.12-.07-.02-.14-.03-.22-.03,0,0-.01,0-.02,0-.21,0-.42,0-.63,0-.31,0-.62,0-.92,0h0v.22c.31,0,.62,0,.92,0,.21,0,.42,0,.64,0,0,0,.01,0,.02,0,.06,0,.11,0,.14.02.02,0,.04.02.05.03,0,0,.02.01.02.02.01.01.02.04.03.07,0,.03.01.07.01.12,0,0,0,0,0,.01h0c0,.23,0,.47,0,.7,0,.3,0,.6,0,.89,0,.06.01.12.02.17.01.05.02.1.03.14,0,.05.02.09.05.13.03.06.09.1.14.12.06.02.11.03.17.03,0,0,0,0,.01,0,.03,0,.07,0,.1,0,.05,0,.11-.03.16-.06.03-.02.05-.04.07-.07.02-.03.03-.06.04-.1.02-.05.03-.11.05-.18.01-.06.03-.13.03-.2,0-.26,0-.52,0-.78,0-.23,0-.46,0-.68,0-.09,0-.19-.02-.29-.02-.1-.04-.19-.09-.29-.08-.17-.19-.32-.34-.43-.14-.11-.32-.18-.53-.19-.07,0-.15,0-.22,0-.09,0-.18,0-.26,0h0s0,0,0,0c0,0-.01,0-.02,0h0s0,0,0,0h0s0,0,0,0h0s0,0,0,0v.04s.01-.03.01-.03c0,0-.01,0-.01,0v.04s.01-.03.01-.03l-.03.04.04-.03s0,0-.01-.01l-.03.04.04-.03-.03.02h.03s0-.02,0-.02l-.03.02h.03s0,0,0,0h0s0,0,0,0h0s0,0,0,0c0,0,0,0,0,0,0,0,0-.01,0-.02h0c0-.38,0-.77,0-1.15,0-.23,0-.46,0-.69,0-.12-.03-.23-.06-.32-.02-.07-.06-.14-.12-.19-.06-.05-.13-.07-.21-.08-.02,0-.03,0-.05,0-.07,0-.14.02-.2.05-.06.04-.11.1-.14.17-.04.1-.07.21-.07.33,0,.3,0,.6,0,.9s0,.58,0,.87c0,.02,0,.04,0,.07h.11s-.11,0-.11,0h0s0,.04,0,.05c0,.01,0,.02,0,.02h0s.01,0,.01,0h-.01s0,0,0,0h.01s-.01,0-.01,0h.04s-.03-.01-.03-.01c0,0,0,0,0,.01h.04s-.03-.01-.03-.01l.03.02v-.04s-.02,0-.03.01l.03.02v-.04s-.01,0-.01,0h0s0,0,0,0h0s0,0,0,0h0s0,0-.01,0h0s0,0,0,0c-.65,0-1.3,0-1.94-.01,0,0-.02,0-.03,0-.02,0-.04-.02-.06-.03-.02-.01-.03-.03-.03-.03-.1-.17-.19-.36-.28-.56-.13-.28-.26-.57-.39-.86-.14-.3-.3-.57-.41-.86-.09-.23-.22-.41-.4-.54-.17-.13-.38-.2-.61-.24-.26-.04-.53-.08-.79-.11,0,0-.02,0-.05-.01-.22-.05-.45-.11-.68-.15-.25-.05-.5-.07-.74-.11h0s-.02,0-.04-.02c-.02,0-.05-.02-.09-.02-.07,0-.15-.01-.24-.02-.08,0-.17-.02-.25-.02-.09,0-.18,0-.26.03-.2.06-.37.18-.49.35-.12.17-.2.38-.2.61h0c0,.36,0,.71,0,1.07,0,.5,0,.99,0,1.49,0,.04,0,.08,0,.12h0s0,0,0,0c0,.04,0,.09,0,.14,0,.05,0,.1,0,.14,0,.1.05.19.12.26.07.07.16.11.26.11h0s.02,0,.03,0c.06,0,.11,0,.16-.03.04-.01.07-.03.1-.06.05-.04.08-.09.1-.15.02-.06.03-.12.03-.19,0-.95,0-1.9,0-2.85,0-.03,0-.06.01-.08,0-.03.02-.05.03-.06.03-.04.06-.07.09-.08.03-.02.06-.02.11-.02.04,0,.1,0,.16.02.23.06.47.12.71.16.41.07.81.13,1.22.19.01,0,.03,0,.05.01.24.05.47.1.7.16.02,0,.05.02.07.03.02.01.04.03.05.04.02.03.04.06.06.1.02.04.04.09.06.13.1.22.2.45.31.67.1.22.21.44.32.66.15.31.28.65.47.96.08.14.2.26.33.34.14.08.3.13.48.12,0,0,.01,0,.02,0,.21,0,.42,0,.62,0,.31,0,.61,0,.92,0h0v-.11Z" style="fill: #fff;"/>
    <path d="m11.18,9.16c1.48-.08,3.02,1.32,2.85,3.18-.11,1.25-1.24,2.61-2.92,2.58-1.67-.03-2.9-1.41-2.84-3,.05-1.43,1.22-2.81,2.92-2.76Zm-.03.61c-1.33-.04-2.28,1.07-2.29,2.25,0,1.26,1,2.29,2.27,2.3,1.28.01,2.33-1.05,2.31-2.32-.02-1.16-.99-2.28-2.29-2.23Z" style="fill: #fff;"/>
    <path d="m11.18,9.16v.11s.08,0,.12,0c.65,0,1.31.29,1.81.79.49.5.82,1.19.82,2,0,.09,0,.18-.01.27-.05.59-.35,1.21-.82,1.68-.24.24-.52.44-.85.58-.32.14-.69.22-1.09.22-.02,0-.03,0-.05,0-.78-.01-1.47-.34-1.95-.84-.49-.51-.78-1.19-.78-1.94,0-.03,0-.07,0-.1.02-.68.31-1.34.79-1.84.24-.25.52-.45.85-.6.32-.14.69-.22,1.09-.22.03,0,.06,0,.08,0h0s0,0,0,0v-.11s0-.11,0-.11c-.03,0-.06,0-.09,0-.43,0-.82.09-1.18.24-.53.23-.96.62-1.27,1.08-.3.46-.48,1-.5,1.55,0,.04,0,.07,0,.11,0,.8.32,1.55.84,2.09.53.55,1.27.9,2.11.91.02,0,.04,0,.05,0,.43,0,.82-.09,1.18-.24.53-.23.96-.6,1.27-1.03.31-.43.5-.93.54-1.41,0-.1.01-.2.01-.29,0-.87-.36-1.62-.89-2.16-.53-.54-1.25-.86-1.96-.86-.04,0-.08,0-.12,0v.11s0-.11,0-.11v.11Zm-.03.61v-.11s-.05,0-.07,0c-.34,0-.66.07-.94.2-.42.19-.77.5-1.01.88-.24.38-.38.83-.38,1.28h0c0,.66.26,1.26.69,1.7.43.44,1.02.71,1.69.72,0,0,.02,0,.02,0,.66,0,1.26-.27,1.69-.71.43-.43.71-1.03.71-1.69,0-.01,0-.03,0-.04h0c-.01-.6-.26-1.18-.67-1.62-.21-.22-.45-.4-.73-.53-.28-.13-.59-.2-.92-.2-.03,0-.06,0-.09,0v.11s0-.11,0-.11v.11s0,.11,0,.11c.03,0,.05,0,.08,0,.3,0,.58.06.83.18.38.17.69.45.91.8.22.34.35.74.36,1.15h0s0,.03,0,.04c0,.59-.25,1.13-.64,1.53-.4.39-.94.64-1.53.64,0,0-.01,0-.02,0-.6,0-1.14-.25-1.53-.65-.39-.4-.63-.94-.63-1.54h0c0-.55.22-1.09.59-1.49.19-.2.41-.36.66-.48.25-.11.54-.18.85-.18.02,0,.05,0,.07,0h0s0,0,0,0v-.11Z" style="fill: #fff;"/>
    <path d="m17.39,14.9c-.77.03-1.31-.36-1.7-.98-.12-.19-.21-.41-.21-.65,0-.12-.06-.23-.05-.35.07-.8.43-1.41,1.17-1.75.32-.15.66-.24,1.01-.18.48.08.91.28,1.24.66.26.3.42.65.48,1.05.04.25.02.49-.04.72-.1.44-.33.82-.71,1.08-.21.15-.45.27-.69.35-.15.06-.34.03-.51.04Zm1.33-1.93c.07-.79-.6-1.38-1.34-1.37-.68,0-1.32.54-1.33,1.37,0,.75.64,1.34,1.34,1.35.67,0,1.42-.61,1.33-1.35Z" style="fill: #fff;"/>
    <path d="m17.39,14.9v-.11s-.06,0-.09,0c-.34,0-.62-.09-.87-.25-.25-.16-.46-.39-.64-.68-.06-.09-.11-.19-.14-.28-.03-.1-.05-.2-.06-.31h0c0-.07-.02-.13-.03-.19-.01-.05-.02-.1-.02-.14,0,0,0-.01,0-.02h0c.03-.38.14-.72.32-.99.18-.28.44-.5.79-.67.24-.11.49-.19.73-.19.07,0,.14,0,.21.02.23.04.45.11.65.21.2.1.37.23.53.41.25.29.4.61.46,1,.01.08.02.16.02.25,0,.15-.02.29-.05.43h0c-.05.21-.13.4-.24.57-.11.17-.25.32-.43.44-.2.14-.43.26-.66.34-.04.01-.08.02-.12.03-.05,0-.09,0-.15,0-.03,0-.06,0-.08,0-.04,0-.08,0-.13,0v.11s0-.11,0-.11v.11s.01.11.01.11c.04,0,.07,0,.11,0,.03,0,.06,0,.08,0,.05,0,.11,0,.17,0,.06,0,.12-.02.18-.04.25-.09.5-.21.72-.37.2-.14.36-.31.49-.51.12-.2.21-.41.27-.64h0c.04-.15.06-.32.06-.48,0-.09,0-.19-.02-.28-.07-.42-.24-.79-.51-1.11-.17-.2-.38-.36-.6-.47-.22-.11-.46-.18-.71-.23-.08-.01-.16-.02-.25-.02-.29,0-.57.09-.83.21-.39.18-.68.43-.88.75-.2.31-.32.68-.35,1.1h0s0,.02,0,.04c0,.07.02.13.03.19.01.05.02.1.02.14h0c0,.14.03.26.07.38.04.12.1.23.16.33.19.31.42.56.7.75.28.18.61.29.99.29.03,0,.07,0,.1,0h0s0,0,0,0v-.11Zm1.33-1.93h.11s0-.07,0-.11c0-.2-.04-.39-.12-.55-.12-.25-.31-.46-.54-.6-.23-.14-.51-.22-.79-.22h0s0,0,0,0c-.37,0-.73.15-.99.41-.27.26-.44.63-.45,1.08h0s0,0,0,0c0,.41.18.77.44,1.03.27.26.63.42,1,.42,0,0,0,0,.01,0,.17,0,.35-.04.52-.1.25-.1.48-.27.65-.48.17-.21.28-.47.28-.76,0-.04,0-.08,0-.13h-.11s.11.02.11.02h-.11s-.11,0-.11,0c0,.03,0,.07,0,.1,0,.15-.04.3-.11.43-.1.2-.27.37-.47.5-.2.12-.43.19-.64.19,0,0,0,0-.01,0-.31,0-.62-.14-.85-.36-.23-.22-.38-.53-.38-.87h0c0-.39.15-.7.38-.92.23-.22.53-.34.84-.35h0c.32,0,.63.12.86.33.11.1.21.23.27.37.06.14.1.29.1.46,0,.03,0,.06,0,.1h0s0,.02,0,.02h.11Z" style="fill: #fff;"/>
  </g>
  <g>
    <path d="m2.98,21.32c-.08,0-.15-.02-.2-.06-.05-.04-.09-.09-.1-.16-.01-.07,0-.14.04-.22l1.15-2.52c.05-.1.1-.18.17-.22.07-.05.14-.07.23-.07s.16.02.23.07c.07.05.12.12.17.22l1.16,2.52c.04.08.05.16.04.22-.01.07-.04.12-.09.16-.05.04-.12.06-.2.06-.1,0-.18-.02-.24-.07-.06-.05-.1-.12-.15-.23l-.27-.62.28.19h-1.87l.28-.19-.27.62c-.04.1-.09.18-.14.23s-.12.07-.22.07Zm1.28-2.47l-.58,1.37-.12-.17h1.41l-.12.17-.58-1.37h0Z" style="fill: #fff;"/>
    <path d="m7.26,22.14c-.16,0-.32-.01-.46-.04-.15-.03-.28-.07-.39-.12-.07-.03-.12-.07-.15-.12s-.04-.1-.04-.15c0-.05.02-.1.05-.14.03-.04.07-.07.12-.09.05-.02.1-.01.15.01.13.06.25.1.37.12.11.02.21.03.29.03.19,0,.34-.04.43-.13.1-.09.14-.22.14-.4v-.34h.04c-.04.14-.14.25-.28.34-.14.09-.3.13-.47.13-.2,0-.37-.05-.52-.14-.15-.09-.26-.22-.34-.39-.08-.17-.12-.36-.12-.58,0-.16.02-.31.07-.45.05-.14.11-.25.2-.35.09-.1.19-.17.31-.22.12-.05.26-.08.4-.08.18,0,.33.04.47.13.14.09.23.2.27.33l-.05.14v-.26c0-.11.03-.2.09-.25.06-.06.14-.09.25-.09s.19.03.25.09c.06.06.09.14.09.25v1.64c0,.37-.1.65-.3.83s-.49.28-.87.28Zm.01-1.42c.1,0,.19-.02.26-.07.07-.05.13-.12.17-.2.04-.09.06-.19.06-.32,0-.18-.05-.33-.14-.43-.09-.1-.21-.15-.36-.15-.1,0-.19.02-.26.07-.07.05-.13.11-.17.2s-.06.19-.06.32c0,.19.05.33.14.44s.21.16.36.16Z" style="fill: #fff;"/>
    <path d="m9.31,21.32c-.11,0-.2-.03-.26-.09-.06-.06-.09-.14-.09-.26v-1.6c0-.11.03-.2.09-.25.06-.06.14-.09.25-.09s.19.03.25.09c.06.06.09.14.09.25v.23h-.04c.04-.18.12-.32.24-.42.12-.1.28-.15.48-.17.07,0,.13.01.17.06s.06.11.07.21c0,.09-.01.17-.06.22-.04.05-.12.09-.22.1h-.1c-.17.02-.3.07-.38.16s-.12.2-.12.36v.84c0,.11-.03.2-.09.26-.06.06-.14.09-.25.09Z" style="fill: #fff;"/>
    <path d="m11.16,18.67c-.13,0-.22-.03-.29-.09s-.1-.14-.1-.25.03-.2.1-.25c.07-.06.16-.09.29-.09s.22.03.29.09c.07.06.1.14.1.25s-.03.19-.1.25-.16.09-.29.09Zm0,2.65c-.11,0-.2-.03-.25-.1-.06-.06-.09-.16-.09-.27v-1.54c0-.12.03-.21.09-.28.06-.06.14-.1.25-.1s.19.03.25.1c.06.07.09.16.09.28v1.54c0,.12-.03.21-.09.27-.06.06-.14.1-.25.1Z" style="fill: #fff;"/>
    <path d="m13.21,21.33c-.13,0-.25-.01-.38-.03-.13-.02-.26-.05-.37-.08-.12-.04-.22-.08-.32-.13-.07-.04-.11-.08-.14-.14-.03-.06-.04-.12-.03-.18,0-.06.03-.11.07-.16s.09-.08.14-.09c.06-.01.12,0,.2.03.12.07.26.12.4.15.15.03.29.05.43.05.22,0,.37-.03.47-.1s.14-.15.14-.25c0-.09-.03-.16-.1-.21s-.18-.09-.35-.13l-.51-.11c-.29-.06-.5-.16-.64-.31-.14-.15-.21-.34-.21-.57,0-.15.03-.29.09-.41.06-.12.15-.23.26-.32s.25-.16.41-.21c.16-.05.33-.07.52-.07.17,0,.33.02.49.06.16.04.3.1.43.18.06.04.1.08.12.14.02.06.03.11.02.17,0,.06-.03.1-.07.15-.04.04-.08.07-.14.08-.06.01-.13,0-.21-.04-.1-.05-.2-.09-.31-.11s-.22-.04-.34-.04c-.13,0-.23.02-.32.05s-.16.08-.2.14c-.05.06-.07.13-.07.21,0,.09.03.16.09.21.06.05.17.1.33.13l.51.11c.29.06.51.16.66.3.14.14.22.32.22.55,0,.15-.03.29-.09.41-.06.12-.15.23-.26.31s-.25.15-.41.2c-.16.05-.34.07-.54.07Z" style="fill: #fff;"/>
    <path d="m15.24,21.32c-.11,0-.2-.03-.25-.09-.06-.06-.09-.14-.09-.26v-2.56c0-.11.03-.2.09-.26s.14-.09.25-.09.19.03.25.09c.06.06.09.14.09.26v1.07h-.06c.07-.15.17-.26.31-.34.14-.08.29-.12.46-.12s.32.03.44.1c.11.07.2.17.26.31.06.14.09.31.09.52v1.02c0,.11-.03.2-.09.26-.06.06-.14.09-.25.09s-.19-.03-.25-.09c-.06-.06-.09-.14-.09-.26v-.99c0-.15-.03-.26-.08-.33s-.14-.1-.25-.1c-.14,0-.26.04-.34.14-.09.09-.13.21-.13.36v.93c0,.23-.11.35-.34.35Z" style="fill: #fff;"/>
    <path d="m18.32,21.33c-.16,0-.31-.03-.44-.09-.13-.06-.23-.15-.3-.26s-.11-.23-.11-.36c0-.16.04-.29.13-.38.08-.09.22-.16.41-.2s.44-.06.75-.06h.24v.35h-.23c-.15,0-.28,0-.37.02-.09.02-.16.04-.2.08-.04.04-.06.09-.06.16,0,.08.03.15.09.21.06.05.14.08.25.08.09,0,.16-.02.23-.06.07-.04.12-.1.16-.17.04-.07.06-.15.06-.24v-.52c0-.13-.03-.23-.09-.28s-.16-.08-.31-.08c-.08,0-.17,0-.26.03-.09.02-.2.05-.31.1-.07.03-.12.04-.18.02-.05-.02-.09-.05-.12-.09s-.04-.09-.04-.14.02-.1.05-.15c.03-.05.08-.09.15-.11.14-.06.27-.1.4-.12.12-.02.24-.03.34-.03.23,0,.42.03.57.1.15.07.26.17.34.31.07.14.11.32.11.54v1c0,.11-.03.2-.08.26-.05.06-.13.09-.23.09s-.18-.03-.24-.09c-.06-.06-.08-.14-.08-.26v-.17l.03.03c-.02.1-.06.19-.11.26s-.13.13-.22.17-.19.06-.31.06Z" style="fill: #fff;"/>
    <path d="m20.43,21.32c-.11,0-.2-.03-.26-.09-.06-.06-.09-.14-.09-.26v-1.6c0-.11.03-.2.09-.25.06-.06.14-.09.25-.09s.19.03.25.09c.06.06.09.14.09.25v.23h-.04c.04-.18.12-.32.24-.42.12-.1.28-.15.48-.17.07,0,.13.01.17.06s.06.11.07.21c0,.09-.01.17-.06.22-.04.05-.12.09-.22.1h-.1c-.17.02-.3.07-.38.16s-.12.2-.12.36v.84c0,.11-.03.2-.09.26-.06.06-.14.09-.25.09Z" style="fill: #fff;"/>
    <path d="m23.04,21.33c-.26,0-.48-.05-.67-.14-.19-.09-.33-.23-.43-.4-.1-.17-.15-.38-.15-.61s.05-.43.14-.6c.1-.17.23-.31.4-.41.17-.1.37-.15.59-.15.16,0,.3.03.43.08.13.05.24.13.33.23s.16.22.21.36c.05.14.07.29.07.46,0,.06-.02.1-.05.13-.04.03-.09.04-.16.04h-1.41v-.35h1.13l-.07.06c0-.12-.02-.23-.05-.31-.04-.08-.09-.15-.16-.19-.07-.04-.15-.06-.25-.06-.11,0-.21.03-.28.08s-.14.12-.18.22-.06.21-.06.35v.04c0,.23.05.39.16.5s.26.16.47.16c.07,0,.15,0,.25-.03.09-.02.18-.05.26-.09.07-.03.13-.04.18-.03s.1.04.13.07c.03.04.05.08.05.13,0,.05,0,.1-.03.15-.03.05-.07.09-.14.12-.1.06-.22.1-.34.13-.13.03-.25.04-.37.04Z" style="fill: #fff;"/>
  </g>
</svg>