<?xml version="1.0" encoding="UTF-8"?>
<svg id="Layer_1" data-name="Layer 1" xmlns="http://www.w3.org/2000/svg" xmlns:xlink="http://www.w3.org/1999/xlink" viewBox="0 0 26.24 25.25">
  <defs>
    <style>
      .cls-1 {
        fill: url(#radial-gradient);
      }

      .cls-2 {
        fill: #ebbf39;
      }
    </style>
    <radialGradient id="radial-gradient" cx="19.73" cy="12" fx="19.73" fy="12" r="3.98" gradientUnits="userSpaceOnUse">
      <stop offset="0" stop-color="#fdfbf5"/>
      <stop offset=".05" stop-color="#fbf4e0"/>
      <stop offset=".21" stop-color="#f6e0a3"/>
      <stop offset=".37" stop-color="#f2cf70"/>
      <stop offset=".51" stop-color="#efc248"/>
      <stop offset=".65" stop-color="#ecb82c"/>
      <stop offset=".76" stop-color="#ebb31b"/>
      <stop offset=".85" stop-color="#ebb115"/>
    </radialGradient>
  </defs>
  <path d="m22.77,10.62c-.46-.62-1.12-1.02-1.83-1.17-.03,0-.05-.01-.08-.01-.23-.04-.48-.05-.74-.04-.05,0-.1,0-.14,0-.27.03-.53.09-.79.18l-.37.17h0c-.11.06-.22.13-.32.2-1.39.98-1.71,2.88-.72,4.25.11.15.23.29.36.42.03.03.07.07.1.1.22.19.46.35.71.47l.38.15c.9.29,1.92.17,2.75-.41.38-.26.67-.6.89-.97.01-.01.02-.03.02-.04.1-.18.19-.38.25-.57,0-.01,0-.03.01-.04.23-.9.06-1.9-.48-2.66"/>
  <circle class="cls-1" cx="20.27" cy="12.43" r="2.74"/>
  <path class="cls-2" d="m19.96,2.92c-.47.39-.98.56-1.5.68-1.03.25-2.07.44-3.12.55-1.07.1-2.15.17-3.18-.25-.4-.17-.71-.46-.81-.93-.14-.7-.37-.96-.9-.99-.3-.01-.61.06-.9.14-.72.22-1.43.42-2.12.78-.88.46-1.64,1.02-2.22,1.82-.43.6-.75,1.25-.94,1.97-.13.52-.25,1.04-.35,1.57-.11.58,0,1.11.24,1.61.13.27.43.47.74.56.8.22,1.6.34,2.45.23.78-.1,1.59-.18,2.37-.14.8.04,1.44.48,1.95,1.12.46.58.6,1.21.65,1.94.09,1.32.27,2.65.67,3.93.31,1.01.62,2.02,1.15,2.94.54.93,1.02,1.9,1.71,2.74.21.25.45.48.69.71.13.13.22.27.23.48-.43,0-.71-.29-.99-.5-1.49-1.1-2.48-2.57-3.1-4.28-.37-1.04-.58-2.14-.68-3.25-.07-.83-.07-1.67-.18-2.49-.11-.82-.34-1.5-1.52-1.66-.95-.13-1.89-.05-2.84-.09-1.49-.07-2.81-.53-3.75-1.72-.62-.77-.97-1.7-.74-2.69.33-1.42,1.07-2.63,2.14-3.65.6-.57,1.24-1.13,1.92-1.57.86-.56,1.71-1.23,2.75-1.41.64-.11,1.36-.26,1.99.22.22.16.27.38.32.57.21.68.74.98,1.35,1.15,1.22.35,2.47.33,3.72.16.71-.1,1.42-.16,2.11-.31.19-.04.41-.07.68.04"/>
  <path d="m19.39,18.01l.72-2.21c-.15-.03-.29-.07-.43-.11l-.72,2.2c-.48-.07-.98.07-1.36.41-.69.61-.74,1.67-.12,2.35.33.36.8.56,1.29.54.34,0,.66-.12.93-.31.05-.04.1-.07.15-.12.69-.61.74-1.67.12-2.34-.17-.18-.37-.32-.59-.41m.04,1.72l-.02.06c-.04.12-.11.23-.2.31-.29.26-.75.24-1.02-.05-.09-.1-.15-.21-.18-.35,0,0,0-.01,0-.02v-.02c-.05-.25.03-.5.22-.67.3-.27.77-.25,1.04.05.17.19.23.44.16.69"/>
  <path d="m19.87,7.67c.64-.24,1.02-.92.86-1.6-.18-.73-.92-1.18-1.66-1-.41.1-.73.36-.9.71-.12.24-.17.51-.14.79,0,.05.01.1.03.15.16.64.75,1.07,1.39,1.04l.38,1.53c.14-.03.29-.05.44-.06l-.38-1.56Zm-.24-.28c-.36.09-.73-.03-.97-.27-.02-.01-.03-.03-.05-.05-.12-.12-.21-.28-.26-.46-.13-.54.21-1.09.75-1.22.19-.05.37-.04.54.02.02,0,.04,0,.05.02.33.1.6.37.69.73.13.55-.21,1.1-.76,1.24"/>
  <g>
    <path d="m21.31,12.27c0-.12-.07-.19-.19-.19-.56,0-1.12,0-1.69,0-.13,0-.2.07-.2.2,0,.45,0,.91,0,1.36,0,.14.06.2.21.2h.83c.28,0,.57,0,.85,0,.13,0,.19-.06.2-.18,0-.46,0-.93,0-1.39m-.87.7s-.05.08-.05.12c0,.09,0,.18,0,.27,0,.09-.05.15-.12.14-.09,0-.12-.06-.11-.14,0-.05,0-.1,0-.15,0-.04,0-.07,0-.11,0-.06,0-.1-.06-.14-.1-.09-.1-.25,0-.34.1-.09.25-.09.34,0,.1.1.09.24,0,.35"/>
    <path d="m19.85,12.09h-.33c-.09-.32.02-.69.25-.89.27-.22.66-.25.94-.05.32.22.36.49.32.93h-.33c0-.07,0-.14,0-.21.03-.37-.28-.51-.53-.46-.22.05-.32.19-.32.44v.24Z"/>
  </g>
</svg>