<?xml version="1.0" encoding="UTF-8"?>
<svg id="Layer_1" data-name="Layer 1" xmlns="http://www.w3.org/2000/svg" viewBox="0 0 27.92 25.55">
  <path d="m27.76,14.68c-.18,0-.36,0-.53,0-1.82,0-3.64,0-5.46,0-.45,0-.89,0-1.34,0-.07,0-.12-.02-.18-.06-.48-.35-.96-.71-1.45-1.06-.66-.47-1.31-.94-1.97-1.42-.49-.35-.99-.71-1.48-1.06-.41-.29-.82-.59-1.23-.89-.49-.35-.98-.7-1.47-1.06-.04-.03-.06-.02-.1,0-.63.44-1.25.88-1.88,1.31-.59.41-1.19.83-1.78,1.24-.88.61-1.75,1.23-2.63,1.84-.31.22-.61.43-.92.65-.21.15-.43.3-.64.45-.03.02-.07.03-.11.03-1.33,0-2.66,0-3.99,0-.14,0-.28,0-.42,0-.05,0-.05-.03-.05-.06,0-.28,0-.55,0-.83,0-.76,0-1.52,0-2.28,0-.96,0-1.92,0-2.87,0-.33,0-.66,0-1,0-.06.01-.08.08-.08,1.39,0,2.78,0,4.18,0,.07,0,.15,0,.22,0,.04,0,.06.01.06.06,0,.17,0,.34,0,.51,0,.37,0,.73,0,1.1,0,.02,0,.05,0,.08.06-.04.1-.06.15-.09.53-.37,1.05-.73,1.58-1.1.86-.6,1.71-1.2,2.57-1.8.81-.57,1.62-1.13,2.43-1.7.31-.22.62-.43.93-.65.08-.06.16-.12.25-.18.03-.02.06-.02.09,0,.72.52,1.44,1.04,2.16,1.56,1.03.74,2.07,1.48,3.1,2.23.85.61,1.71,1.22,2.56,1.84.87.63,1.75,1.26,2.62,1.89.64.46,1.28.92,1.92,1.38.69.5,1.38,1,2.08,1.49.21.15.43.31.64.46.01,0,.03.02.04.03,0,0,0,0,0,.01Z" style="fill: #a32a29;"/>
  <path d="m9.92,21.72s-.09,0-.14,0c-.44,0-.88,0-1.33,0-.07,0-.14,0-.18-.08,0-.02-.03-.04-.05-.05-.11-.12-.11-.12-.26-.05-.3.13-.61.21-.93.24-.31.03-.61-.01-.91-.1-.59-.17-1.09-.5-1.45-1.01-.42-.58-.58-1.23-.47-1.93.15-.92.65-1.61,1.48-2.04.49-.25,1.01-.34,1.55-.25.89.16,1.57.64,2,1.45.24.45.33.93.28,1.43-.04.4-.17.78-.38,1.13-.03.06-.07.12-.11.17-.03.04-.03.06,0,.1.25.27.49.54.73.8.05.06.1.11.15.17,0,0,0,.01,0,.02Zm-1.72-1.95c.33-.61.18-1.39-.41-1.86-.57-.46-1.46-.4-1.98.1-.55.54-.58,1.45-.15,2.01.45.57,1.19.68,1.62.51-.01-.02-.03-.04-.04-.05-.3-.33-.6-.66-.9-.99-.03-.04-.03-.05,0-.08.26-.23.52-.46.77-.69.02-.02.04-.03.07-.05.33.37.66.73,1,1.09Z"/>
  <path d="m.13,16.48h3.43v1.17H1.3s0,.05,0,.08c0,.23,0,.46,0,.69,0,.1,0,.1.1.1.4,0,.79,0,1.19,0,.1,0,.19,0,.29,0,.07,0,.08.02.08.09,0,.33,0,.67,0,1,0,.03,0,.05,0,.08h-1.65v.87c.06,0,.12,0,.18,0,.65,0,1.3,0,1.95,0,.13,0,.13,0,.13.13,0,.28,0,.55,0,.83,0,.05,0,.1,0,.14,0,.05-.01.06-.06.06-.3,0-.61,0-.91,0-.79,0-1.58,0-2.37,0-.09,0-.1,0-.09-.1,0-1.55,0-3.1,0-4.65,0-.17,0-.33,0-.51Z"/>
  <path d="m10.54,16.48h1.16s0,.05,0,.08c0,1.02,0,2.04,0,3.06,0,.3.09.57.33.77.36.32.89.28,1.2-.06.2-.22.26-.48.27-.77,0-.6,0-1.2,0-1.8,0-.42,0-.83,0-1.25,0-.01,0-.03,0-.04h1.16s0,.04,0,.05c0,1.08.01,2.17,0,3.25,0,.7-.29,1.28-.89,1.66-.5.33-1.06.42-1.65.28-.74-.17-1.23-.62-1.47-1.33-.06-.2-.1-.42-.1-.63,0-1.07,0-2.14,0-3.2,0-.03,0-.05,0-.08Z"/>
  <path d="m22.68,16.47c.17,0,.33,0,.49,0,.29,0,.57,0,.86,0,.05,0,.09.02.12.06.35.48.7.97,1.04,1.45.04.05.06.03.09,0,.28-.4.57-.79.85-1.19.07-.09.13-.19.2-.28.01-.02.04-.03.06-.03.45,0,.91,0,1.36,0,0,0,.02,0,.03,0-.02.02-.03.04-.04.06-.62.86-1.25,1.72-1.87,2.58-.04.06-.06.12-.06.19,0,.78,0,1.56,0,2.33,0,.06-.01.08-.08.08-.35,0-.69,0-1.04,0-.04,0-.06,0-.06-.06,0-.74,0-1.48,0-2.23,0-.17-.04-.3-.14-.43-.53-.72-1.05-1.44-1.57-2.17-.08-.11-.15-.21-.23-.31,0-.01-.01-.03-.03-.05Z"/>
  <path d="m20.88,17.65v4.07s-.06,0-.08,0c-.35,0-.69,0-1.04,0-.06,0-.06-.03-.06-.07,0-.57,0-1.14,0-1.71,0-.75,0-1.5,0-2.25,0-.05-.02-.06-.06-.06-.39,0-.78,0-1.17,0-.06,0-.12,0-.18,0v-1.17h3.98s0,.07,0,.1c0,.33,0,.65,0,.98,0,.07-.02.09-.08.08-.42,0-.84,0-1.27,0-.01,0-.03,0-.05,0Z"/>
  <path d="m16.09,21.72v-5.24h1.16s0,.04,0,.05c0,.98,0,1.95,0,2.93,0,.73,0,1.45,0,2.18,0,.07-.02.08-.09.08-.35,0-.7,0-1.05,0,0,0-.02,0-.03,0Z"/>
</svg>