<?xml version="1.0" encoding="UTF-8"?>
<svg id="Layer_1" data-name="Layer 1" xmlns="http://www.w3.org/2000/svg" viewBox="0 0 38.21 23.31">
  <path d="m35.93,9.24c-1.04-1.28-2.16-2.5-3.26-3.72-.78-.86-1.73-1.5-2.86-1.8-.73-.2-1.29-.59-1.72-1.21-.41-.6-.91-1.12-1.57-1.45-1.29-.63-2.53-.46-3.68.33-1.14.78-1.42,1.94-1.25,3.24.12.9.04,1.78-.18,2.75-1.55-1.94-3.11-1.66-4.7-.06-.06-.75-.09-1.45-.08-2.15,0-.37.1-.75.1-1.12,0-2-1.9-3.61-3.87-3.33-1.09.15-1.93.71-2.57,1.59-.47.65-1.07,1.11-1.84,1.37-1.03.35-1.98.85-2.72,1.66-1.23,1.35-2.47,2.7-3.61,4.12-1.43,1.77-1.95,3.84-1.66,6.1.56,4.39,4.64,7.89,9.75,6.92,3.09-.58,5.09-2.56,6.16-5.5.09-.25.18-.49.29-.81,1.64,1.7,3.27,1.48,4.93.03.09.25.14.42.2.58.06.18.12.36.2.53,1.35,3.12,3.59,5.07,7.08,5.3,2.42.16,4.57-.58,6.32-2.29,3.05-2.99,3.29-7.68.56-11.08m-27.44,11.8c-3.53,0-6.5-3.01-6.5-6.57,0-3.63,2.97-6.58,6.59-6.58,3.36,0,6.55,2.67,6.57,6.57.02,3.67-2.97,6.59-6.66,6.59m10.63-4.82c-.94.01-1.76-.81-1.76-1.76,0-.93.81-1.75,1.73-1.75.95,0,1.75.81,1.75,1.76,0,.95-.78,1.74-1.72,1.75m13.69,3.17c-.02.06-.04.12-.06.17l-1.3-.34s0,.03-.01.04c.36.17.72.34,1.08.51-.02.06-.04.11-.06.17-.34-.07-.67-.15-1.01-.22,0,.01,0,.03-.01.04.28.11.56.22.87.34-.37.34-.69,0-1.11,0,.26.11.44.19.62.28,0,.04,0,.08.01.12-.47.11-.93.3-1.4.33-.68.03-1.37.01-2.04-.09-1.6-.26-2.23-1.23-1.86-2.81.11-.46.3-.91.49-1.36.05-.12.2-.19.32-.3-.06-.18-.19-.43-.22-.69-.12-.97.92-1.81,1.92-1.49.53.17,1,.26,1.55.11.47-.13.96-.04,1.39.24.72.47.82,1.18.26,1.83-.11.12-.24.22-.41.38.58.11.5.61.7.99-.17-.05-.31-.09-.5-.15.26.22.47.4.69.57-.02.03-.03.05-.05.08-.09-.03-.18-.06-.27-.09-.63-.2-1.25-.43-1.89-.58-.88-.21-1.73-.06-2.52.39-.23.13-.46.27-.7.41,0,.02,0,.03.01.05.44-.12.88-.26,1.32-.35.88-.18,1.76-.1,2.61.22.45.17.91.33,1.35.51.1.04.16.17.25.26-.03.03-.05.06-.08.1-.45-.14-.91-.29-1.36-.43l-.02.04c.48.23.95.46,1.43.69m.36-3.16c.44.36.59.83.63,1.45-.24-.55-.43-1-.63-1.45m1.1.68c-.18-.33-.37-.65-.55-.98.05-.03.09-.06.14-.09.17.34.35.67.52,1.01-.04.02-.07.04-.11.06m-1.43-2.3c.19-.15.34-.28.58-.47-.27.06-.44.1-.64.14.04-.08.07-.14.07-.15-.65-.05-1.3-.04-1.73-.68-.05-.07-.14-.12-.22-.17-.34-.23-.35-.43,0-.67.11-.08.24-.15.38-.24.01.06.02.1.03.13.29-.08.6-.17.9-.26.01.04.03.09.04.13-.32.15-.63.31-.95.47.02.03.03.07.05.1.28-.13.56-.26.81-.37.09.17.14.43.27.47.32.1.59-.07.73-.31.38.05.73.09,1.1.14,0-.49-.18-.84-.56-.98-.53-.19-1.08-.3-1.63-.43-.09-.02-.18-.03-.33-.05.09-.08.15-.13.28-.26-.61.12-1.11.24-1.61.31-.94.13-1.88.25-2.84.12-.43-.06-.89,0-1.32.09-.42.09-.72.38-.88.85.08-.02.12-.03.2-.05-.02.12-.04.22-.07.39.28-.19.52-.35.75-.5.02.02.03.03.05.05-.08.12-.16.24-.24.36.33.39.61-.07.94-.05-.05-.07-.09-.13-.16-.23.2-.05.38-.1.55-.14.27.49.31.51.96.36-.25-.18-.44-.33-.63-.47.43.05.75.26.97.72-.35.13-.68.25-1.01.37v.04c.27-.06.53-.13.86-.21-.09.14-.14.23-.15.23.52-.15,1.11-.33,1.7-.49.09-.02.27.06.3.13.03.09-.06.22-.11.35.08.05.23.12.37.2,0,.01-.01.03-.02.04l-.62-.11s0,.02-.01.04c.1.04.2.09.37.16h-.54s-.02.03-.03.04c.08,0,.16,0,.25,0-.04.06-.08.12-.11.18-.17-.01-.34-.04-.5-.03-.5,0-1.01-.02-1.5.06-.48.07-.8.42-1.06.84-.12-.03-.23-.06-.37-.09.03.07.05.12.07.16-.82-.05-1.54-.77-1.69-1.69-.19-1.18.5-2.3,1.74-2.79.28-.11.58-.17.84-.25-1.47-.25-2.93.85-3.14,2.38-.08.61-.01,1.2.19,1.77.13.36.19.72.04,1.11.08-.11.16-.22.24-.33.04.02.08.03.12.05-.07.42-.14.84-.21,1.27.02,0,.04.02.05.03.12-.2.24-.4.37-.6.03,0,.06.02.09.02-.08.74-.16,1.48-.24,2.22.02,0,.04,0,.06,0,.15-.55.3-1.1.45-1.64.05.01.09.02.13.03-.03.59-.11,1.18-.06,1.77.05.57.25,1.12.37,1.65-.58-.45-1.24-.91-1.58-1.69-.1-.22-.15-.46-.44-.63-.22-.13-.32-.58-.35-.9-.06-.59,0-1.2-.05-1.79-.07-1.01-.07-2,.47-2.91.1-.17.07-.41.13-.61.08-.26.13-.56.29-.77,1.65-2.26,4.62-3.24,7.26-2.34.66.23,1.25.67,1.88,1.01-.02.05-.03.09-.05.14-.61-.15-1.22-.3-1.83-.45.57.41,1.3.53,1.8,1.1-1.21.08-2.39.16-3.56.24v.14c.26.02.52.05.77.06.79.05,1.59.02,2.35.16.94.17,1.59.74,1.77,1.74.19,1.13-.79,2.33-1.91,2.27" style="fill: #0e3a39;"/>
  <path d="m9.46,15.67h3.5c-.1,1.32-.54,2.39-1.61,3.13-1.49,1.03-3.9,1.02-5.45-.06-1.82-1.27-2.44-3.07-2.12-5.22.33-2.23,2.34-3.99,4.59-4.08,1.23-.05,2.33.28,3.32,1.07.22-.23.43-.45.64-.67.05-.05.09-.1.15-.17-.09-.08-.17-.15-.25-.21-1.84-1.32-3.85-1.56-5.93-.74-2.77,1.1-4.26,4.19-3.61,7.21.48,2.23,2.65,4.9,6.21,4.78,2.74-.1,4.56-1.49,5.16-4.17.14-.62.16-1.27.24-1.92h-4.84v1.05Z" style="fill: #0e3a39;"/>
  <path d="m31.45,9.62c-.48-.04-.87-.06-1.25-.09-.59-.05-1.17-.13-1.76-.13-.37,0-.73.14-1.1.22,0,.04.02.09.03.13,1.33-.07,2.68.36,4.09-.13" style="fill: #0e3a39;"/>
  <path d="m27.64,13.14c-.49-.03-.89-.05-1.3-.07,0,.03,0,.07,0,.1.4.2.81.15,1.3-.03" style="fill: #0e3a39;"/>
  <path d="m28.3,15.84c0-.22-.02-.48-.03-.75.41.67,1.14.6,1.69.95.03-.33.06-.6.06-.87,0-.09-.09-.22-.16-.25-.35-.11-.7-.2-1.06-.27-.35-.07-.63.09-.73.35-.11.32,0,.68.24.83" style="fill: #0e3a39;"/>
  <path d="m31.54,15.54c.41-.21.42-.33.12-.7.48.03.32.46.47.72.17-.24.17-.46.04-.7-.12-.23-.34-.3-.57-.26-.41.09-.82.2-1.22.32-.06.02-.12.12-.12.18.02.31.07.62.12.98.43-.2.81-.35,1.17-.54" style="fill: #0e3a39;"/>
  <path d="m29.9,20.51s.02.1.03.15c.38-.06.77-.13,1.15-.19,0-.04-.01-.09-.02-.13l-1.16.17Z" style="fill: #0e3a39;"/>
</svg>