<?xml version="1.0" encoding="UTF-8"?>
<svg id="Layer_1" data-name="Layer 1" xmlns="http://www.w3.org/2000/svg" viewBox="0 0 27.92 25.55">
  <path d="m17.13,7.67s0,0,0,0h0s0,0,0,0h0Z" style="fill: #ed9521;"/>
  <path d="m13.81.24C8.7.24,4.55,4.38,4.55,9.49c0,.39.03.77.07,1.15.3-.18.72-.31,1.33-.31.7,0,1.33.37,1.95.64.45.2.9.35,1.35.29.28-.04.63-.22,1.01-.47.79-.5,1.74-1.26,2.64-1.54.09-.03.18-.05.27-.07.09-.02.17-.03.26-.03.02,0,.04,0,.06,0,.12,0,.24,0,.35.04,1.08.25,1.64.84,2.25,1.16.04.02.07.04.11.05,0,0,.01,0,.02,0,.21.1.44.15.69.14.65-.03.76-.23,1.01-.34.13-.05.29-.08.57-.04.06,0,.14.02.22.04,1.09.23.78.46,1.75.54.54.04,1.66-.27,2.56-.55,0-.12.02-.24.02-.36,0-.12,0-.24,0-.35C23.06,4.38,18.92.24,13.81.24Zm3.32,7.44h0s0,0,0,0h0s0,0,0,0Z" style="fill: #fff;"/>
  <path d="m16.11,10.36c-.61-.32-1.18-.91-2.25-1.16-.12-.03-.24-.04-.35-.04.11,0,.23.01.34.04,1.07.25,1.64.84,2.25,1.16.04.02.08.04.13.06t0,0s-.07-.04-.11-.05Z" style="fill: #1b2754;"/>
  <path d="m13.81.23C8.7.23,4.55,4.38,4.55,9.49c0,.39.02.77.07,1.15.3-.18.72-.31,1.33-.31.7,0,1.33.37,1.95.64.45.2.9.36,1.36.29.28-.04.63-.22,1.01-.47.79-.5,1.74-1.26,2.64-1.53.18-.05.36-.09.53-.1.02,0,.04,0,.06,0,.12,0,.24,0,.36.04,1.07.25,1.64.85,2.25,1.16.04.02.07.04.11.05,0,0,.01,0,.02,0,.21.09.44.15.69.14.65-.02.76-.23,1.01-.34.13-.06.29-.08.57-.04.06,0,.13.02.21.04,1.09.23.78.46,1.75.54.53.04,1.66-.27,2.56-.55.01-.12.02-.24.02-.36,0-.12,0-.23,0-.35C23.06,4.38,18.92.23,13.81.23m.77,5.42s.04.12-.04.17c0-.02,0-.05-.02-.09,0,0,0,0,0-.01,0,0,0,0,0-.01,0,0,0-.01,0-.02-.04-.09-.14-.19-.37-.14,0,0-.18.04-.18.23,0,0-.02-.03-.05-.07,0-.01-.01-.03-.01-.04-.03-.09-.02-.21.16-.28,0,0,.2-.06.28,0,0,0,0,0-.02-.02,0,0,0,0,.01,0-.01-.02-.16-.18-.58-.1.02-.02.04-.03.06-.03.11-.03.38-.07.56.04.22.13.38.64.67.79-.06-.02-.23-.09-.46-.41m1.61,1.93s-.02-.03-.03-.04c-.01-.02-.03-.04-.04-.06,0-.01-.01-.02-.02-.03s-.01-.02-.02-.03c0-.01-.02-.03-.02-.04,0-.02-.01-.03-.02-.05-.01-.03-.02-.06-.03-.08s-.02-.06-.03-.08c0-.01,0-.03-.01-.04,0-.01,0-.03-.01-.04-.03-.11-.05-.22-.07-.32,0-.03,0-.05-.01-.07,0-.01,0-.02,0-.04,0,0,0,0,0,0s0,0,0,0v-.11s-.02-.08-.03-.11c0-.08-.02-.16-.03-.24,0-.02,0-.04,0-.06,0-.04-.01-.07-.02-.11,0,0,0,0,0,0-.02-.1-.04-.2-.06-.29,0-.02,0-.03-.01-.04-.01-.04-.03-.09-.04-.13-.02-.06-.05-.12-.07-.17,0,0,0-.01,0-.02,0,0,0,0,0,0h0s0,0,0,0c0,0,0,0,0,0,0,0,0,0,0,0,0,0,0,0,0,0h0s0,0-.01,0c0,0,0,0-.01,0,0,0,0,0,0,0h0s0,0,0,0c0,0,0,0,0,0,0,0,0,.01,0,.02,0,.03,0,.06,0,.09,0,0,0,.01,0,.02,0,0,0,.01,0,.02,0,0,0,0,0,0t0,0s-.06-.09-.08-.14c0-.02-.02-.03-.03-.05,0,0,0,0,0,0,0,0,0,0,0,0,0,0,0,0,0,0,0,.03,0,.06.01.09h0s.01.07.02.11c0,.05.02.1.03.15.01.06.03.12.04.18-.02-.03-.03-.06-.05-.09-.06-.11-.11-.21-.17-.31,0-.01-.01-.02-.02-.04-.08-.14-.17-.27-.27-.4-.03-.04-.06-.08-.1-.12-.02-.02-.04-.04-.06-.07-.02-.03-.05-.05-.07-.07-.04-.04-.07-.07-.11-.11-.08-.07-.16-.13-.25-.17-.05-.02-.09-.04-.14-.06h0s0,0,0,0c0,0,0,0,0,0,0,0,0,0,0,0,0,0-.02-.01-.02-.02,0,0-.01-.02-.02-.02,0-.02-.01-.04,0-.06,0-.01,0-.02,0-.03,0,0,0,0,0-.01,0,0,0,0,.01-.01.01-.01.03-.02.05-.02.05-.01.11-.02.17-.03.04,0,.08,0,.12-.01,0,0,0,0,0,0,.16-.01.34-.01.52.02.06,0,.11.02.17.04.04,0,.07.02.11.04.09.03.18.07.27.13l.38.19s-.16-.03-.27,0c-.06.02-.12.05-.14.11,0,0,0,0,0,0,0,0,0,0,0,0-.02.04-.02.08,0,.14.05.16.17.35.26.48.1.14.16.3.21.46.02.05.03.11.05.16.03.11.05.22.09.32,0-.04,0-.08,0-.12,0-.1-.01-.2-.02-.31.01,0,0,0,.02,0,.08.2.17.4.24.6.03.09.07.18.1.28.02.07.05.13.06.2.03.14.11.23.22.31,0,0,.02.01.03.02.04.03.08.05.11.07.54.15.79.37.89.53-.03-.01-.04.02-.07.05-.04.03-.08.06-.13.08-.03.01-.07.01-.11,0,0,0-.02,0-.03,0,0,0-.02,0-.03,0-.04-.01-.08-.03-.11-.06-.03-.03-.06-.07-.09-.1,0,0-.01,0-.02-.01,0,0-.01,0-.02,0,0,0,0,.01,0,.02s0,0,0,.01c0,0,0,.01,0,.02,0,.01,0,.02,0,.03,0,0,0,0,0,.01,0,0,0,.02-.01.02,0,0-.01.01-.02.02,0,0,0,0,0,0,0,0,0,0,0,0,0,0,0,0,0,0,0,0-.01.01-.02.01-.01,0-.03.01-.04.02-.01,0-.02,0-.03,0-.01,0-.03,0-.04,0-.03,0-.06.02-.08.03h0s-.03.01-.04.02c0,0,0,0-.01,0,0,0-.01,0-.02.01,0,0,0,0,0,0,0,0,0,0,0,0,0,0,0,0-.01.01,0,0,0,0-.01,0h0c-.06.06-.11.15-.13.25-.02.12,0,.24.06.33,0,.01.02.03.03.04,0,0,.01.02.02.02,0,0,0,0,0,0h0s0,0,0,0c0,0,0,0,.01.01,0,0,0,0,0,0,0,0,0,0,0,0,0,0,0,0,0,0,0,0-.02,0-.03-.01-.02,0-.03-.02-.05-.03,0,0-.02,0-.02-.01-.01,0-.02-.01-.04-.02-.01,0-.03-.02-.04-.03,0,0-.01-.01-.02-.02,0,0,0,0,0,0,0,0,0,0,0,0,0-.01-.02-.02-.03-.03-.02-.02-.03-.05-.04-.07,0-.01-.01-.03-.02-.04-.02-.06-.03-.14-.03-.21,0-.01,0-.03,0-.04,0,0,0,0,0,0,0-.02,0-.03.01-.05,0,0,0-.01,0-.02,0,0,0-.01,0-.02,0,0,0,0,0,0,0,0,0,0,0,0,0,0,0-.01,0-.02,0,0,0-.01,0-.02,0-.01.01-.03.02-.04.01-.03.03-.05.05-.08,0,0,0,0,0-.01,0,0,0,0,0-.01,0,0,0,0,0,0,0,0,0,0,0,0,0,0,.01-.02.02-.03l.02-.02s.02-.02.04-.04h0c.05-.05.11-.09.18-.12,0,0,0,0,.01,0,0,0,0,0,.01,0,0,0,0,0,.01,0,0,0,0,0,.01,0,0,0,.02,0,.03,0,.02,0,.04,0,.07-.01,0,0,0,0,0,0h0s.01,0,.02,0c0,0,0,0,.01,0,0,0,0,0,.01,0,0,0,0,0,0,0,0,0,0,0,0,0,0,0,0,0-.01,0,0,0,0,0,0,0-.01-.01-.02-.02-.04-.03-.01,0-.03-.02-.04-.02-.04-.02-.08-.04-.13-.05,0,0-.02,0-.03,0-.03,0-.06-.01-.08-.02-.1-.01-.19,0-.28.01-.05.01-.11.03-.16.06-.03.02-.07.04-.1.06,0,0,0,0,0,0-.02.01-.02.02-.03.01h0s0,0,0,0c0,0,0,0,0,0,0-.02-.02-.03-.02-.04,0-.01-.02-.03-.03-.04" style="fill: #ed9521;"/>
  <path d="m17.03,6.4c-.08-.09-.14-.2-.2-.31-.07-.12-.14-.25-.18-.38-.04-.11-.02-.21.03-.31.08-.15.23-.17.4-.06.1.06.19.15.29.22-.03-.12-.1-.21-.19-.29-.09-.09-.2-.14-.31-.18.25,0,.49.07.72.17.27.11.51.27.77.4.3.15.61.18.94.14.24-.03.47-.1.67-.25.28-.2.44-.46.48-.8.03-.2,0-.4-.02-.6.1.07.16.17.2.27.16.34.15.69,0,1.03-.12.25-.3.45-.52.62-.24.19-.5.32-.79.4-.42.12-.85.16-1.29.11-.21-.02-.42-.06-.62-.14-.13-.05-.24-.13-.36-.21-.02-.01-.03-.02-.05-.03-.02.08.06.15.04.23h0Z" style="fill: #1b2754;"/>
  <path d="m18.32,7.74c-.07-.06-.15-.1-.24-.17-.05-.05-.3-.15-.47-.23.2.14.39.28.51.48.1.18.05.41.04.6,0-.03,0-.06,0-.09,0-.03,0-.06,0-.1,0-.06-.03-.12-.06-.18-.05-.1-.12-.19-.22-.24,0,0,0,0,0,0-.03-.01-.04.02-.07.05-.04.03-.08.06-.13.08-.03.01-.07.01-.11,0,0,0-.02,0-.03,0,0,0-.02,0-.03,0-.04-.01-.08-.03-.11-.06-.03-.03-.06-.07-.09-.1,0,0-.01,0-.02-.01,0,0-.01,0-.02,0,0,0,0,.01,0,.02s0,0,0,.01c0,0,0,.01,0,.02,0,.01,0,.02,0,.03,0,0,0,0,0,.01,0,0,0,.02-.01.02,0,0-.01.01-.02.02,0,0,0,0,0,0,0,0,0,0,0,0,0,0-.01.01-.02.01-.01,0-.03.01-.04.02-.01,0-.02,0-.03,0-.01,0-.03,0-.04,0-.03,0-.06.02-.08.03h0s-.03.01-.04.02c0,0,0,0-.01,0,0,0-.01,0-.02.01,0,0,0,0,0,0,0,0,0,0,0,0,0,0,0,0-.01,0h-.01c-.06.07-.11.16-.13.26-.02.12,0,.24.06.33,0,.01.02.03.03.04,0,0,.01.02.02.02,0,0,0,0,0,0h0s0,0,0,0c0,0,0,0,.01.01,0,0,0,0,0,0,0,0,0,0,0,0h0s0,0,0,0h0s0,0,0,.01c-.04-.01-.07-.03-.1-.05,0,0-.02,0-.02-.01,0,0-.01,0-.02-.01,0,0,0,0,0,0,0,0-.01,0-.02-.01,0,0-.01-.01-.02-.02,0,0,0,0,0,0,0,0,0,0-.01-.01,0,0,0,0,0,0,0,0,0,0,0,0,0-.01-.02-.02-.02-.03-.02-.02-.03-.05-.04-.07,0-.01-.01-.03-.02-.04-.02-.06-.03-.14-.03-.21,0-.01,0-.03,0-.04,0,0,0,0,0,0,0-.02,0-.03.01-.05,0,0,0-.01,0-.02,0,0,0-.01,0-.02,0,0,0,0,0,0,0,0,0,0,0,0,0,0,0-.01,0-.02,0,0,0-.01,0-.02,0-.01.01-.03.02-.04.01-.03.03-.05.05-.08,0,0,0,0,0-.01,0,0,0,0,0-.01,0,0,0,0,0,0,0,0,0,0,0,0,0,0,.01-.02.02-.03l.02-.02s.02-.02.04-.04h0c.05-.05.11-.09.18-.12,0,0,0,0,.01,0s0,0,.01,0c0,0,0,0,.01,0,0,0,0,0,.01,0,0,0,.02,0,.03,0,.02,0,.04,0,.07-.01,0,0,0,0,0,0h0s.01,0,.02,0c0,0,0,0,.01,0,0,0,0,0,.01,0,0,0,0,0,0,0,0,0,0,0,0,0,0,0,0,0-.01,0,0,0,0,0,0,0-.01-.01-.02-.02-.04-.03-.01,0-.03-.02-.04-.02-.04-.02-.08-.04-.13-.05,0,0-.02,0-.03,0-.03,0-.06-.01-.08-.02-.1-.01-.19,0-.28.01-.05.01-.11.03-.16.06-.03.02-.07.04-.1.06,0,0,0,0,0,0-.02.01-.02.02-.03.01h0s0,0,0,0c0,0,0,0,0,0,0-.01-.02-.03-.02-.04,0-.01-.02-.03-.03-.04,0-.01-.02-.03-.03-.04-.01-.02-.03-.04-.04-.06,0-.01-.01-.02-.02-.03,0-.01-.01-.02-.02-.03,0-.01-.01-.03-.02-.04,0-.02-.01-.03-.02-.05-.01-.03-.02-.06-.03-.08,0-.03-.02-.06-.03-.08,0-.01,0-.03-.01-.04s0-.03-.01-.04c-.03-.11-.05-.22-.07-.33,0-.03,0-.05-.01-.07,0-.01,0-.02,0-.04,0,0,0,0,0,0s0,0,0,0v-.11s-.02-.08-.03-.11c0-.08-.02-.16-.03-.24,0-.02,0-.04,0-.06,0-.04-.01-.07-.02-.11,0,0,0,0,0,0-.02-.1-.04-.2-.06-.29,0-.02,0-.03-.01-.04-.01-.04-.03-.09-.04-.13-.02-.06-.05-.12-.07-.17,0,0,0-.01,0-.02,0,0,0,0,0,0,0,0,0,0,0,0,0,0,0,0,0,0,0,0,0,0,0,0,0,0,0,0,0,0h0s0,0-.01,0c0,0,0,0-.01,0,0,0,0,0,0,0t0,0s0,0,0,0c0,0,0,.01,0,.02,0,.03,0,.06,0,.09,0,0,0,.01,0,.02,0,0,0,.01,0,.02,0,0,0,0,0,0t0,0s0,0,0,0c-.03-.05-.06-.1-.09-.15,0-.01-.01-.02-.02-.03h0s0,0,0,0c0,0,0,0,0,0,0,.03,0,.06.01.09h0s.01.07.02.11c0,.05.02.1.03.15.01.06.03.12.04.18,0,0,0,0,0,0h0s-.04-.07-.06-.11c-.06-.11-.11-.21-.17-.31,0-.01-.01-.02-.02-.04-.08-.13-.17-.26-.26-.39-.03-.04-.06-.08-.1-.12-.02-.02-.04-.04-.06-.07-.02-.03-.05-.05-.07-.07-.04-.04-.07-.07-.11-.11-.08-.07-.16-.13-.25-.17-.05-.02-.09-.04-.14-.06h0s0,0,0,0c0,0,0,0,0,0,0,0-.02-.01-.02-.02,0,0-.01-.02-.02-.02,0-.02-.01-.04,0-.06,0-.01,0-.02,0-.03,0,0,0,0,0-.01,0,0,0,0,.01-.01.01-.01.03-.02.05-.02.05-.01.11-.02.17-.03.04,0,.08,0,.12-.01,0,0,0,0,0,0,.16-.01.34-.01.52.02.06,0,.11.02.17.04.04,0,.07.02.11.04.09.03.18.07.27.13l.38.19s0,0,0,0c.07.02.14.05.21.09-.03-.03-1.24-1.13-2.44-.5h0s-.06.04-.12,0c-.04-.02-.11-.09-.19-.12-.07-.03-.19-.07-.29-.09-.27-.06-.55-.02-.8.11-.21.11-.46.27-.6.46.32-.58.95-.76,1.14-.8-.01-.05,0-.11.07-.17.01-.01.02-.02.03-.03.21-.17.45-.26.71-.31.09-.02.19-.03.28-.04.15-.01.3-.01.45-.03,0,0,0,0,0,0,.03,0,.06-.01.09-.02.22-.04.41-.11.57-.19h0s.03-.01.04-.02c0,0,.01-.01.02-.01.04-.02.08-.04.11-.07.38-.26.51-.59.55-.71-.23.25-.52.38-.84.44-.38.08-.77.08-1.16.06-.38-.02-.75-.04-1.12,0-.15.02-.3.06-.45.11-.36.13-.65.34-.82.7-.13.28-.12.56.03.83.07.12.17.21.25.31,0,0,0,0,0,0,0,0,0,0,0,0t0,0s-.01,0-.02,0c-.14-.07-.3-.09-.45-.1-.22-.02-.44.02-.65.07-.04,0-.03.04-.03.06.02.08.03.15.06.23.1.34.3.62.6.81.23.15.49.24.76.3.02,0,.05,0,.05.02,0,.02-.02.03-.04.05-.35.3-.69.61-1,.94-.16.18-.59.75-.63.8-.2.29-.36.59-.48.92-.1.29-.17.58-.19.88-.04.42.02.82.13,1.22,0,0,0,0,0,.01,0,0,0,0,0,0,0,.01,0,.02,0,.03.03-.04.04-.08.04-.13,0-.03,0-.07.01-.1,0-.01,0-.02,0-.03.02-.13.04-.26.07-.39.01-.04.02-.09.03-.13.03-.11.06-.21.1-.32.03-.07.05-.14.08-.21.03-.07.06-.14.09-.2.01-.03.03-.07.05-.1.03-.06.06-.13.09-.19.01-.03.03-.05.04-.08.01-.03.03-.05.04-.08.12-.21.25-.41.4-.59.14-.19.3-.36.47-.53.08-.08.17-.16.25-.24.12-.1.24-.21.36-.3.06-.05.12-.1.19-.14.03-.02.06-.05.1-.07.17-.12.34-.22.51-.33,0,0,0,0,0,0,0,0,0,0,0,0,0,0,.02-.02.04-.01,0,0,0,0,0,0,0,0,0,0,0,0,.01.02,0,.04,0,.05,0,.29.06.57.25.8.01.01.02.03.03.04.03.04.07.08.1.12.02.01.03.02.05.03.16.15.35.24.56.31.28.09.57.13.86.14.09,0,.17,0,.26,0h.05s.1-.03.1-.03c0,0-.13.21-.13.21,0,.01-.01.02-.02.03-.08.12-.2.21-.33.28-.23.13-.49.19-.75.19-.37,0-.71-.09-1.01-.32-.1-.08-.18-.18-.27-.27-.02.07-.05.14-.06.21-.02.25.07.46.2.66.04.06.08.12.13.17.19-.06.37-.09.55-.1.02,0,.04,0,.06,0,.11,0,.23.01.34.04,1.07.25,1.64.85,2.25,1.16.04.02.09.04.13.06,0,0,0,0,0,0,0-.03.02-.06.04-.09,0,0,0,0,0,0,.06-.14.14-.26.24-.35.19-.25.52-.33.85-.4.15-.03.34-.1.51-.16.08-.03.16-.06.24-.1.08-.04.15-.11.2-.18.01-.02.02-.04.03-.06.06-.1.08-.23.08-.34,0-.05.01-.09.02-.13.02-.11.03-.22.04-.33.02-.27-.07-.47-.14-.53m-3.8-2.01s0,0,0-.01c0,0,0,0,0-.01,0,0,0-.01,0-.02-.04-.09-.14-.19-.37-.14,0,0-.18.04-.18.23,0,0-.02-.03-.05-.07,0-.01-.01-.03-.01-.04-.03-.09-.02-.21.16-.28,0,0,.2-.06.28,0,0,0,0,0-.02-.02,0,0,0,0,.01,0-.01-.02-.16-.18-.58-.1.02-.02.04-.03.06-.03.11-.03.38-.07.56.04.22.13.38.64.67.79-.06-.02-.23-.09-.46-.41,0,0,.04.12-.04.17,0-.02,0-.05-.02-.09" style="fill: #1b2754;"/>
  <path d="m20.45,10.94c-.97-.08-.66-.31-1.75-.54-.08-.02-.15-.03-.21-.04l-.57.04c-.25.11-.36.31-1.01.34-.31.01-.57-.07-.82-.2-.61-.32-1.18-.91-2.25-1.16-1.12-.26-2.5.91-3.58,1.6-.38.24-.73.43-1.01.47-.46.07-.9-.09-1.36-.29-.62-.28-1.25-.64-1.95-.64-.61,0-1.03.13-1.33.31.02.19.05.38.09.57.29,1.55.97,2.96,1.93,4.14l2.35-2.35,1.84,1.65-.51-1.35,2.33-2.67.45-.52.31.46,2.06,3.09-.48-2.52.48-.44,3.6,5.23v-1.83l1.69,1.52c1.29-1.46,2.13-3.34,2.29-5.41-.9.29-2.02.6-2.56.55Z" style="fill: #1b2754;"/>
  <path d="m9.64,19.51c0,.07-.03.11-.09.13-.14.04-.29.06-.43.07-.11.01-.19.04-.24.09-.04.05-.06.15-.06.29-.04.58-.05,1.03-.05,1.32-.02.33-.02.66-.02.98,0,.37.01.75.03,1.13,0,.11,0,.17-.02.21-.01.03-.04.07-.13.07-.06,0-.12-.02-.18-.07-.08-.06-.14-.15-.18-.25-.11-.24-.17-.5-.17-.76v-1.29c.04-.49.05-.9.05-1.26v-.09c0-.12-.02-.19-.05-.22-.04-.03-.1-.05-.19-.05h-.14s-.45.06-.45.06c-.12.01-.23.02-.34.04-.12.01-.23.02-.35.04-.49.02-1.01.05-1.53.09-.02,0-.04,0-.06,0-.02,0-.04,0-.06,0-.17,0-.27.02-.32.07-.05.05-.08.14-.08.28-.06.73-.11,1.67-.14,2.79,0,.37-.07.43-.09.44-.06.03-.1.03-.14.01-.26-.12-.4-.4-.4-.85l.05-1.44v-.37s.03-.6.03-.6c0-.12-.08-.19-.21-.19h-.23c-.12.02-.25.03-.37.03-.22-.02-.35-.12-.41-.32v-.06c0-.09.04-.15.13-.18l.64-.1c.08,0,.17-.02.25-.04.1-.02.17-.04.21-.09.04-.04.07-.11.07-.2,0-.13,0-.21,0-.25v-.31c0-.3,0-.61-.02-.92-.02-.41-.07-.82-.16-1.22-.01-.05-.02-.09-.02-.12,0-.04,0-.08.02-.12.01-.03.03-.05.07-.07.09-.04.16-.03.24,0,.15.08.24.21.29.37.1.33.16.66.18,1,.01.34.02.64.02.92.01.15.02.31.02.49v.22s0,0,0,0c.02.09.08.14.18.16h.14c.1,0,.54-.02,1.35-.06,0,0,.01,0,.02,0,.13-.01.27-.03.41-.04,1.3-.11,1.33-.15,1.36-.18.04-.04.06-.1.06-.18v-.55c0-.57-.01-1.13-.06-1.69-.01-.08-.02-.17-.02-.28,0-.08,0-.17.02-.26.03-.13.07-.16.08-.16.07-.02.09-.02.1-.02.06,0,.12.02.18.07.1.08.16.17.19.28,0,.02,0,.03.01.04.06.31.11,1.11.15,2.36h0s0,.06,0,.19c.02.19.15.22.22.23.1,0,.2.02.29.04.13.04.23.12.29.25.01.02.02.05.02.07" style="fill: #ed9521;"/>
  <path d="m12.42,19.5c-.27-.18-.58-.27-.92-.27h-.1c-.37,0-.71.08-1.03.24-.28.13-.42.3-.42.5,0,.07.01.14.04.22v.09c.07.64.45,1.08,1.15,1.34.15.05.29.08.42.08.3,0,.57-.13.8-.38.25-.28.4-.6.46-.97v-.14c0-.29-.13-.53-.41-.71m-.28.64c-.06.31-.22.58-.48.79-.11.09-.23.13-.35.13-.07,0-.14-.02-.22-.05-.22-.08-.36-.22-.42-.44h0v-.05c0-.09.04-.18.11-.29.07-.11.16-.19.27-.23.2-.07.42-.11.64-.11.3,0,.45.07.45.21v.04Z" style="fill: #ed9521;"/>
  <path d="m15.62,16.77c-.12-.08-.25-.11-.4-.11h-.67c-.13-.01-.21-.08-.21-.19,0-.06.01-.14.04-.23,0-.03.01-.07.02-.11,0-.04.01-.09.01-.16,0-.08-.04-.16-.1-.22-.06-.06-.13-.11-.22-.13h-.04c-.12,0-.21.09-.28.28-.05.2-.09.39-.11.58-.02.16-.12.26-.3.27-.21.02-.43.06-.63.12-.11.03-.16.09-.16.18,0,.04.01.08.03.12.08.17.21.25.4.25.05,0,.1,0,.15-.02h0s.14-.02.14-.02h0c.13,0,.2.07.2.19v.04c-.13.88-.2,1.78-.2,2.68l.02.47c0,.36.02.72.05,1.07.04.47.1.93.18,1.38.08.52.22,1.03.43,1.51.07.19.18.36.32.5.07.06.14.09.21.09.03,0,.06,0,.08-.02.04-.03.06-.06.06-.1,0-.05,0-.1-.03-.14-.18-.43-.31-.87-.39-1.31-.2-1.09-.31-2.19-.31-3.28,0-.85.08-1.83.23-2.9.01-.12.05-.2.1-.24.04-.03.16-.07.73-.09l.39-.03c.1,0,.2-.02.29-.03.07-.02.1-.07.1-.15v-.02c-.02-.1-.07-.18-.16-.23" style="fill: #ed9521;"/>
  <path d="m17.62,21.03c-.02-.09-.04-.19-.06-.28-.1-.37-.17-.64-.2-.82-.04-.24-.17-.42-.41-.54-.08-.04-.17-.11-.27-.2-.16-.12-.32-.17-.5-.17-.13,0-.26.03-.39.09-.27.13-.48.33-.62.58-.27.47-.46.96-.54,1.49,0,.03,0,.07,0,.11,0,.07.01.14.04.21.09.19.22.32.41.38.07.03.15.04.23.04.12,0,.24-.03.36-.09.38-.22.69-.5.94-.84.03-.04.06-.08.1-.12.03-.04.07-.06.12-.06.05,0,.09.02.11.05.02.03.04.07.06.12.02.05.04.09.06.13.06.07.12.14.19.2.05.05.11.08.18.1h.06c.09,0,.15-.03.18-.12l.03-.16-.02-.11Zm-1.21-1.11c-.22.35-.49.67-.81.96l-.11.1.02-.14c.09-.55.34-.94.74-1.15h.02s.09-.02.09-.02l.04.02c.05.03.06.07.06.1,0,.04-.02.08-.05.13" style="fill: #ed9521;"/>
  <path d="m21.2,21.25h0c-.17-.34-.28-.8-.31-1.35-.01-.14-.05-.28-.1-.4-.05-.12-.13-.23-.24-.32-.1-.09-.21-.14-.34-.14-.12,0-.23.07-.34.21-.11.14-.2.27-.26.39-.06.1-.12.21-.18.34-.08.17-.24.46-.47.86,0,.02-.03.05-.08.05-.05,0-.09-.01-.13-.04-.02-.02-.06-.05-.06-.47,0-.2.01-.41.04-.62.01-.05.01-.09.01-.13,0-.11-.03-.21-.09-.31-.19-.22-.33-.19-.45.06h0s0,.02,0,.02c-.06.12-.1.44-.1.98,0,.24,0,.49.03.72.05.32.18.52.4.63.08.04.17.06.26.06.14,0,.28-.05.43-.14.16-.13.31-.36.43-.68.1-.24.24-.52.42-.83l.07-.12.03.13c.12.55.19.89.21,1.03.02.13.05.23.09.28.04.05.11.1.22.15.04.02.09.02.16.02.14,0,.25-.04.33-.12.03-.04.04-.08.04-.12,0-.06,0-.11-.02-.14" style="fill: #ed9521;"/>
  <path d="m24.69,21.03c-.02-.09-.04-.19-.06-.28-.1-.37-.17-.64-.2-.82-.04-.24-.17-.42-.41-.54-.08-.04-.17-.11-.27-.2-.16-.12-.32-.17-.5-.17-.13,0-.26.03-.39.09-.27.13-.48.33-.62.58-.27.47-.46.96-.54,1.49,0,.03,0,.07,0,.11,0,.07.01.14.04.21.09.19.22.32.4.38.07.03.15.04.23.04.12,0,.24-.03.36-.09.38-.22.69-.5.93-.84.03-.04.06-.08.1-.12.03-.04.07-.06.12-.06.05,0,.09.02.11.05.02.03.04.07.06.12.01.05.04.09.06.13.06.07.12.14.19.2.05.05.11.08.18.1h.05c.09,0,.15-.03.18-.12l.03-.16-.02-.11Zm-1.21-1.11c-.21.34-.49.67-.81.96l-.11.1.02-.14c.08-.55.33-.94.74-1.15h.02s.09-.02.09-.02l.04.02c.05.03.06.07.06.1,0,.04-.02.08-.05.13" style="fill: #ed9521;"/>
  <g>
    <path d="m15.89,22.92v.53h-.04c-.01-.1-.04-.18-.07-.24-.04-.06-.09-.11-.15-.14-.07-.04-.13-.05-.21-.05-.08,0-.15.02-.2.07-.05.05-.08.1-.08.16,0,.05.02.09.05.13.05.06.16.13.34.23.15.08.25.14.3.18.05.04.09.09.12.14s.04.11.04.17c0,.12-.05.21-.14.3s-.21.13-.35.13c-.05,0-.09,0-.13-.01-.02,0-.07-.02-.15-.04-.07-.02-.12-.04-.14-.04s-.03,0-.05.02c-.01.01-.02.04-.02.07h-.04v-.52h.04c.02.11.05.19.08.25.03.05.09.1.15.14.07.04.15.05.23.05.1,0,.17-.03.23-.07.06-.05.08-.11.08-.18,0-.04-.01-.08-.03-.11s-.05-.07-.1-.11c-.03-.02-.11-.07-.25-.14s-.23-.13-.29-.17c-.06-.04-.1-.09-.13-.14s-.04-.11-.04-.17c0-.11.04-.2.13-.28.09-.08.2-.12.33-.12.08,0,.17.02.26.06.04.02.07.03.09.03.02,0,.04,0,.05-.02s.02-.04.03-.07h.04Z" style="fill: #1b2754;"/>
    <path d="m17.29,23.97h-.61l-.11.24c-.03.06-.04.1-.04.13,0,.02.01.04.03.06.02.02.07.03.15.03v.04h-.49v-.04c.07-.01.11-.03.13-.04.04-.04.08-.11.13-.22l.55-1.26h.04l.54,1.27c.04.1.08.17.12.2.04.03.09.05.15.05v.04h-.62v-.04c.06,0,.1-.01.13-.03s.03-.04.03-.06c0-.03-.02-.09-.05-.16l-.09-.22Zm-.03-.08l-.27-.62-.27.62h.54Z" style="fill: #1b2754;"/>
    <path d="m18.5,23.04v.6h.28c.07,0,.11-.01.14-.04.03-.03.05-.08.06-.17h.04v.52h-.04c0-.06,0-.1-.02-.13s-.04-.05-.06-.06c-.03-.01-.07-.02-.12-.02h-.28v.48c0,.08,0,.13.01.15,0,.02.02.04.05.05.03.02.07.03.11.03h.06v.04h-.67v-.04h.06c.06,0,.11-.02.14-.05.02-.02.03-.08.03-.17v-.99c0-.08,0-.13-.02-.15,0-.02-.02-.03-.05-.05-.03-.02-.07-.03-.11-.03h-.06v-.04h1.16l.02.34h-.04c-.02-.07-.04-.12-.07-.16-.03-.03-.06-.06-.1-.07-.04-.01-.1-.02-.18-.02h-.34Z" style="fill: #1b2754;"/>
    <path d="m20.33,23.97h-.61l-.11.24c-.03.06-.04.1-.04.13,0,.02.01.04.03.06.02.02.07.03.15.03v.04h-.49v-.04c.07-.01.11-.03.13-.04.04-.04.08-.11.13-.22l.55-1.26h.04l.54,1.27c.04.1.08.17.12.2.04.03.09.05.15.05v.04h-.62v-.04c.06,0,.1-.01.13-.03s.03-.04.03-.06c0-.03-.02-.09-.05-.16l-.09-.22Zm-.03-.08l-.27-.62-.27.62h.54Z" style="fill: #1b2754;"/>
    <path d="m22.64,24.48h-.42l-.53-.71s-.07,0-.1,0c-.01,0-.02,0-.03,0-.01,0-.02,0-.04,0v.44c0,.1.01.16.03.18.03.03.07.05.13.05h.06v.04h-.67v-.04h.06c.07,0,.11-.02.14-.06.02-.02.02-.08.02-.17v-.99c0-.1-.01-.16-.03-.18-.03-.03-.07-.05-.13-.05h-.06v-.04h.57c.17,0,.29.01.37.04.08.02.15.07.2.13.05.06.08.14.08.23,0,.09-.03.18-.09.24-.06.07-.16.12-.29.15l.32.44c.07.1.14.17.19.2s.12.05.21.06v.04Zm-1.11-.79h.04s.02,0,.03,0c.15,0,.26-.03.34-.09.08-.06.11-.14.11-.24s-.03-.17-.09-.23c-.06-.06-.14-.09-.24-.09-.04,0-.1,0-.18.02v.64Z" style="fill: #1b2754;"/>
    <path d="m23.45,24.44v.04h-.67v-.04h.06c.06,0,.11-.02.14-.05.02-.02.03-.08.03-.17v-.99c0-.08,0-.13-.02-.15,0-.02-.02-.03-.05-.05-.03-.02-.07-.03-.11-.03h-.06v-.04h.67v.04h-.06c-.06,0-.11.02-.14.06-.02.02-.03.08-.03.17v.99c0,.08,0,.13.02.15,0,.02.02.04.05.05.03.02.07.03.1.03h.06Z" style="fill: #1b2754;"/>
    <path d="m24.68,22.92v.53h-.04c-.01-.1-.04-.18-.07-.24-.04-.06-.09-.11-.15-.14-.07-.04-.13-.05-.21-.05-.08,0-.15.02-.2.07-.05.05-.08.1-.08.16,0,.05.02.09.05.13.05.06.16.13.34.23.15.08.25.14.3.18.05.04.09.09.12.14s.04.11.04.17c0,.12-.05.21-.14.3s-.21.13-.35.13c-.05,0-.09,0-.13-.01-.02,0-.07-.02-.15-.04-.07-.02-.12-.04-.14-.04s-.03,0-.05.02c-.01.01-.02.04-.02.07h-.04v-.52h.04c.02.11.05.19.08.25.03.05.09.1.15.14.07.04.15.05.23.05.1,0,.17-.03.23-.07.06-.05.08-.11.08-.18,0-.04-.01-.08-.03-.11s-.05-.07-.1-.11c-.03-.02-.11-.07-.25-.14s-.23-.13-.29-.17c-.06-.04-.1-.09-.13-.14s-.04-.11-.04-.17c0-.11.04-.2.13-.28.09-.08.2-.12.33-.12.08,0,.17.02.26.06.04.02.07.03.09.03.02,0,.04,0,.05-.02s.02-.04.03-.07h.04Z" style="fill: #1b2754;"/>
  </g>
</svg>