<?xml version="1.0" encoding="UTF-8"?>
<svg id="Layer_1" data-name="Layer 1" xmlns="http://www.w3.org/2000/svg" viewBox="0 0 44.02 23.31">
  <path d="m12.06,15.41s0,0,0,0h0Z"/>
  <polyline points="8.88 18.57 8.88 18.57 8.88 18.57 8.88 18.57"/>
  <path d="m7.69,9.63s.04.04.05.05l.22.25.08-.32s.01-.08.01-.11c0-.06-.01-.12-.03-.16-.05-.15-.11-.3-.16-.46-.23-.62-.47-1.25-.71-1.87-.04-.09-.08-.17-.13-.25-.04-.07-.09-.14-.12-.21-.02-.04-.04-.07-.05-.1-.01-.03-.02-.05-.02-.06h0s0-.05,0-.07c0-.1-.02-.2-.06-.28-.03-.08-.08-.15-.12-.22-.03-.05-.06-.09-.09-.13-.03-.04-.05-.08-.06-.12,0,0,0,0,0-.01,0-.01,0-.03,0-.06,0-.03,0-.06,0-.1,0-.01,0-.04,0-.08,0-.02,0-.04-.01-.07,0-.02-.02-.05-.03-.08-.03-.05-.07-.1-.11-.15l.17-.02-.11-.21c-.05-.1-.1-.18-.14-.26,0-.02-.02-.03-.03-.05,0,0,0-.02-.01-.02,0,0,0-.02,0-.02,0-.03.01-.07.01-.1,0-.05-.01-.1-.03-.13-.02-.06-.05-.1-.08-.13-.02-.03-.04-.06-.05-.07-.01-.02-.03-.04-.04-.06-.01-.02-.02-.03-.03-.04,0,0,0,0,0,0,0-.1-.02-.18-.06-.26-.04-.07-.08-.14-.13-.19,0,0,0-.01-.01-.02,0-.05,0-.1-.02-.15-.02-.07-.05-.13-.08-.19-.03-.05-.07-.1-.1-.14,0,0,0-.01,0-.03,0-.02,0-.04-.02-.07,0,0,0,0,0-.02,0,0,0-.02,0-.04,0-.02,0-.05-.01-.08,0-.02-.01-.04-.02-.06-.01-.02-.03-.04-.05-.06-.04-.04-.07-.08-.11-.13-.05-.07-.08-.16-.12-.25-.04-.09-.08-.19-.12-.29-.06-.12-.12-.24-.18-.36-.15.06-.29.14-.44.2-.29.12-.55.27-.81.43.09.15.17.29.21.46.06.19.15.36.25.52.11.16.23.3.35.44.01.02.03.03.04.05l-.17.05.1.18s.02.04.03.07c.01.03.03.06.06.09.1.12.19.24.27.36.08.12.15.25.2.39.1.28.25.53.38.78.05.09.11.18.16.27.05.08.11.17.15.25.01.02.02.05.04.09.01.04.02.08.03.12,0,0,0,0,0,.02,0,.02,0,.05,0,.08,0,.02,0,.04.01.06,0,.02.02.05.04.08.05.07.1.14.16.2.08.09.15.18.2.26.03.04.05.08.06.13.02.04.02.09.03.14v.04s.02.04.02.04c.43.73.86,1.46,1.3,2.19.02.04.04.06.06.08"/>
  <path d="m5.83,9.5c-.05-.1-.11-.19-.18-.28h0c-.05-.07-.09-.12-.12-.18-.01-.03-.02-.05-.03-.08,0-.03,0-.05,0-.08,0-.02,0-.04,0-.06,0-.06.01-.12.01-.18,0-.15-.03-.29-.1-.42-.07-.13-.18-.24-.31-.33-.05-.04-.09-.07-.12-.12-.03-.05-.05-.11-.06-.18,0-.06-.03-.11-.06-.16-.01-.03-.03-.05-.05-.08-.02-.02-.04-.05-.08-.07-.09-.06-.15-.12-.2-.2-.05-.08-.09-.18-.12-.29-.01-.05-.03-.11-.06-.17-.01-.03-.03-.06-.05-.09-.02-.03-.05-.06-.08-.09-.05-.04-.09-.09-.12-.15-.03-.06-.06-.12-.1-.2-.13-.29-.26-.56-.37-.84-.02-.06-.04-.13-.06-.2-.02-.07-.03-.15-.05-.23,0,0,0-.02,0-.04,0-.03,0-.06-.01-.1,0-.02,0-.04-.02-.07,0-.02-.02-.05-.04-.08-.09-.12-.18-.23-.26-.34-.08-.11-.15-.22-.2-.34-.05-.11-.11-.21-.17-.31-.06-.09-.11-.18-.16-.26-.03-.07-.06-.13-.1-.2-.19.19-.37.38-.54.58.07.18.16.36.27.53,0,.03,0,.06,0,.08,0,.13.04.25.08.35.05.1.1.19.15.28.03.05.06.09.08.13,0,.02.02.03.02.04,0,0,0,0,0,.01h0s0,0,0,0h0s0,.06,0,.08c0,.14.03.26.07.38.05.12.11.22.18.32.08.11.15.24.22.36,0,0,.01.02.02.04,0,0,0,.02,0,.02-.02.07-.04.15-.04.22,0,.07.01.13.03.19.02.06.04.12.07.18.06.13.11.26.16.4.04.13.1.25.17.37.07.11.16.22.27.31,0,0,0,.01.01.03,0,.02.01.04.02.07,0,.02.01.04.02.07,0,.04.02.09.04.15,0,.03.02.06.04.09.02.03.04.06.06.09.07.07.12.14.15.21.03.07.05.13.05.2s-.02.15-.06.24c-.02.04-.02.08-.02.11,0,.03,0,.05,0,.08,0,.04.02.07.03.1.01.03.03.06.05.09.16.2.32.4.5.59.14.15.27.3.38.46.35-.08.69-.19,1.04-.26,0,0,.02,0,.03,0-.07-.16-.13-.32-.2-.5-.04-.09-.08-.19-.13-.28"/>
  <path d="m15.73,18.22c-.09-.19-1.54-2.48-1.57-2.69-.02-.1-.08-.17-.17-.21-.02-.07-.03-.14-.04-.21-.05-.33-.28-.56-.39-.86-.02-.05-.09-.08-.14-.12-.07-.05-.14-.1-.21-.15-.18-.15-.18-.21.02-.33-.07-.17-.14-.34-.21-.51.13-.02.1-.08.04-.14-.1-.13-.2-.25-.3-.39-.02-.03-.04-.09-.02-.12.09-.19.07-.24-.11-.35-.05-.03-.12-.06-.14-.11-.1-.28-.25-.51-.47-.71-.04-.04-.05-.13-.05-.2,0-.06.03-.14,0-.19-.26-.57-.53-1.13-.79-1.69-.04-.08-.08-.17-.12-.25-.06-.17-.12-.34-.2-.55.06-.14.05-.2-.12-.35-.05-.05-.11-.1-.15-.16-.06-.12-.11-.26-.17-.38-.02-.04-.05-.1-.03-.13.08-.15,0-.25-.1-.35-.11-.12-.22-.24-.32-.37-.19-.26-.38-.53-.57-.8-.08-.12-.17-.24-.09-.41.03,0,.04.02.06.02.05.01.1.02.15.04,0-.06.04-.13.02-.17-.04-.1-.1-.2-.15-.3-.06-.11-.12-.21-.18-.32-.1-.18-.19-.36-.29-.54-.04-.08-.09-.15-.12-.23-.04-.11-.05-.22-.09-.33-.07-.17-.17-.32-.22-.49-.14-.52-.41-.96-.73-1.38-.09-.11-.16-.26-.19-.4-.02-.11-.05-.22-.08-.33-.05,0-.11,0-.16,0-.04-.09-.06-.15-.07-.18-.17-.12-.32,0-.42,0-.17,0-.39.13-.57.15.15.23.52,1.3.57,1.56,0,.04.02.08.04.12.22.43.33.88.3,1.37,0,.16.07.29.21.39.13.09.25.2.36.31.04.04.05.12.07.18h-.04c-.06-.04-.12-.08-.18-.13-.02,0-.03.01-.05.02,0,.08,0,.17.03.24.06.13.15.26.23.38.02.04.07.08.06.12-.04.24.08.41.22.57.15.18.2.38.16.61-.04.2,0,.41.12.58.24.35.39.75.51,1.15.11.35.26.68.57.91.07.05.12.13.16.2.06.11.05.13-.07.2.06.07.12.13.16.2.04.06.06.13.08.2.04.12.03.28.11.37.25.32.36.7.53,1.05.21.42.42.83.64,1.25.17.31.37.6.52.93.17.39.35.76.59,1.11.11.15.17.33.27.48.11.18.22.36.35.52.13.17.29.32.43.48.09.11.17.23.14.41-.06-.07-.11-.13-.16-.19-.01,0-.02,0-.03.01,0,.08,0,.16.03.23.1.23.18.48.32.68.6.8,1.21,1.6,1.82,2.39,0-.13-.03-.26-.08-.4-.03-.1-.06-.18-.07-.26,0-.08,0-.15.02-.21-.02-.04,0-.07.06-.09.06.07.11.14.17.22,0-.09-.01-.18-.04-.27.2-.06.47-.11.43-.21-.33-.69.2.24-.12-.45"/>
  <path d="m12.61,20.14c-.03-.17-.06-.33-.1-.52-.07.05-.11.09-.15.12h-.06c-.03-.28-.07-.55-.09-.83,0-.03,0-.06,0-.1,0-.12-.03-.21-.12-.29-.05-.04-.1-.08-.14-.13-.17-.17-.31-.36-.34-.63-.02-.17-.08-.33-.24-.43-.04-.03-.06-.11-.06-.16,0-.12-.02-.23-.05-.33-.04-.11-.11-.22-.19-.32,0,0,0-.01-.01-.02-.03-.05-.05-.11-.08-.16-.05-.1-.09-.22-.15-.33,0-.04-.03-.08-.06-.11-.09-.16-.18-.33-.29-.49-.02-.05-.05-.09-.09-.13-.08-.1-.16-.2-.24-.29-.05-.06-.11-.12-.16-.19,0,0,0-.01-.01-.02l.02-.19s0-.05,0-.08c.01-.21-.01-.41-.08-.62-.07-.21-.18-.42-.33-.65-.7-1.02-1.4-2.03-2.11-3.04-.22-.32-.48-.6-.7-.89l-.31-.39-.07.48s0,.03,0,.05c0,.06,0,.12.02.16.01.05.03.08.04.11.14.33.28.67.42,1,.07.07.16.12.27.13.17.01.33,0,.5.03.5.08.71.48.5.9-.14.29-.18.59-.11.86.05.2.15.39.31.56.02.02.03.04.05.05.23.26.41.55.61.84,0,.09.05.17.09.26.1.23.14.47.12.71-.01.13-.04.26-.09.39-.02.04-.03.08-.05.12-.06.16-.11.31-.15.47-.05.2-.09.39-.12.6,0,.02,0,.04,0,.06.1.08.19.16.28.25.04.04.05.12.07.18-.01,0-.03,0-.04.01-.06-.05-.12-.1-.18-.14-.02,0-.03.01-.05.02,0,.08,0,.17.03.24.06.13.15.26.23.38.02.04.07.08.06.12-.04.24.08.41.22.57.15.18.2.38.16.6-.04.2,0,.41.12.58.24.35.39.75.51,1.15.11.35.26.68.57.91.07.05.12.13.16.2.06.11.05.13-.07.2.06.07.12.13.16.2.03.05.05.11.07.17,0,0,0,0,0,0,.07.04.15.07.23.09.1.02.2.03.3.02,0,0,.02,0,.02,0,.28-.02.55-.01.82-.08,0,0,.02,0,.02,0,.12-.03.24-.08.35-.15.06-.04.11-.08.17-.12.15-.13.28-.27.42-.41-.2-.5-.39-1-.74-1.42-.04-.04-.04-.11-.05-.17"/>
  <path d="m2.94,10.26c0-.12-.01-.23-.09-.33-.11-.14-.15-.3-.11-.48.01-.07,0-.11-.06-.15-.05-.03-.07-.07-.06-.13.02-.16-.02-.31-.1-.45-.04-.07-.07-.15-.11-.23.02-.02.03-.04.04-.06,0-.01.02-.02.03-.03.06-.05.07-.11.03-.18-.1-.19-.2-.39-.28-.59-.04-.09-.05-.18-.08-.27,0-.03-.02-.07-.04-.08-.03-.03-.06-.06-.08-.09-.04-.07-.05-.16-.06-.25,0-.08-.02-.16-.02-.24,0-.12-.03-.22-.1-.3-.06-.07-.08-.15-.08-.24,0-.05-.02-.11-.06-.14-.23-.22-.35-.5-.41-.8-.03-.14-.06-.28-.09-.41,0,0,0,.01-.01.02-.05.08-.1.16-.14.24-.04.07-.08.15-.12.22-.16.3-.29.62-.42.94-.01.03-.02.06-.03.09-.04.11-.07.22-.1.33-.08.33-.12.66-.11,1,.01.34.12.65.3.93.17.25.38.49.58.72.31.36.58.76.92,1.1.12.12.25.22.39.29,0,0,0,0,0,0h0s.1.05.15.07h0c.07.03.14.05.21.06.03,0,.06.01.1.02.03,0,.05,0,.08,0,0-.05,0-.1-.03-.15-.04-.14-.06-.29-.06-.44"/>
  <path d="m16.94,16.06s0-.03-.01-.05c0,0,0-.01,0-.02,0,0,0,0,0,0,0-.04,0-.09,0-.13.01-.35,0-.71,0-1.06-.2-.37-.35-.77-.47-1.18-.08-.27-.18-.51-.33-.71-.1-.13-.22-.24-.37-.33-.21-.13-.29-.35-.29-.6,0-.08-.03-.17-.07-.24-.39-.56-.7-1.17-.73-1.85-.02-.51-.15-.91-.54-1.23-.33-.28-.45-.66-.5-1.08-.01-.08-.02-.18-.06-.25-.02-.03-.05-.07-.07-.11-.02-.03-.04-.06-.06-.1-.04-.24-.08-.48-.14-.71-.05-.2-.12-.37-.28-.51-.09-.09-.2-.2-.23-.31-.08-.36-.22-.68-.44-.97-.09-.12-.17-.26-.25-.39,0-.01,0-.03-.02-.04.04,0,.07,0,.12,0-.14-.23-.23-.46-.45-.61-.06-.04-.1-.11-.14-.18-.18-.3-.34-.6-.53-.9-.09.03-.17.07-.26.13-.05.04-.09.08-.14.13,0,.01-.02.02-.03.03,0,0,0,0,0,0-.08.08-.16.13-.24.17-.02,0-.05.02-.07.02-.07.02-.15.02-.22.01-.09-.01-.18-.04-.26-.08-.02-.01-.04-.02-.06-.03-.01,0-.03-.02-.04-.02.05.13.11.26.2.37.13.16.2.35.19.56-.03.38.09.69.31.99.27.38.46.82.54,1.28.06.34.21.62.46.85.06.06.13.12.18.19.04.05.06.1.08.16-.05.02-.11.04-.16.05-.03,0-.06,0-.08.01,0,.01-.01.03-.02.04.07.05.13.1.2.14.36.22.66.48.74.93.02.11.1.22.18.3.03.03.07.06.1.1,0,.02.02.04.03.05.09.1.18.19.23.32-.2,0-.4,0-.59.07,0,.3.17.49.36.67.28.28.57.55.58.99,0,.08.05.17.08.25.07.24.13.47.21.71.02.07.06.14.11.19.16.17.34.33.51.49-.06.13-.12.25-.2.41.16.15.34.28.48.45.15.19.3.39.37.61.23.75.69,1.3,1.3,1.74.07.05.13.1.2.15,0,0-.01.02-.02.03-.12-.06-.24-.11-.36-.17,0,.01-.02.02-.02.03.03.04.06.09.1.12.3.28.54.59.72.94.06-.11.1-.23.12-.38.01-.09.02-.17.03-.26.04.04.08.09.12.13-.03-.12-.06-.24-.09-.35"/>
  <path d="m21.55,7.59c-.09-.05-.16,0-.23.05,0,0,0,0,0,0-.46.36-.96.65-1.49.88-.03.01-.05.02-.08.04-.15.06-.31.12-.47.18,0,0,0,0,0,0-.28.09-.55.19-.85.14-.04,0-.08,0-.12,0-.06,0-.12,0-.17.01-.04,0-.07,0-.12,0,.01-.02.02-.04.03-.06,0-.02.01-.03.02-.04,0-.02.02-.03.03-.05,0-.02.02-.03.02-.05,0,0,0-.01,0-.02.05-.12.08-.24.04-.37,0-.03,0-.07.02-.1.03-.12.09-.24.1-.36.02-.28-.06-.37-.35-.36-.16,0-.3.06-.42.16-.03.02-.05.05-.08.07,0,0,0,0-.01.01-.15.15-.31.28-.47.42-.06.05-.12.05-.17,0-.04-.04-.08-.07-.12-.11-.08-.08-.16-.16-.2-.25-.02-.06-.05-.11-.07-.17-.1-.27-.19-.54-.28-.82-.01-.04-.02-.08-.03-.12h0c0-.06.02-.12.05-.19.06-.12.09-.24.08-.36,0-.12-.02-.25-.11-.36.05,0,.14-.04.13-.06,0,0,0,0,0-.01h.03c.07,0,.13,0,.2,0,.23,0,.41-.09.54-.27.03-.04.07-.07.11-.09.16-.1.3-.23.35-.41.04-.17.09-.35.13-.52.02-.07-.02-.11-.09-.11-.09,0-.18,0-.26.03-.07.02-.12.07-.19.09-.31.08-.61.18-.92.24-.1.02-.19.03-.29.05-.1.01-.2.02-.29.03-.06,0-.12.01-.18.02-.03,0-.05,0-.09,0,.05-.06.1-.12.14-.18,0-.01.02-.03.03-.04.07-.1.1-.22.09-.35.01-.25-.12-.52-.39-.61-.09-.03-.19-.07-.28-.11-.01,0-.03,0-.04-.01-.11-.03-.17,0-.22.11-.03.05-.06.12-.11.15-.03.02-.07.04-.09.07-.02-.03-.05-.06-.08-.08-.02-.02-.04-.04-.06-.07-.05-.06-.09-.13-.12-.2-.02-.05-.25-.23-.29-.3,0,0,0,0,0-.01,0-.01-.01-.02-.02-.03,0,0,0,0,0,0h0c-.14-.05-.29-.11-.32-.16-.02-.04-.3-.06-.53-.09-.06-.02-.13-.03-.2-.04-.03,0-.05,0-.08-.01,0,0,0,0,0,0,0,0,0,0,0,0-.07-.01-.14-.02-.21-.04,0,.02,0,.04.01.06.02.08.05.17.09.25.09.19.15.42.19.65.02.09.04.19.07.28.04.09.1.19.18.26.01.01.03.03.04.04.07.07.12.14.16.22.04.09.07.19.07.3,0,.02,0,.03,0,.05,0,.01,0,.02,0,.03,0,.04,0,.07.01.11.01.05.04.11.09.15.04.04.09.07.14.09.01,0,.01,0,.02,0h0s0,.01,0,.04c0,.15.03.29.09.41.05.13.13.24.22.35.01.01.03.04.05.07.02.03.05.07.08.11.02.02.03.04.04.05,0,.01,0,.01,0,.02s0,0,0,.02c0,0-.01.03-.03.05-.03.03-.05.06-.07.1-.02.04-.03.08-.03.12,0,.05.01.09.03.12.02.04.04.07.06.1.08.11.16.22.24.33.05.4.17.77.49,1.03.39.32.52.73.54,1.23.02.69.34,1.29.73,1.85.05.06.07.16.07.24,0,.07,0,.14.02.21.03.16.12.3.26.39.06.04.12.08.17.12.08.06.14.14.2.21.01,0,.02,0,.03,0,0,0,0,0,.01,0,.13-.02.24-.03.37.02.25.09.51.11.77.08.03,0,.06,0,.08-.01.1-.01.22-.05.3-.11.2-.16.35-.36.4-.6.03-.03.06-.06.08-.09.05-.05.1-.11.15-.16.01-.01.02-.02.03-.04.03-.04.07-.08.1-.12.11-.13.21-.26.31-.4.05-.07.1-.14.15-.21.1-.15.2-.31.28-.47,0,0,0-.01.01-.02,0-.01.02-.03.02-.04.02-.05.05-.09.07-.14.36-.35.66-.75.98-1.14.29-.35.53-.72.69-1.14.03-.07.09-.15,0-.21m-7.47-3.56s-.01-.02-.02-.03c0-.02,0-.05-.01-.07l.03.1Z" style="fill: #594622;"/>
  <path d="m22.52,15.89h1.17v-.07h-.09c-.12,0-.23-.04-.31-.13-.09-.08-.13-.18-.14-.3v-3.76c0-.12.05-.22.14-.3.09-.08.19-.13.31-.13h.09v-.07h-1.73v.07h.09c.12,0,.23.04.31.13.09.08.13.18.14.3v3.76c0,.12-.05.22-.14.3-.09.08-.19.13-.31.13h-.09v.07h.56Z" style="fill: #594622;"/>
  <path d="m24.78,15.89h1.02v-.07h-.12c-.1,0-.19-.03-.27-.1-.08-.07-.12-.15-.12-.25h0v-2.63s3.5,3.14,3.5,3.14h.06c-.02-.16-.04-.3-.05-.43,0-.13-.01-.27-.01-.42v-2.9c0-.1.04-.18.12-.25.08-.07.17-.1.27-.1h.12v-.07h-1.54v.07h.12c.11,0,.2.03.27.1.07.07.11.15.12.25v2.6l-3.51-3.13h-.06c.04.32.06.6.06.83v2.93c0,.1-.04.18-.11.25-.07.07-.17.1-.27.1h-.12v.07h.53Z" style="fill: #594622;"/>
  <path d="m31.23,15.45c0,.1-.05.19-.12.26-.08.07-.17.11-.28.11h-.08v.07h1.61v-.07h-.08c-.11,0-.2-.04-.28-.11-.08-.07-.12-.16-.12-.26v-3.42h1.11c.14,0,.25.05.33.13.08.08.12.19.12.32v.09h.08v-.54h0v-.33s-.11.03-.19.05c-.09.02-.18.03-.29.04-.11.01-.2.02-.29.02h-2.38c-.09,0-.19,0-.29-.02-.11-.01-.2-.03-.29-.04-.09-.02-.15-.03-.19-.05v.32h0v.55h.08v-.09c0-.13.04-.24.12-.32.08-.08.19-.12.33-.13h1.11v3.42Z" style="fill: #594622;"/>
  <path d="m38.39,14.72c.12-.26.18-.55.18-.87s-.06-.61-.18-.87c-.12-.26-.29-.48-.51-.67-.22-.19-.47-.33-.76-.43-.29-.1-.61-.15-.96-.15s-.66.05-.95.15c-.29.1-.54.25-.76.43-.22.19-.39.41-.51.67-.12.26-.18.55-.18.87s.06.61.18.87c.12.26.29.48.51.67.22.19.47.33.76.43.29.1.61.15.95.15s.66-.05.96-.15c.29-.1.55-.25.76-.43.22-.19.39-.41.51-.67m-.75.13c-.15.29-.35.51-.61.67-.26.16-.55.24-.88.24s-.61-.08-.86-.24c-.26-.16-.46-.38-.61-.67-.15-.29-.22-.62-.22-1s.07-.72.22-1c.15-.28.35-.5.61-.67.26-.16.54-.24.86-.24s.62.08.88.24c.26.16.46.38.61.67.15.28.22.62.22,1s-.07.71-.22,1" style="fill: #594622;"/>
  <path d="m21.74,22.1c-.1-.06-.19-.15-.26-.27l-2.14-4.8h-.07s-.02.11-.05.2c-.03.09-.06.18-.1.27-.04.09-.07.17-.11.24-.03.07-.05.1-.06.11l-1.76,3.98c-.07.12-.16.22-.26.27-.12.07-.24.11-.36.11h-.07v.07h1.55v-.07h-.07c-.06,0-.12-.02-.18-.06-.06-.04-.1-.09-.13-.16-.02-.05-.02-.11,0-.19l.49-1.19h1.95l.45,1.13h0c.06.15.05.26-.02.34-.08.08-.16.12-.27.12h-.07v.07h1.94v-.07h-.06c-.12,0-.24-.04-.36-.11m-3.46-1.74l.89-2.17.86,2.17h-1.75Z"/>
  <path d="m25.1,17.85c-.11.01-.22.02-.32.02h-2.37v.07h.11c.12,0,.22.04.3.11.08.07.12.17.13.28v3.47c0,.11-.05.2-.13.28-.08.08-.18.12-.3.12h-.11v.07h1.76v-.07h-.1c-.13,0-.23-.04-.31-.12-.08-.08-.12-.17-.13-.28v-1.6h1.16c.14,0,.24.04.3.11.07.08.1.17.1.28v.08h.08v-.48h0v-.24h0v-.49h-.08v.08c0,.11-.03.2-.1.28s-.17.12-.3.12h-1.16v-1.84h1.43c.15,0,.27.05.36.14.09.09.13.21.13.35v.1h.08v-.95s-.12.03-.21.05c-.1.02-.2.04-.31.05"/>
  <path d="m30.44,21.96c-.08-.08-.18-.18-.28-.29-.1-.12-.19-.24-.28-.36-.09-.12-.17-.22-.23-.31-.06-.09-.1-.13-.11-.14-.08-.11-.17-.23-.3-.35-.12-.12-.23-.2-.34-.23.23-.03.43-.1.61-.22.17-.12.3-.26.39-.44.09-.17.14-.36.14-.55,0-.2-.04-.38-.12-.52-.08-.15-.19-.27-.33-.37-.14-.1-.31-.17-.5-.22-.19-.05-.4-.07-.63-.07h-2.05v.07h.11c.12,0,.21.04.3.11.07.06.11.13.12.22v3.6c-.02.08-.06.16-.12.22-.08.08-.18.12-.3.12h-.11v.07h1.74v-.07h-.1c-.12,0-.22-.04-.3-.11-.08-.08-.13-.17-.13-.28v-3.68s.11,0,.22,0c.14,0,.31,0,.5,0,.13,0,.24.03.35.06.11.04.21.09.3.16.09.07.16.16.21.27.05.11.08.24.09.39,0,.08,0,.15,0,.22-.01.07-.02.12-.04.17-.06.21-.15.36-.26.45-.11.1-.23.15-.36.18-.13.02-.26.04-.39.04-.1,0-.22,0-.35,0v.07c.12,0,.24.05.35.14.11.09.22.2.31.34.02.03.05.09.11.18.06.09.13.19.2.3.07.11.14.21.21.31.07.1.11.16.14.2.09.12.2.23.32.34.12.1.27.18.45.24.18.06.41.09.69.09h.36v-.07c-.13,0-.24-.02-.33-.06-.1-.04-.19-.1-.27-.18"/>
  <path d="m32.65,18.06c.09-.08.21-.11.34-.11h.09v-.07s-.58,0-.58,0h-1.27v.07h.1c.14,0,.25.04.34.11.09.08.14.17.15.28v3.46c0,.11-.05.2-.15.28-.09.08-.21.12-.34.12h-.11v.07h1.86v-.07h-.1c-.14,0-.25-.04-.34-.12-.09-.08-.14-.17-.15-.28v-3.46c0-.11.05-.21.15-.28"/>
  <path d="m37.93,21.4c-.17.25-.4.43-.68.55-.28.12-.61.18-.98.18-.38,0-.7-.1-.98-.26-.27-.17-.48-.4-.63-.71-.15-.31-.22-.67-.22-1.09s.07-.78.22-1.09c.15-.31.36-.54.64-.71.28-.17.61-.25,1-.25.43,0,.81.1,1.13.29.32.19.53.51.65.96h.07l-.11-1.08c-.22-.13-.49-.23-.8-.3-.31-.07-.63-.11-.95-.11-.53,0-.99.09-1.38.28-.39.19-.68.45-.89.79-.21.34-.31.75-.31,1.23s.1.89.31,1.23c.21.34.5.6.89.79.39.19.84.28,1.38.29.31,0,.59-.04.85-.11.26-.08.49-.18.69-.32.2-.14.36-.3.48-.48l.02-1.04h-.06c-.04.4-.15.73-.32.98"/>
  <path d="m43.67,22.2c-.1,0-.21-.03-.32-.1-.11-.07-.2-.18-.28-.35h0l-1.91-4.02h-.06s-.02.11-.06.2c-.03.08-.07.17-.11.26s-.07.17-.1.23c-.03.07-.05.1-.05.11l-1.57,3.26c-.08.14-.16.24-.27.3-.11.07-.22.1-.32.1h-.06v.07h1.47v-.07h-.06c-.09,0-.17-.04-.24-.12-.06-.07-.07-.16-.04-.27l.4-.92h1.8l.4.93c.03.11.01.2-.04.26-.07.08-.15.12-.23.12h-.06v.07h1.78v-.07h-.06Zm-3.47-1.55l.81-1.84.79,1.84h-1.59Z"/>
</svg>