<?xml version="1.0" encoding="UTF-8"?>
<svg id="Layer_1" data-name="Layer 1" xmlns="http://www.w3.org/2000/svg" viewBox="0 0 40.76 28">
  <path d="m20.36,24.15c-.57-.01-1.13-.02-1.69-.04-.5-.02-.99-.06-1.49-.11-.55-.05-1.1-.1-1.65-.17-.49-.06-.98-.15-1.46-.23-.46-.08-.92-.17-1.38-.28-.52-.12-1.03-.26-1.54-.39-.65-.17-1.28-.38-1.91-.61-1.54-.57-3.01-1.28-4.35-2.25-.73-.53-1.4-1.13-1.97-1.84-.49-.61-.88-1.29-1.11-2.04-.19-.62-.26-1.25-.19-1.9.1-1,.49-1.88,1.07-2.69.54-.75,1.2-1.38,1.92-1.94.83-.64,1.74-1.17,2.68-1.63.72-.35,1.45-.66,2.21-.92.59-.2,1.19-.4,1.79-.57.64-.18,1.29-.32,1.94-.46.44-.1.89-.18,1.33-.25.54-.08,1.08-.14,1.62-.22.77-.11,1.55-.14,2.33-.19.91-.06,1.83-.05,2.74-.04.79,0,1.59.08,2.38.13.35.02.71.07,1.06.12.52.07,1.03.13,1.55.21.41.07.83.15,1.24.23.56.11,1.11.23,1.65.39.54.16,1.08.3,1.6.47,1.78.59,3.48,1.35,5.02,2.44.78.55,1.49,1.18,2.09,1.93.48.6.86,1.26,1.09,1.99.11.36.19.72.21,1.1.02.32.01.64-.02.95-.05.45-.18.88-.35,1.3-.37.9-.94,1.65-1.63,2.33-.77.76-1.65,1.38-2.58,1.92-.89.51-1.83.94-2.79,1.31-.54.2-1.08.4-1.64.56-.62.17-1.23.35-1.86.5-.56.13-1.14.23-1.71.34-.45.08-.91.16-1.37.22-.62.08-1.24.14-1.86.19-.42.04-.84.07-1.26.09-.57.02-1.14.03-1.71.04Zm-.09-1.47c.72-.02,1.34-.03,1.97-.06.56-.03,1.12-.08,1.68-.12.21-.02.41-.03.62-.06.5-.07,1-.13,1.49-.21.41-.06.82-.13,1.23-.21.54-.11,1.08-.24,1.62-.37.41-.1.82-.21,1.23-.34.74-.23,1.48-.5,2.19-.81.81-.36,1.6-.76,2.34-1.25.73-.49,1.41-1.04,1.97-1.73.51-.63.88-1.32,1.01-2.14.09-.55.06-1.09-.09-1.63-.13-.46-.34-.89-.61-1.29-.45-.67-1.03-1.23-1.67-1.72-1.1-.84-2.33-1.46-3.61-1.96-.58-.23-1.17-.44-1.78-.61-.52-.14-1.04-.28-1.56-.41-.38-.09-.76-.18-1.15-.25-.38-.07-.75-.13-1.13-.19-.43-.07-.86-.13-1.29-.18-.37-.05-.74-.07-1.12-.11-.17-.02-.35-.04-.52-.05-.41-.02-.83-.04-1.24-.06-.71-.03-1.41-.05-2.12-.03-.63.02-1.25.04-1.88.08-.41.02-.81.06-1.21.1-.19.02-.38.03-.56.06-.48.07-.96.14-1.44.21-.66.09-1.31.23-1.96.37-.45.1-.89.23-1.34.34-.59.16-1.17.35-1.75.56-.8.29-1.59.63-2.34,1.03-.86.46-1.67.98-2.39,1.64-.54.5-1.01,1.06-1.35,1.72-.25.49-.41,1.01-.44,1.56-.05.82.16,1.58.58,2.28.41.7.96,1.28,1.59,1.79.88.72,1.85,1.27,2.88,1.74.62.28,1.25.54,1.9.75.53.17,1.06.35,1.6.49.8.21,1.61.4,2.43.53.5.08.99.15,1.49.23.74.12,1.48.18,2.23.23.87.06,1.73.07,2.51.1Z"/>
  <path d="m10.99,11.64s.06,0,.09,0c.42,0,.84,0,1.26,0,.09,0,.14.02.19.1.52.8,1.04,1.6,1.56,2.4,0,0,.01.01.03.02.02-.02.04-.04.06-.07.5-.76.99-1.52,1.49-2.28,0-.01.02-.02.02-.03.05-.11.13-.15.25-.14.39,0,.78,0,1.18,0,.04,0,.08,0,.12,0,.04.12.04,6.08,0,6.24h-1.44s0,0-.01-.01c0,0,0,0,0-.01,0,0,0-.02,0-.03,0-.01,0-.03,0-.04,0-1.08,0-2.16,0-3.24,0-.05,0-.09,0-.14,0,0,0,0-.02-.03-.04.05-.08.1-.11.15-.3.46-.59.91-.89,1.37-.02.03-.05.07-.07.1-.03.05-.08.08-.14.07-.29,0-.57,0-.86,0-.08,0-.11-.05-.15-.11-.2-.3-.39-.6-.59-.9-.14-.21-.28-.42-.42-.64,0-.01-.02-.03-.05-.06v3.51h-1.48v-6.24Z"/>
  <path d="m25.52,14.22v3.64c-.11.03-1.18.04-1.46.02,0,0,0,0-.01,0,0,0,0,0,0-.01,0-.02,0-.05,0-.07,0-2.03,0-4.07,0-6.1,0-.01,0-.03.01-.05.04,0,.09,0,.13,0,.4,0,.79,0,1.19,0,.11,0,.17.04.23.12.42.59.85,1.18,1.28,1.77.41.57.82,1.14,1.23,1.7.02.03.05.06.1.12.02-.2,0-.37,0-.54,0-.18,0-.35,0-.53v-1.05c0-.18,0-.35,0-.53,0-.18,0-.35,0-.53,0-.17,0-.35,0-.52.11-.03,1.29-.04,1.46-.01.03.11.03,6.09,0,6.23-.04,0-.08,0-.12,0-.4,0-.8,0-1.2,0-.1,0-.15-.03-.2-.11-.31-.43-.61-.85-.92-1.28-.52-.72-1.04-1.44-1.56-2.16-.03-.04-.07-.09-.1-.13,0,0-.02,0-.03,0Z"/>
  <path d="m21.38,17.89h-1.49c0-.4,0-.79,0-1.19,0-.4,0-.79,0-1.19,0-.39,0-.78,0-1.18s0-.79,0-1.21c-.21,0-.42,0-.62,0-.21,0-.42,0-.64,0-.21,0-.41,0-.64,0,0-.5,0-.98,0-1.48h5.29c.01.49,0,.97,0,1.47-.16,0-.32,0-.47,0-.16,0-.31,0-.47,0s-.3,0-.46,0c-.16,0-.31,0-.49,0-.01.23,0,.46,0,.68,0,.23,0,.45,0,.68v3.41Z"/>
</svg>