<?xml version="1.0" encoding="UTF-8"?>
<svg id="Layer_1" data-name="Layer 1" xmlns="http://www.w3.org/2000/svg" viewBox="0 0 27.92 25.55">
  <path d="m18.64,4.46c0-.22,0-.38,0-.54.03-.72.54-1.25,1.26-1.28.41-.02.83-.02,1.24,0,.74.03,1.27.58,1.27,1.33,0,.89,0,1.79,0,2.69,0,.07.02.15-.01.2-.19.36.06.5.3.68.42.3.84.62,1.25.93,1.02.78,1.41,1.98,1.02,3.21-1.06,3.37-2.12,6.74-3.18,10.11-.4,1.27-1.47,2.03-2.8,2.03-3.35,0-6.7,0-10.05,0-1.34,0-2.41-.78-2.81-2.06-1.06-3.35-2.11-6.7-3.17-10.05-.4-1.26,0-2.48,1.07-3.28,2.71-2.03,5.43-4.04,8.11-6.11.96-.74,2.71-.77,3.65,0,.83.69,1.72,1.3,2.58,1.95.07.05.14.1.27.19m-4.91,16.22h3.23s.04,0,.06,0c1.33-.02,2.4-.79,2.79-2.02.66-2.09,1.32-4.19,1.97-6.29.37-1.19,0-2.39-1-3.14-1.71-1.3-3.44-2.56-5.14-3.87-.86-.66-2.5-.66-3.36,0-1.72,1.31-3.46,2.59-5.19,3.9-.93.7-1.32,1.91-.98,3.02.66,2.16,1.33,4.33,2.04,6.48.37,1.11,1.2,1.76,2.36,1.88,1.14.12,2.29.01,3.21.04" style="fill: #641617;"/>
  <path d="m13.96,19.66c-.9,0-1.79,0-2.69,0-1.17,0-2.09-.68-2.44-1.8-.56-1.78-1.12-3.57-1.68-5.36-.36-1.16-.03-2.19.93-2.91,1.43-1.07,2.88-2.12,4.29-3.23.84-.66,2.32-.67,3.17,0,1.41,1.1,2.86,2.15,4.29,3.23.98.74,1.3,1.76.93,2.94-.55,1.75-1.1,3.5-1.65,5.25-.38,1.22-1.27,1.88-2.55,1.88h-2.6Zm0-3.38c.34,0,.67,0,1.01,0,.53-.01.94-.29,1.09-.78.23-.7.46-1.4.66-2.11.14-.47.01-.9-.39-1.21-.55-.43-1.12-.85-1.68-1.26-.45-.33-.95-.32-1.39,0-.53.39-1.06.79-1.59,1.19-.48.37-.62.8-.44,1.37.2.65.41,1.3.61,1.94.17.54.56.84,1.13.85.33,0,.65,0,.98,0" style="fill: #641617;"/>
  <path d="m13.94,15.9c-.33,0-.65,0-.98,0-.36,0-.62-.17-.73-.5-.23-.7-.46-1.4-.67-2.11-.09-.32,0-.61.27-.82.56-.42,1.12-.85,1.68-1.26.26-.19.62-.19.89.01.57.42,1.13.83,1.68,1.26.26.21.37.48.26.82-.22.68-.43,1.37-.65,2.06-.12.36-.38.54-.76.55-.34,0-.67,0-1.01,0" style="fill: #641617;"/>
</svg>