<?xml version="1.0" encoding="UTF-8"?>
<svg id="Layer_1" data-name="Layer 1" xmlns="http://www.w3.org/2000/svg" viewBox="0 0 60 27.82">
  <path d="m13.5,11.37c-3.66-.79-6.91-.66-9.46-.23-1.61.27-2.94.66-3.92,1,1.07-.11,2.38-.19,3.91-.17.08,4.5,2.74,8.37,6.56,10.19-.75,1.89-1.56,3.83-2.25,5.34,1.3-1.38,2.35-2.96,3.16-4.74.03-.06.06-.12.08-.19,1.24-2.74,2.49-5.76,3.04-7.39,1.12-3.34-1.12-3.82-1.12-3.82h0Z" style="fill: #f90;"/>
  <path d="m17.2,18.53s-.56-1.12-1.23-.41c-.51.54-2.33,3.56-3.17,4.97-.25.43-.42.71-.43.72.03-.02.44-.29.99-.61h0c.63.11,1.28.16,1.95.16.46,0,.92-.03,1.37-.08,1.13,2.26,1.99,3.94,1.99,3.94l-.7-4.16-.76-4.52h-.01Z" style="fill: #0d3e49;"/>
  <g>
    <polygon points="33.76 10.08 33.76 8.16 31.34 8.16 29.08 8.16 26.69 8.16 26.69 10.08 29.08 10.08 29.08 16.19 31.34 16.19 31.34 10.08 33.76 10.08" style="fill: #0d3e49;"/>
    <path d="m37.49,10.85c-.44-.24-.95-.36-1.54-.36s-1.12.13-1.57.38c-.46.25-.83.6-1.1,1.02s-.41.93-.41,1.5.13,1.07.42,1.51c.27.44.66.79,1.14,1.02s1.06.37,1.7.37c.5,0,.95-.08,1.35-.24s.73-.39,1-.7l-1.1-1.1c-.17.19-.35.32-.55.42s-.43.13-.69.13-.49-.05-.68-.15-.32-.26-.42-.46c-.01-.02-.02-.06-.04-.1l3.81-.02c.04-.17.06-.31.07-.43s.02-.24.02-.36c0-.54-.13-1.02-.38-1.44s-.6-.75-1.04-.99h-.02Zm-2.07,1.31c.17-.12.36-.17.58-.17s.41.05.54.14c.14.1.25.24.32.43.02.05.04.1.05.14h-1.91s.02-.05.04-.08c.08-.21.21-.37.38-.49h0v.02Z" style="fill: #0d3e49;"/>
    <path d="m44.3,10.79c-.31-.18-.67-.26-1.07-.26-.44,0-.85.08-1.19.26-.1.05-.18.1-.26.15v-.3h-2.22v5.55h2.22v-3.11c0-.14.02-.26.08-.37s.13-.18.24-.24.21-.08.35-.08c.19,0,.35.06.46.18.13.12.19.29.19.5v3.11h2.22v-3.62c0-.41-.1-.75-.27-1.06-.18-.31-.43-.55-.74-.73h.01-.01Z" style="fill: #0d3e49;"/>
    <path d="m49.74,10.84c-.1-.05-.19-.11-.3-.14-.27-.11-.57-.15-.89-.15-.52,0-.98.12-1.37.36s-.7.57-.93.98-.35.87-.35,1.38.12.97.35,1.37.54.74.93.98.86.36,1.37.36c.32,0,.62-.05.89-.15.08-.04.17-.07.24-.12v.17c0,.33-.1.58-.31.75-.2.18-.49.26-.85.26-.3,0-.56-.05-.76-.15s-.41-.26-.57-.45l-1.31,1.3c.26.37.63.67,1.12.87s1.04.31,1.66.31,1.17-.12,1.66-.37.87-.58,1.17-1.02.43-.97.43-1.57v-5.11h-2.15v.2-.02h-.02Zm-.32,3.11c-.13.08-.29.13-.46.13s-.32-.04-.45-.13-.21-.19-.29-.32c-.07-.13-.1-.26-.1-.39s.04-.26.1-.41.17-.24.3-.32c.13-.08.29-.13.45-.13s.33.04.45.13c.13.08.21.19.29.31.07.13.1.26.1.41s-.04.29-.1.41-.17.24-.3.31h.01Z" style="fill: #0d3e49;"/>
    <path d="m57.17,10.85c-.44-.24-.95-.36-1.54-.36s-1.12.13-1.57.38c-.46.25-.83.6-1.1,1.02s-.41.93-.41,1.5.13,1.07.42,1.51c.27.44.66.79,1.14,1.02s1.06.37,1.7.37c.5,0,.95-.08,1.35-.24s.73-.39,1-.7l-1.1-1.1c-.17.19-.35.32-.55.42s-.43.13-.69.13-.49-.05-.68-.15-.32-.26-.42-.46c-.01-.02-.02-.06-.04-.1l3.81-.02c.04-.17.06-.31.07-.43s.02-.24.02-.36c0-.54-.13-1.02-.38-1.44s-.6-.75-1.04-.99h-.02Zm-2.07,1.31c.17-.12.36-.17.58-.17s.41.05.54.14.25.24.32.43c.02.05.04.1.05.14h-1.91s.02-.05.04-.08c.08-.21.21-.37.38-.49h0v.02Z" style="fill: #0d3e49;"/>
  </g>
  <path d="m15.31.32C10.43.32,6.25,3.36,4.58,7.65c1.91,1.05,4.1,1.69,6.42,1.79,5.36.23,9.47-2.44,11.7-6.43-2-1.68-4.58-2.69-7.4-2.69h0Zm-.06,8.05c-1.37,0-2.47-1.19-2.47-2.66s1.1-2.66,2.47-2.66,2.47,1.19,2.47,2.66-1.1,2.66-2.47,2.66Z" style="fill: #0d3e49;"/>
  <path d="m28.59,2.42s-.1-.1-.15-.13c-.17-.1-.38-.11-.57-.08-.55.1-.98.5-1.4.84-.53.42-1.07.82-1.6,1.23-1.05.8-2.09,1.62-3.03,2.55-1.21,1.19-2.13,2.48-2.31,4.19-.16,1.49-.18,3-.2,4.5-.03,2.17,0,4.33.04,6.5.06-1.93.13-3.86.23-5.8.1-1.69.11-3.51.54-5.16.42-1.62,2.1-2.66,3.41-3.55.94-.65,1.92-1.24,2.84-1.91.78-.57,2.03-1.39,2.33-2.36.08-.27.05-.6-.13-.81h0Z" style="fill: #f90;"/>
  <path d="m27.55,21.81h0c0-1.49,1.29-2.68,3.1-2.68.93,0,1.55.23,2.07.59.11.08.2.2.2.35,0,.25-.23.43-.5.43-.14,0-.24-.04-.31-.09-.42-.29-.87-.48-1.46-.48-1.17,0-2.02.82-2.02,1.85h0c0,1.06.86,1.88,2.02,1.88.65,0,1.08-.18,1.54-.51.07-.06.18-.11.31-.11.26,0,.48.18.48.41,0,.13-.07.24-.17.3-.57.45-1.21.7-2.19.7-1.75,0-3.06-1.17-3.06-2.65Z" style="fill: #f90;"/>
  <path d="m34.11,19.39c0-.25.21-.43.5-.43.27,0,.5.18.5.43v1.72c.29-.37.73-.69,1.44-.69,1.02,0,1.63.59,1.63,1.5v2.08c0,.25-.22.43-.5.43-.29,0-.5-.18-.5-.43v-1.82c0-.62-.36-.97-1-.97s-1.07.36-1.07.99v1.81c0,.25-.21.43-.5.43-.27,0-.5-.18-.5-.43v-4.6Z" style="fill: #f90;"/>
  <path d="m39.2,23.26h0c0-.84.77-1.26,1.88-1.26.52,0,.88.06,1.24.16v-.1c0-.57-.4-.87-1.15-.87-.41,0-.73.06-1.02.16-.06.02-.12.03-.16.03-.23,0-.42-.16-.42-.35,0-.16.11-.29.26-.34.43-.15.87-.23,1.46-.23.67,0,1.17.16,1.5.43.33.28.48.68.48,1.19v1.94c0,.23-.21.42-.48.42-.29,0-.49-.18-.49-.37v-.17c-.31.32-.79.57-1.49.57-.86,0-1.62-.43-1.62-1.2Zm3.13-.28v-.28c-.27-.09-.64-.16-1.07-.16-.69,0-1.09.25-1.09.67h0c0,.41.41.62.91.62.7,0,1.25-.35,1.25-.85Z" style="fill: #f90;"/>
  <path d="m44.61,20.88c0-.25.21-.43.5-.43.27,0,.5.18.5.43v.43c.26-.51.73-.87,1.2-.87.31,0,.49.18.49.43,0,.23-.17.38-.4.41-.75.11-1.29.6-1.29,1.55v1.16c0,.25-.21.43-.5.43-.27,0-.5-.18-.5-.43v-3.11Z" style="fill: #f90;"/>
  <path d="m48.2,19.43c0-.26.24-.42.56-.42s.57.16.57.42v.05c0,.26-.25.43-.57.43s-.56-.17-.56-.43v-.05Zm.07,1.45c0-.25.22-.43.5-.43.29,0,.5.18.5.43v3.11c0,.25-.22.43-.5.43-.29,0-.5-.18-.5-.43v-3.11Z" style="fill: #f90;"/>
  <path d="m50.94,23.31v-2.09h-.2c-.24,0-.43-.16-.43-.37s.19-.37.43-.37h.2v-.69c0-.23.21-.43.5-.43.27,0,.5.19.5.43v.69h.86c.23,0,.43.17.43.37s-.2.37-.43.37h-.86v1.95c0,.36.21.5.58.5.14,0,.24-.03.28-.03.22,0,.41.16.41.35,0,.16-.11.28-.26.33-.22.08-.43.11-.7.11-.76,0-1.3-.28-1.3-1.13Z" style="fill: #f90;"/>
  <path d="m54.39,25.47c-.16-.05-.31-.15-.31-.35,0-.22.18-.35.41-.35.09,0,.13,0,.19.03.12.04.21.06.37.06.32,0,.5-.11.67-.45l.04-.08-1.71-3.25c-.02-.06-.06-.14-.06-.21,0-.25.22-.41.5-.41s.4.12.49.32l1.26,2.63,1.16-2.63c.09-.18.22-.32.48-.32s.48.17.48.4c0,.08-.02.16-.05.21l-1.66,3.43c-.4.79-.79,1.1-1.53,1.1-.29,0-.5-.04-.72-.11Z" style="fill: #f90;"/>
</svg>