<?xml version="1.0" encoding="UTF-8"?>
<svg id="Layer_1" data-name="Layer 1" xmlns="http://www.w3.org/2000/svg" viewBox="0 0 23.33 40.66">
  <path d="m9.91,1.8s.24-.26.52-.33c.28-.07.54.1.65.13.12.03.16.05.16.05,0,0-.16.06-.26.15-.1.09-.42.22-.61.19-.2-.04-.41-.12-.5-.12s-1,.28-1.09.3c.09.05.15.05.36,0,.21-.05.44-.06.61.05.17.12.28.16.28.16,0,0-.3.08-.38.12-.08.04-.37.04-.53-.06-.16-.1-.29-.23-.44-.23s-1.03.41-1.03.41c0,0-.07.06.03.06s.21,0,.31-.06c.1-.07.31-.11.45-.05.14.05.28.12.39.14-.15.04-.26.05-.34.13-.08.08-.38.09-.47.03-.09-.06-.18-.13-.3-.13s-.28-.04-.4.04c-.12.08-.58.31-.77.51.11,0,.31-.08.35-.13.04-.05.18-.12.36-.12.18,0,.44.13.51.13-.23.1-.39.24-.6.27-.21.03-.36-.04-.58-.06-.22-.02-.26.03-.37.12-.11.09-.63.53-.68.56.13,0,.27-.04.43-.19.15-.15.45-.11.55-.11s.25.02.25.02c0,0-.2.14-.28.21-.07.06-.31.24-.46.24s-.22-.07-.32-.08c-.1,0-.27,0-.32.04-.06.05-.62.59-.74.83.12.03.24-.1.28-.19.04-.09.15-.27.48-.28.33,0,.39,0,.39,0,0,0-.23.21-.34.33-.11.11-.26.19-.43.18-.17,0-.42.03-.49.03-.13.13-.55.7-.69.94.15-.05.22-.08.25-.12.03-.04.13-.28.34-.36.21-.08.5-.07.53-.09-.12.13-.31.48-.53.53-.21.05-.54.03-.66.15-.14.19-.45.87-.53.95.16-.05.22-.12.26-.18.04-.06.17-.38.35-.44.18-.05.42-.14.42-.14,0,0-.15.39-.3.53-.15.13-.44.18-.51.21-.06.03-.23.09-.27.14-.03.05-.25.66-.31.99.16-.14.15-.15.22-.32.07-.17.21-.35.41-.42.2-.07.23-.12.23-.12,0,0-.13.37-.18.49-.04.13-.18.29-.35.3-.17,0-.28.07-.37.18-.08.12-.2.91-.23,1.02.14-.08.21-.2.21-.27s-.03-.33.21-.46c.24-.12.35-.17.36-.21-.07.23-.17.61-.28.69-.11.08-.29.15-.39.25-.1.1-.14.14-.15.21,0,.07-.04.66-.04,1.09.12-.14.12-.23.14-.36.03-.12,0-.33.18-.46.19-.13.28-.29.28-.29,0,0,0,.56-.07.72s-.27.18-.34.25c-.07.07-.2.26-.2.26,0,0,.05.98.1,1.13.11-.14.1-.17.08-.31-.02-.14-.02-.35.1-.5.11-.15.32-.27.33-.36,0,.29.02.62-.09.77-.11.14-.36.4-.38.5,0,.2.14.93.22,1.17.05-.22.11-.23.05-.37-.05-.13-.14-.35-.02-.52.13-.17.26-.36.26-.36,0,0,.08.28.1.4.02.12-.02.31-.1.4-.08.09-.22.35-.25.56.04.14.26.78.4,1.12.14.33.69,1.19.82,1.35-.08.07-.14.11-.14.11,0,0-.7-1.18-.94-1.84-.24-.66-.24-.81-.28-.85-.04-.04-.24-.22-.31-.26-.07-.04-.35-.13-.39-.33-.04-.2-.1-.52-.1-.52,0,0,.41.25.51.45.1.2.07.28.14.39.07.12.13.13.13.13,0,0-.17-.68-.21-1.03-.05-.1-.29-.29-.39-.37s-.31-.25-.29-.94c.06.13.21.23.31.29.1.06.21.3.21.41s0,.35.13.47c-.06-.53-.09-.93-.11-1.19-.1-.13-.16-.25-.33-.42-.17-.17-.3-.44-.23-1,.1.14.22.3.35.45.13.14.17.38.16.55,0,.17.02.27.08.34.02-.43.03-1.05.05-1.29-.19-.25-.4-.38-.41-.63-.01-.25.06-.46.04-.62.21.21.39.41.41.66.02.25-.08.44,0,.53.11-.5.24-.83.17-1.09-.07-.26-.09-.26-.17-.36-.08-.1-.13-.28-.05-.51.08-.22.11-.38.11-.38,0,0,.16.29.22.36.06.07.08.38.03.54-.06.16-.1.27-.04.41.09-.35.22-.77.34-1.06.03-.18-.03-.41-.07-.51-.04-.1-.2-.27-.04-.54.16-.27.21-.32.21-.32,0,0,.09.22.14.37.05.14.06.28-.02.45-.08.17-.18.23-.15.45.2-.46.27-.59.4-.81.13-.22.21-.38.1-.59-.11-.21-.14-.48.28-.87.04.27.08.55.04.66-.03.11-.19.33-.19.36,0,.03,0,.09,0,.09,0,0,.3-.46.67-.88.04-.11,0-.35-.02-.55,0-.21.08-.38.2-.48.13-.1.23-.3.23-.3,0,0,.04.45,0,.66-.05.21-.2.34-.3.43-.05.09-.01.13-.01.13,0,0,.37-.44.69-.71.11-.14.16-.24.15-.48-.01-.24.04-.47.22-.61.18-.13.27-.22.27-.22,0,0-.02.47-.05.59-.03.12-.15.23-.23.3-.08.06-.15.12-.14.23.28-.28.64-.53.86-.67.09-.1.08-.34.09-.43,0-.09,0-.36.27-.51.27-.15.38-.28.38-.28,0,0-.02.33-.07.51-.05.18-.2.31-.31.36-.12.04-.21.12-.21.26.28-.23.56-.39.88-.55.11-.08.2-.27.22-.42.03-.15.06-.46.71-.64-.06.23-.14.55-.34.65-.19.1-.33.12-.39.31.28-.16.94-.38,1.02-.44.08-.05.22-.27.24-.33.02-.06.09-.4.41-.47.32-.07.38-.11.38-.11,0,0-.11.38-.28.53-.17.15-.57.19-.6.34.53-.17,1.1-.27,1.1-.27" style="fill: #558618;"/>
  <path d="m13.42,1.8s-.24-.26-.52-.33c-.28-.07-.53.1-.65.13-.11.03-.16.05-.16.05,0,0,.16.06.26.15.1.09.42.22.61.19.2-.04.41-.12.5-.12s1,.28,1.1.3c-.09.05-.15.05-.37,0-.21-.05-.44-.06-.61.05-.17.12-.27.16-.27.16,0,0,.3.08.38.12.08.04.37.04.53-.06.16-.1.29-.23.44-.23s1.03.41,1.03.41c0,0,.07.06-.03.06s-.21,0-.31-.06c-.1-.07-.31-.11-.46-.05-.14.05-.28.12-.39.14.15.04.26.05.34.13.08.08.38.09.47.03.09-.06.18-.13.29-.13s.28-.04.4.04c.12.08.58.31.77.51-.11,0-.31-.08-.35-.13-.04-.05-.18-.12-.36-.12-.18,0-.44.13-.51.13.23.1.39.24.6.27.21.03.36-.04.58-.06.22-.02.26.03.36.12.11.09.63.53.68.56-.13,0-.28-.04-.43-.19-.15-.15-.44-.11-.55-.11s-.25.02-.25.02c0,0,.21.14.27.21.07.06.31.24.45.24s.22-.07.32-.08c.1,0,.27,0,.32.04.05.05.62.59.74.83-.13.03-.24-.1-.28-.19-.05-.09-.15-.27-.48-.28-.33,0-.39,0-.39,0,0,0,.23.21.34.33.11.11.26.19.43.18.17,0,.42.04.49.03.12.13.55.7.69.94-.15-.05-.22-.08-.25-.12-.03-.04-.14-.28-.34-.36-.2-.08-.5-.07-.53-.09.13.13.31.48.53.53.21.05.54.03.66.15.14.19.45.87.53.95-.16-.05-.22-.12-.26-.18-.04-.06-.17-.38-.35-.44-.18-.05-.42-.14-.42-.14,0,0,.15.39.3.53.15.13.44.18.51.21.06.03.23.09.27.14.04.05.25.66.31.99-.16-.14-.15-.15-.22-.32-.07-.17-.21-.35-.41-.42-.2-.07-.23-.12-.23-.12,0,0,.13.37.18.49.04.13.18.29.35.3.17,0,.28.07.36.18.08.12.2.91.23,1.02-.14-.08-.2-.2-.2-.27s.03-.33-.21-.46c-.24-.12-.35-.17-.37-.21.07.23.17.61.28.69.11.08.29.15.39.25.1.1.14.14.15.21,0,.07.04.66.04,1.09-.11-.14-.11-.23-.14-.36-.03-.12,0-.33-.18-.46-.19-.13-.28-.29-.28-.29,0,0,0,.56.07.72.08.16.27.18.34.25.07.07.21.26.21.26,0,0-.04.98-.1,1.13-.11-.14-.1-.17-.08-.31.02-.14.02-.35-.1-.5-.12-.15-.32-.27-.33-.36,0,.29-.02.62.09.77.11.14.36.4.38.5,0,.2-.14.93-.22,1.17-.05-.22-.11-.23-.05-.37.05-.13.14-.35.02-.52-.12-.17-.26-.36-.26-.36,0,0-.08.28-.1.4-.02.12.02.31.1.4.08.09.22.35.25.56-.03.14-.26.78-.4,1.12-.14.33-.69,1.19-.82,1.35.08.07.14.11.14.11,0,0,.7-1.18.94-1.84.24-.66.24-.81.28-.85.04-.04.24-.22.31-.26.07-.04.35-.13.39-.33.04-.2.1-.52.1-.52,0,0-.41.25-.51.45-.1.2-.07.28-.14.39-.07.12-.13.13-.13.13,0,0,.17-.68.21-1.03.04-.1.29-.29.39-.37.11-.08.31-.25.29-.94-.06.13-.21.23-.31.29-.1.06-.21.3-.21.41s0,.35-.13.47c.06-.53.09-.93.11-1.19.1-.13.16-.25.33-.42.17-.17.29-.44.23-1-.1.14-.22.3-.35.45-.12.14-.17.38-.16.55,0,.17-.02.27-.08.34-.02-.43-.03-1.05-.04-1.29.19-.25.4-.38.41-.63,0-.25-.06-.46-.04-.62-.21.21-.39.41-.41.66-.02.25.08.44,0,.53-.11-.5-.24-.83-.17-1.09.07-.26.09-.26.17-.36.08-.1.13-.28.05-.51-.08-.22-.11-.38-.11-.38,0,0-.16.29-.22.36-.06.07-.08.38-.03.54.05.16.1.27.03.41-.09-.35-.22-.77-.34-1.06-.03-.18.03-.41.07-.51.04-.1.2-.27.04-.54-.16-.27-.21-.32-.21-.32,0,0-.09.22-.14.37-.05.14-.06.28.02.45.08.17.18.23.15.45-.2-.46-.27-.59-.4-.81-.13-.22-.21-.38-.1-.59.11-.21.14-.48-.28-.87-.04.27-.08.55-.04.66.04.11.19.33.19.36,0,.03,0,.09,0,.09,0,0-.3-.46-.67-.88-.04-.11,0-.35.02-.55,0-.21-.08-.38-.2-.48-.13-.1-.23-.3-.23-.3,0,0-.05.45,0,.66.04.21.19.34.3.43.05.09,0,.13,0,.13,0,0-.37-.44-.69-.71-.11-.14-.16-.24-.15-.48,0-.24-.04-.47-.22-.61-.18-.13-.27-.22-.27-.22,0,0,.02.47.04.59.03.12.15.23.23.3.08.06.15.12.14.23-.28-.28-.64-.53-.86-.67-.09-.1-.08-.34-.09-.43,0-.09,0-.36-.27-.51-.27-.15-.38-.28-.38-.28,0,0,.02.33.07.51.05.18.2.31.31.36.12.04.21.12.21.26-.28-.23-.56-.39-.88-.55-.11-.08-.2-.27-.22-.42-.03-.15-.06-.46-.71-.64.06.23.14.55.34.65.2.1.33.12.39.31-.29-.16-.94-.38-1.02-.44-.08-.05-.22-.27-.24-.33-.02-.06-.09-.4-.41-.47-.32-.07-.38-.11-.38-.11,0,0,.11.38.27.53.17.15.57.19.61.34-.54-.17-1.1-.27-1.1-.27" style="fill: #558618;"/>
  <path d="m19.71,10.84c0,4.4-3.58,7.98-7.99,7.98s-7.99-3.57-7.99-7.98,3.58-7.97,7.99-7.97,7.99,3.57,7.99,7.97" style="fill: #558618;"/>
  <path d="m16.59,10.87c0,2.68-2.19,4.85-4.89,4.85s-4.89-2.17-4.89-4.85,2.19-4.85,4.89-4.85,4.89,2.17,4.89,4.85" style="fill: #fee60e;"/>
  <path d="m12.14,13.98s-.14-.14-.16-.04c-.02.1-.08.11-.17.11s-.15-.04-.22-.09c-.07-.05-.76.07-.76.07,0,0-.06.02-.06.09s-.06.07-.17-.02c-.11-.09-.22-.37-.6-.53-.38-.16-.83-.4-1.09-.36-.26.05-.2.23-.13.39.08.16.35.65.41.76.06.1.25.25.34.31.09.06.27.13.54.1.27-.03.31-.05.38.02.08.07.12.18.14.65.03.47,0,.87.12,1.14.12.27.3.5.32.68.02.18.09.26.14.32.05.06.26.23.5.23s.39-.08.58-.46c.2-.38.44-.83.46-1.07.02-.24.04-.4.1-.53.06-.13.1-.34.09-.44,0-.1-.01-.24.13-.37.14-.13.2-.07.32-.04.12.02.41.07.63-.09.22-.16.46-.4.69-.76.23-.37.27-.4.2-.54-.07-.13-.49-.04-.71.01-.22.06-.73.24-.96.44-.24.21-.29.32-.33.32s-.11-.05-.11-.1c0-.05-.6-.18-.6-.18" style="fill: #fff;"/>
  <path d="m9.65,7.65s-.03-.4-.04-.59c-.01-.19-.06-.27-.06-.22,0,.05,0,.64,0,.68-.01.05-.02.17-.08.2-.06.03-.09.08-.06.12.03.04.05.1,0,.11-.04.01-.06.06-.05.12.01.06-.01.08-.06.1-.05.02-.08.08-.06.11.01.04.05.13,0,.13-.05,0-.11.04-.09.13.02.09,0,.13-.05.13s-.17.03-.16.15c.01.11,0,.15-.06.16-.05,0-.15.03-.15.11s.04.16-.03.17c-.07,0-.16-.04-.2.03-.05.07.02.21-.02.25-.04.04-.2.02-.24.13-.04.11.03.19,0,.23-.03.05-.16.02-.2.12-.04.1.05.18.04.23,0,.05-.04.08-.11.12-.07.04-.09.16-.07.21.02.04.08.11.05.15-.03.04-.1.1-.1.17s.12.14.11.18c0,.04-.1.14-.09.23,0,.09.12.12.16.14.04.02-.03.15,0,.22.03.07.11.09.15.11.04.02.03.07,0,.1-.02.04,0,.15.11.19.11.04.16.06.15.13,0,.08.02.14.15.18.12.03.13.06.12.13-.01.07.01.13.18.11.17-.01.13.11.14.16.01.05.11.07.2.07.08,0,.11,0,.13.09.01.08.11.12.23.12s.17.04.2.09c.03.06.08.1.19.09.11-.01.19,0,.21.06.01.06.06.1.14.1.08,0,.06.13.12.15.06.02.16.01.14.06-.02.05-.03.12.05.15.08.02.1.08.07.12-.03.03,0,.11.05.15.06.03.08.09.03.15-.04.06-.15.05-.23-.07-.07-.12-.38-.43-.81-.59-.44-.17-.8-.34-.95-.22-.15.12.29.8.39.99.09.2.45.53.88.47.11-.02.31-.07.39,0,.09.07.17.28.16.4,0,.12.02.37.03.67.01.31.06.65.18.87.12.22.23.41.25.56.02.15.27.41.35.43.08.02.43.05.5-.02.07-.07.41-.58.55-.91.14-.33.21-.55.21-.72.01-.16.06-.32.11-.44.05-.11.08-.5.08-.57.01-.07.14-.2.24-.23.11-.03.24.04.33.05.09.01.41.01.66-.23.25-.24.52-.6.63-.82.11-.23.11-.33-.02-.34-.13,0-.66.05-1.17.31-.51.26-.56.5-.66.53-.09.03-.22-.04-.2-.13.02-.1.21-.11.19-.2-.02-.09-.04-.12.04-.15.08-.02.09-.08.08-.12-.02-.04,0-.09.06-.09.07,0,.09-.04.1-.11,0-.06.14-.04.17-.07.03-.03.04-.15.09-.15s.3,0,.35-.04c.05-.05.04-.16.15-.17.12,0,.26.01.29-.06.03-.08,0-.14.13-.14.14,0,.23-.01.23-.07s-.03-.13.04-.14c.07,0,.23.02.24-.07.01-.09-.03-.12.04-.15.08-.03.25-.07.25-.15,0-.08-.01-.15.05-.17.06-.02.23-.03.2-.13-.03-.1-.06-.16,0-.19.07-.03.15-.05.14-.14,0-.09,0-.17.05-.2.06-.03.11-.05.1-.14,0-.09-.04-.1-.07-.16-.03-.05.03-.11.09-.17.05-.06.02-.15-.04-.18-.06-.03-.06-.07-.02-.16.05-.09.05-.23-.04-.24-.1,0-.12-.09-.09-.16.02-.07.06-.22,0-.25-.07-.03-.21-.06-.17-.15.04-.08.04-.18-.02-.2-.05-.03-.18-.04-.19-.1-.01-.06,0-.23-.05-.25-.06-.02-.21,0-.21-.06,0-.06,0-.15-.05-.18-.05-.03-.13-.01-.14-.07,0-.06,0-.22-.07-.25-.07-.03-.16.05-.15-.07,0-.11,0-.18-.08-.21-.08-.03,0-.11,0-.17-.02-.06-.15-.09-.13-.14.02-.05.04-.11,0-.13-.04-.02-.08-.09-.03-.13.04-.05.04-.08-.01-.11-.05-.03-.1-.08-.1-.22,0-.14,0-.71-.05-.71-.05,0-.08.46-.08.56s0,.35-.04.35c-.04,0-.07.08-.04.12.03.04.09.09.06.13-.03.05-.05.09-.02.14.03.05.08.08.02.13-.05.05-.03.11,0,.16.03.05.07.1.04.16-.03.07.02.13.05.15.03.02.1.06.08.13-.03.08-.03.15.02.18.06.02.14.03.12.08-.01.05-.05.12,0,.16.04.04.17.06.17.11,0,.05,0,.14.1.19.11.05.07.14.07.2s.28.17.24.22c-.04.05-.08.15,0,.22.09.07.16.11.1.17-.05.06-.05.11-.01.17.04.05.18.12.13.17-.05.04-.15.09-.12.15.03.07.1.19.02.22-.08.03-.09.08-.05.16.03.08.02.17-.01.17s-.1.03-.1.09c0,.06.02.16-.03.16-.05,0-.14,0-.16.08-.02.08,0,.16-.06.17-.06.01-.16-.01-.19.05-.02.07,0,.17-.11.15-.11-.02-.18.01-.2.07-.02.06-.02.15-.11.12-.09-.02-.2-.03-.24.03-.04.07,0,.14-.07.14s-.16-.09-.23-.05c-.07.04-.05.14-.07.18-.02.04-.15.03-.21,0-.07-.03-.16.02-.17.12-.01.09-.07.11-.13.09-.07-.02-.19,0-.21.05-.02.05,0,.16-.06.17-.06,0-.17.02-.21.07-.03.05.01.17-.02.19-.03.02-.15,0-.18.07-.03.08.03.26-.03.28-.07.02-.14.04-.12.15.02.11.02.22-.09.24-.11.02-.31.02-.31-.09,0-.11.03-.25,0-.3-.03-.04-.14-.04-.13-.15.02-.11.01-.16-.02-.21-.03-.04-.15-.03-.16-.08,0-.04,0-.22-.12-.22s-.15,0-.16-.1c0-.1-.08-.13-.19-.12-.11,0-.13,0-.16-.09-.02-.09-.09-.16-.18-.13-.1.03-.16.1-.2.01-.04-.08-.03-.16-.1-.18-.07-.02-.15.04-.2.04-.05,0-.04-.03-.07-.1-.03-.07-.09-.1-.17-.09-.08.02-.12.05-.15-.03-.03-.08-.11-.15-.19-.13-.08.02-.11,0-.12-.07,0-.07,0-.11-.09-.14-.08-.03-.17.03-.18-.06-.01-.09,0-.17-.09-.18-.09-.01-.11-.04-.09-.11,0-.06-.02-.15-.08-.15s-.07-.08-.04-.16c.03-.09-.02-.16-.06-.2-.04-.04.03-.08.02-.19,0-.1-.1-.13-.1-.19s.17-.12.14-.22c-.03-.09-.08-.14-.03-.17.05-.03.17-.12.16-.2-.02-.08-.08-.13.02-.17.1-.04.18-.08.18-.16s-.04-.13.05-.17c.08-.04.15-.1.12-.17-.03-.07.06-.09.11-.1.05-.02.12-.1.07-.17-.04-.07.06-.1.11-.13.05-.03.06-.11.03-.15-.03-.04-.04-.09.04-.13.08-.04.11-.11.08-.17-.03-.06-.02-.1.01-.14.04-.03.09-.1.05-.15-.03-.05-.05-.09,0-.14.04-.05.06-.08.02-.13-.03-.05-.07-.08-.02-.13.05-.05.08-.12.03-.16-.05-.04-.06-.06-.06-.06"/>
  <path d="m9.54,7.78s.06.04.09-.02c.04-.06.06,0,0,.09-.06.1-.19,0-.21-.05-.02-.05.1-.02.1-.02" style="fill: #fff;"/>
  <path d="m9.56,8.05s-.05-.04-.09-.06c-.05-.02-.09.06,0,.11.09.06.21,0,.2-.06-.01-.06-.1,0-.1,0" style="fill: #fff;"/>
  <path d="m9.37,8.27s.08.04.15.03c.07,0,.17,0,.06.08-.12.08-.24-.02-.28-.07-.04-.05,0-.09.07-.04" style="fill: #fff;"/>
  <path d="m9.31,8.66s.12.05.2,0c.08-.05.04-.08-.02-.07-.06,0-.18,0-.22-.07-.04-.06-.08-.06-.09,0-.01.05.07.11.13.14" style="fill: #fff;"/>
  <path d="m9.13,8.83s.08.07.14.07.15-.03.18,0c.03.02,0,.14-.21.11-.21-.03-.27-.16-.25-.21.02-.05.09,0,.13.04" style="fill: #fff;"/>
  <path d="m8.8,9.06s-.06.08.04.13c.1.06.27.12.41.06,0,0,.11-.04.08-.09-.04-.05-.11.01-.16.03-.05.02-.19-.02-.23-.05-.04-.03-.07-.1-.13-.08" style="fill: #fff;"/>
  <path d="m8.55,9.3s-.06.09.05.16c.11.07.32.12.43.09.11-.03.1-.11.07-.11s-.2.03-.31-.02c-.1-.05-.19-.14-.25-.11" style="fill: #fff;"/>
  <path d="m8.36,9.64s-.09,0-.07.09c.02.08.23.14.34.14s.31-.02.33-.13c.02-.11-.1-.02-.13.01-.03.03-.32,0-.38-.04-.06-.04-.03-.07-.09-.08" style="fill: #fff;"/>
  <path d="m8.17,10.01s-.08,0-.08.07.18.17.31.17.23,0,.29-.05c.06-.04.06-.12.02-.11-.04,0-.13.04-.27.03-.14,0-.25-.08-.27-.11" style="fill: #fff;"/>
  <path d="m8.34,10.51c-.12,0-.23-.03-.28-.07-.04-.04-.12,0-.13.07,0,.08.19.13.31.14.12,0,.27-.02.34-.1.07-.08.04-.14,0-.14s-.1.1-.25.11" style="fill: #fff;"/>
  <path d="m8.06,10.88s-.12-.11-.15,0c-.02.09.18.17.3.16.12,0,.37-.04.4-.15.03-.1-.07-.09-.13-.03-.06.05-.31.09-.41.02" style="fill: #fff;"/>
  <path d="m8.24,11.28s.14.02.23-.05c.09-.07.17-.14.18-.05.01.09-.17.18-.31.2-.14.02-.45,0-.4-.12.03-.1.15.03.31.01" style="fill: #fff;"/>
  <path d="m8.37,11.62c.12-.03.19-.06.25-.1.07-.05.13-.04.12.04-.02.08-.21.14-.34.15-.13,0-.33,0-.31-.11,0-.07.11.06.29.01" style="fill: #fff;"/>
  <path d="m8.32,11.89s.17.01.28-.02c.11-.03.21-.09.26-.12.05-.03.12.02.02.13-.1.11-.43.13-.51.13s-.14-.04-.14-.08.05-.05.09-.05" style="fill: #fff;"/>
  <path d="m8.76,12.18s.16-.04.24-.11c.08-.06.11-.12.16-.1.05.02,0,.14-.13.22-.13.08-.18.09-.28.1-.1.02-.23.02-.24-.07,0-.09.12-.06.25-.06" style="fill: #fff;"/>
  <path d="m8.89,12.47s-.11,0-.1.08c.02.08.35,0,.47-.08.12-.07.27-.18.21-.27-.06-.09-.12.08-.3.19-.07.04-.28.08-.28.08" style="fill: #fff;"/>
  <path d="m9.17,12.68s-.08,0-.07.06c0,.06.27.03.42-.05.15-.08.38-.24.3-.33-.08-.09-.18.1-.21.12-.03.03-.25.18-.44.19" style="fill: #fff;"/>
  <path d="m9.5,12.89s-.08.02-.02.06c.05.04.27.02.46-.09.19-.11.31-.25.26-.33-.05-.08-.13,0-.16.06-.03.06-.18.2-.29.25-.11.05-.24.05-.24.05" style="fill: #fff;"/>
  <path d="m9.95,13.09s.17-.09.3-.19c.13-.1.18-.24.24-.23.06,0,.12.11.03.2-.1.1-.37.27-.52.3-.15.03-.14-.06-.05-.08" style="fill: #fff;"/>
  <path d="m10.32,13.24s.26-.12.33-.2c.07-.08.17-.18.24-.13.07.05,0,.13-.16.22-.15.09-.4.22-.44.17-.04-.05.03-.07.03-.07" style="fill: #fff;"/>
  <path d="m10.55,13.41s-.12.04-.04.07c.08.03.35-.04.47-.1.11-.06.26-.18.2-.26-.06-.08-.15.09-.28.18-.09.06-.29.1-.35.1" style="fill: #fff;"/>
  <path d="m10.7,13.64s-.06,0-.05.05c.01.05.25.03.39,0,.14-.04.45-.17.37-.29-.08-.12-.17.1-.4.18-.11.04-.31.07-.31.07" style="fill: #fff;"/>
  <path d="m10.88,13.91s-.12-.03-.12,0c0,.04.2.09.36.07.16-.01.49-.11.45-.22-.03-.11-.18.02-.31.09-.13.06-.38.06-.38.06" style="fill: #fff;"/>
  <path d="m14.06,7.81s-.06.04-.1-.02c-.04-.06-.06,0-.01.09.07.1.19.01.21-.05.02-.05-.1-.02-.1-.02" style="fill: #fff;"/>
  <path d="m14.04,8.09s.05-.04.1-.06c.05-.02.1.06,0,.11-.08.06-.21,0-.2-.06,0-.06.09,0,.09,0" style="fill: #fff;"/>
  <path d="m14.23,8.31s-.08.04-.15.03c-.08-.01-.17,0-.06.08.11.08.24-.02.28-.07.04-.05,0-.09-.07-.04" style="fill: #fff;"/>
  <path d="m14.28,8.7s-.12.05-.2,0c-.08-.05-.04-.08.02-.07.06,0,.18,0,.22-.07.04-.06.08-.06.09,0,.01.05-.07.12-.13.14" style="fill: #fff;"/>
  <path d="m14.47,8.86s-.08.07-.14.07-.15-.03-.18,0c-.03.02,0,.14.21.11.21-.03.27-.16.25-.21-.02-.05-.1,0-.13.04" style="fill: #fff;"/>
  <path d="m14.8,9.1s.06.08-.04.13c-.1.06-.27.12-.41.06,0,0-.11-.04-.08-.09.04-.05.11.01.16.03.05.01.19-.02.23-.05.04-.03.07-.1.14-.08" style="fill: #fff;"/>
  <path d="m15.05,9.34s.06.09-.05.16c-.11.07-.32.12-.43.09-.11-.03-.1-.11-.07-.11.03,0,.2.03.31-.02.1-.05.19-.14.25-.11" style="fill: #fff;"/>
  <path d="m15.24,9.68s.09.01.07.09c-.02.08-.23.14-.34.14s-.31-.02-.33-.13c-.02-.11.1-.02.13.01.03.03.32,0,.38-.04.06-.04.03-.07.09-.08" style="fill: #fff;"/>
  <path d="m15.43,10.05s.08,0,.08.07-.18.17-.31.17-.23,0-.29-.05c-.06-.04-.06-.12-.02-.11.04,0,.13.04.27.03.14,0,.25-.08.27-.11" style="fill: #fff;"/>
  <path d="m15.25,10.55c.12,0,.23-.03.28-.07.04-.04.12,0,.13.07,0,.08-.19.13-.32.14-.12,0-.27-.02-.34-.11-.07-.08-.04-.14,0-.14s.1.1.25.11" style="fill: #fff;"/>
  <path d="m15.54,10.91s.12-.11.15,0c.02.09-.18.17-.3.16-.12,0-.37-.04-.39-.15-.03-.11.07-.09.13-.03.06.05.31.09.42.02" style="fill: #fff;"/>
  <path d="m15.35,11.32s-.14.02-.23-.05c-.09-.07-.17-.14-.18-.05,0,.1.17.18.31.2.14.02.45,0,.41-.12-.03-.1-.16.03-.31.01" style="fill: #fff;"/>
  <path d="m15.23,11.65c-.12-.03-.19-.06-.25-.1-.07-.05-.13-.04-.11.04.02.08.21.14.34.15.13,0,.32,0,.31-.11-.01-.07-.11.06-.29.01" style="fill: #fff;"/>
  <path d="m15.28,11.93s-.17.01-.28-.02c-.11-.03-.21-.09-.26-.12-.05-.03-.12.02-.02.13.1.11.43.13.51.13s.14-.04.14-.08-.05-.05-.09-.05" style="fill: #fff;"/>
  <path d="m14.83,12.22s-.16-.04-.24-.1c-.07-.06-.11-.12-.16-.1-.05.02,0,.14.13.22.13.08.18.09.28.1.1.01.23.02.24-.07.01-.09-.12-.06-.25-.06" style="fill: #fff;"/>
  <path d="m14.7,12.51s.11,0,.1.08c-.02.08-.35,0-.47-.08-.12-.07-.27-.18-.21-.27.06-.09.12.08.31.19.06.04.28.08.28.08" style="fill: #fff;"/>
  <path d="m14.43,12.72s.07,0,.07.06c0,.06-.27.03-.42-.05-.15-.08-.38-.24-.3-.33.08-.09.18.1.22.12.03.03.25.18.44.19" style="fill: #fff;"/>
  <path d="m14.1,12.93s.08.02.02.06c-.05.04-.27.02-.46-.09-.18-.11-.31-.25-.26-.33.05-.08.13,0,.16.06.03.06.17.2.29.25.12.05.24.05.24.05" style="fill: #fff;"/>
  <path d="m13.64,13.12s-.17-.09-.3-.19c-.13-.1-.18-.24-.24-.23-.06,0-.12.11-.03.21.09.1.37.27.52.3.15.03.14-.06.05-.08" style="fill: #fff;"/>
  <path d="m13.27,13.27s-.26-.12-.33-.2c-.07-.08-.17-.18-.24-.13-.07.05,0,.13.16.22.16.09.41.22.44.17.04-.05-.03-.07-.03-.07" style="fill: #fff;"/>
  <path d="m13.04,13.45s.12.04.04.07c-.08.03-.35-.03-.47-.1-.12-.06-.27-.18-.21-.26.06-.08.15.1.28.18.09.06.29.11.35.11" style="fill: #fff;"/>
  <path d="m12.89,13.68s.06,0,.05.05c0,.05-.25.03-.39,0-.14-.04-.45-.17-.37-.29.08-.12.17.1.4.18.11.04.31.07.31.07" style="fill: #fff;"/>
  <path d="m12.72,13.94s.12-.03.12,0c0,.04-.19.09-.36.07-.16-.01-.49-.11-.45-.22.03-.11.17.02.31.09.13.06.38.06.38.06" style="fill: #fff;"/>
  <path d="m10.34,14.5s.13-.02.2.04c.07.07.08.04.08-.04,0-.08.07-.21.04-.23-.02-.03-.09.04-.12.1-.03.07-.12.08-.12,0s.13-.1.09-.18c-.04-.08-.23-.39-.82-.64-.58-.24-.83-.3-.86-.19-.03.12.18.45.22.55.04.11.33.6.38.57.05-.03-.08-.17-.17-.33-.08-.16-.42-.71-.36-.76.07-.05.26-.02.52.27.26.29.59.81.91.83" style="fill: #fff;"/>
  <path d="m9.43,13.89s.28.38.41.48c.13.1.24.16.2.19-.04.03-.36-.01-.52-.33-.01.09.08.31.01.25-.06-.06-.2-.33-.24-.42-.04-.09-.1-.26-.05-.29.05-.03.13.03.19.13" style="fill: #fff;"/>
  <path d="m10.14,14.62s.1-.09.31-.05c.21.04.21.09.22.14,0,.05,0,.17-.03.14-.04-.04-.08-.17-.17-.2-.1-.03-.34,0-.33-.03" style="fill: #fff;"/>
  <path d="m11.25,15.03s-.22-.17-.38-.15c-.16.02-.03.23.05.27.07.04.19.19.2.29,0,.1-.02.22-.07.18-.04-.04-.12-.17-.16-.32-.04-.15-.08-.2-.14-.21-.06,0-.05.25.01.36.06.11,0,.49.16.64.17.15.41,0,.35-.18-.06-.18-.17-.18-.09-.2.08-.01.22,0,.24-.28.02-.29-.17-.39-.17-.39" style="fill: #fff;"/>
  <path d="m11.44,16.92s.04.09.11.09.23.02.25-.03c.02-.05.08-.2.11-.2s0,.2.04.24c.05.05.24.15.13.37-.1.22-.39.18-.39.16s.01-.06.09-.06c.08,0,.21-.17.2-.23,0-.06-.06-.06-.09-.01-.04.04-.04.1-.28.1s-.25-.24-.32-.1c-.03.08.07.16.13.19.06.03.18.06.13.11-.04.05-.41-.08-.41-.29s.2-.2.2-.27-.05-.27,0-.28c.04,0,.09.2.09.2" style="fill: #fff;"/>
  <path d="m12.52,15.25s-.11.01-.12.19c0,.18.05.21.07.18.02-.03.17-.31.19-.37.02-.06.07-.09.1-.05.03.05-.02.22-.1.34-.08.12-.02.38-.19.52-.17.15-.33.11-.32-.03,0-.14.22-.25.15-.26-.08,0-.24.03-.25-.24-.01-.27.29-.58.45-.58s.21.14.16.2c-.04.06-.14.1-.14.1" style="fill: #fff;"/>
  <path d="m14.26,14.44s.07-.06.15-.2c.07-.14.39-.54.35-.64-.04-.1-.23-.11-.57,0-.34.11-.78.23-1.05.55-.14.17-.15.24-.15.29s0,.11-.05.08c-.04-.03-.03-.11-.09-.11-.06,0,0,.13,0,.21s.03.14.06.07c.03-.07.14-.09.23-.09.09,0,.29-.07.53-.3.24-.23.66-.64.88-.72.22-.07.13.12.1.15-.02.03-.23.36-.29.46-.06.1-.13.23-.11.24" style="fill: #fff;"/>
  <path d="m14.34,14.1s.03-.21-.05-.2c-.07,0-.39.37-.47.44-.08.07-.38.31-.34.34.04.03.24.05.36-.07.12-.11.29-.34.31-.3.02.04-.09.17-.05.2.04.03.2-.24.24-.41" style="fill: #fff;"/>
  <path d="m12.92,14.77s-.05.05-.05.09c0,.05.05.03.08-.03.03-.06.17-.13.27-.1.1.03.17.08.18.03,0-.05-.1-.08-.21-.1-.11-.02-.25.07-.27.11" style="fill: #fff;"/>
  <path d="m6.61,14.82c.27-.25.54-.19.75.04.21.23.25.5-.02.75l-.67.62-.24-.26.67-.62c.1-.09.12-.19.04-.28-.09-.09-.18-.08-.28.01l-.67.62-.24-.26.67-.62Z" style="fill: #f8f8f8;"/>
  <path d="m5.32,14.54c-.06-.1-.15-.28-.19-.42l.22-.13.2.34c.13.22.34.14.51.03.17-.1.35-.24.25-.41l-.06-.1-.23.14.08.13-.21.12-.25-.43.66-.39c.11.11.22.28.28.37.25.42-.02.7-.33.88-.3.18-.68.28-.93-.14" style="fill: #f8f8f8;"/>
  <path d="m5.85,12.05l.12.37-.25.16.12.36.3-.02.12.37-1.48.06-.15-.48,1.24-.82Zm-.3.91l-.08-.24-.41.27h0s.49-.02.49-.02Z" style="fill: #f8f8f8;"/>
  <polygon points="5.84 11.91 4.43 12.03 4.4 11.68 5.17 11.21 5.17 11.21 4.36 11.28 4.33 10.95 5.74 10.82 5.77 11.17 5.05 11.64 5.05 11.64 5.81 11.57 5.84 11.91" style="fill: #f8f8f8;"/>
  <path d="m5.75,10.6l-1.4-.18.07-.52c.06-.49.43-.54.78-.5.35.05.69.2.62.68l-.07.52Zm-.24-.51c.03-.24-.17-.3-.37-.32-.2-.03-.41-.02-.44.22l-.02.13.8.11.02-.13Z" style="fill: #f8f8f8;"/>
  <path d="m6.34,8.21l-.13.36-.3-.03-.13.36.25.17-.13.36-1.21-.85.17-.47,1.48.11Zm-.79.54l.09-.24-.49-.04h0s.4.28.4.28Z" style="fill: #f8f8f8;"/>
  <polygon points="6.85 6.24 7.3 6.86 7.02 7.16 5.76 6.42 6.05 6.11 6.79 6.6 6.79 6.6 6.24 5.9 6.48 5.63 7.24 6.13 7.24 6.13 6.69 5.43 6.97 5.14 7.78 6.35 7.49 6.66 6.85 6.24 6.85 6.24" style="fill: #f8f8f8;"/>
  <rect x="7.71" y="4.69" width=".35" height="1.42" transform="translate(-1.67 5.53) rotate(-35.18)" style="fill: #f8f8f8;"/>
  <polygon points="8.3 4.31 8.81 5.3 9.3 5.05 9.44 5.32 8.64 5.73 7.99 4.47 8.3 4.31" style="fill: #f8f8f8;"/>
  <path d="m9.58,5.26l-.38-1.36.5-.14c.47-.13.67.18.76.52.1.34.09.71-.38.84l-.51.14Zm.38-.42c.23-.06.21-.27.15-.46-.05-.19-.14-.38-.37-.32l-.12.03.22.78.12-.03Z" style="fill: #f8f8f8;"/>
  <polygon points="11.1 3.5 11.19 4.61 11.73 4.57 11.76 4.87 10.86 4.94 10.75 3.52 11.1 3.5" style="fill: #f8f8f8;"/>
  <rect x="11.45" y="4.02" width="1.42" height=".35" transform="translate(7.18 16.05) rotate(-86.3)" style="fill: #f8f8f8;"/>
  <polygon points="13.66 4.03 13.1 3.91 13.04 4.22 13.52 4.32 13.46 4.62 12.97 4.51 12.87 5 12.53 4.93 12.82 3.54 13.73 3.73 13.66 4.03" style="fill: #f8f8f8;"/>
  <polygon points="14.89 4.51 14.36 4.28 14.26 4.51 14.7 4.69 14.59 4.97 14.15 4.79 14.04 5.03 14.57 5.25 14.46 5.53 13.6 5.18 14.15 3.87 15 4.23 14.89 4.51" style="fill: #f8f8f8;"/>
  <path d="m16.25,6.93l-.28-.26.14-.26-.28-.26-.25.16-.28-.26,1.26-.77.37.34-.68,1.31Zm-.18-.94l.19.17.23-.43h0s-.41.26-.41.26Z" style="fill: #f8f8f8;"/>
  <path d="m17.32,7.6c-.3.21-.56.11-.73-.14-.18-.25-.18-.52.12-.74l.75-.52.2.29-.75.52c-.11.08-.15.17-.07.27.07.11.17.1.28.03l.75-.52.2.29-.75.52Z" style="fill: #f8f8f8;"/>
  <polygon points="18.28 8.21 17.26 8.65 17.12 8.33 18.14 7.89 18.01 7.58 18.28 7.46 18.69 8.4 18.41 8.52 18.28 8.21" style="fill: #f8f8f8;"/>
  <polygon points="17.58 9.79 18.14 9.67 18.07 9.34 17.51 9.46 17.44 9.11 18.82 8.82 18.89 9.17 18.36 9.28 18.43 9.61 18.96 9.5 19.03 9.84 17.65 10.13 17.58 9.79" style="fill: #f8f8f8;"/>
  <path d="m18.38,10.34c.35,0,.73.11.72.6,0,.49-.38.58-.74.58-.35,0-.73-.11-.72-.6,0-.49.38-.58.74-.58m0,.81c.2,0,.43-.02.43-.22,0-.2-.22-.22-.42-.23-.2,0-.43.02-.43.22,0,.2.22.23.42.23" style="fill: #f8f8f8;"/>
  <path d="m18.01,12.28l.03-.12-.49-.11.08-.34,1.38.32-.13.54c-.07.29-.3.42-.56.36-.17-.04-.29-.15-.32-.31l-.62.16.08-.36.55-.14Zm.62.02l-.3-.07-.03.12c-.03.11-.02.19.11.22.11.02.17-.02.19-.11l.04-.15Z" style="fill: #f8f8f8;"/>
  <rect x="17.72" y="12.63" width=".35" height="1.42" transform="translate(-1.18 24.92) rotate(-67.97)" style="fill: #f8f8f8;"/>
  <polygon points="17.73 14.56 16.77 13.99 16.94 13.69 17.9 14.25 18.08 13.96 18.34 14.11 17.82 15 17.56 14.85 17.73 14.56" style="fill: #f8f8f8;"/>
  <polygon points="16.8 15.4 17.06 15.92 16.81 16.2 16.39 15.26 16.03 14.94 16.27 14.68 16.63 15 17.61 15.3 17.34 15.6 16.8 15.4 16.8 15.4" style="fill: #f8f8f8;"/>
  <path d="m7.24,29.99c0,1.52-.92,2.13-2.19,2.13s-2.19-.61-2.19-2.13v-3.75h1.44v3.75c0,.55.21.89.75.89s.75-.33.75-.89v-3.75h1.44v3.75Z" style="fill: #558618;"/>
  <polygon points="11.55 28.98 10.99 32.08 9.31 32.08 7.96 26.24 9.71 26.24 10.33 29.83 10.35 29.83 10.88 26.19 12.35 26.19 12.99 29.83 13.01 29.83 13.55 26.24 15.18 26.24 13.86 32.08 12.14 32.08 11.57 28.98 11.55 28.98" style="fill: #558618;"/>
  <path d="m20.44,32.03h-1.58l-.31-1.19h-1.54l-.3,1.19h-1.58l1.61-5.84h2.06l1.63,5.84Zm-3.18-2.3h1.04l-.52-1.94h0l-.51,1.94Z" style="fill: #558618;"/>
  <path d="m7.21,18.23c-.11-.1-.27-.25-.49-.3-.33-.08-.53-.26-.76-.47-.22-.21-.95-.64-1.26-.75-.31-.11-.7-.16-1-.5-.29-.33.17-1.15.27-1.52.1-.37-.25-.52-.42-.56-.17-.03-.72.02-.71-.24-.02-.41.49-.58.54-.58.05,0,.04-.28-.01-.32-.05-.04-.07.17-.28.24-.21.07-.52.36-.5.66.02.4.37.46.37.46.27.11.47.03.58.12.1.09.04.25-.16.62-.2.38-.29.92-.28.98,0,.06-.08-.12-.09-.23-.04-.33-.03-.75-.1-.77-.07-.02-.23,0-.28.42-.02.19-.04.52.11.92.2.52.51.75.63.84.08.07.12.13.2.2.08.07.3.23.27.28-.03.05-.31-.18-.42-.13-.11.05,0,.25.08.45.07.19.17.29.28.35.1.06.16.12.22.23.07.11.11.11.15.03.06-.14.21-.19.35-.24.1-.03.15-.14.26-.27.12-.15.35-.17.47-.19.12-.02.14.02.12.04-.02.02-.23.06-.37.12-.13.06-.24.23-.29.32-.05.09-.25.1-.38.21-.14.11-.14.35-.14.54,0,.18.04.35.17.39.13.05.29.16.36.26.07.1.31.06.46-.06.15-.13.31-.08.35-.05.04.03.13.03.19,0,.06-.04.21.01.28.05.08.04.16.05.24,0,.06-.03.24-.1.38-.17.14-.07.28-.15.55-.19.09-.03.05-.35.07-.56.02-.22.12-.36.11-.46-.02-.1-.07-.13-.12-.18m-3.7-1.02s-.42-.29-.58-.6c-.15-.29-.26-.77-.23-1.1.03-.33.13-.32.13-.32.05.01.04.21.06.46.01.2.06.43.14.6.18.4.57.6.66.71.09.1-.14.23-.18.26m1.24.2s-.08-.03-.08-.07c0-.04.03-.08.07-.08.04,0,.08.03.08.07,0,.04-.03.08-.07.08"/>
  <path d="m11.59,22.16c-.09-.3-.26-.73-.32-1.22-.06-.49-.09-1.01-.6-1.49-.5-.48-.87-.69-1.3-.81-.43-.12-.76-.01-.91,0-.15,0-.4.09-.83-.06,0,0-.15-.1-.18-.08-.04.03-.14.29-.14.5,0,.45,0,.5-.12.54-.08.02-.32.04-.56.19-.25.15-.43.22-.54.22-.11,0-.19-.07-.29-.09-.1-.02-.16.06-.24.04-.08-.02-.18-.13-.43.06-.12.09-.05.12-.03.17.03.04.11.13.01.62-.1.49-.33,1.28-.7,1.98-.37.7-.55,1.16-.57,1.6-.01.06-.28.26-.23.42.05.16.78.06.83.04.06-.03.17-.13.12-.24-.04-.11-.14-.27-.07-.4.06-.12.11-.34.24-.5.13-.16.94-.97,1.36-1.94.55.29,1.09.63,1.37.73.28.1.81.03.84.05.03.02.08.12.08.26,0,.14.03.3.18.46.15.16.65.71.69.88.04.16.12.37.16.44.03.07.06.34.03.39-.04.05-.21.26-.17.37.03.11.14.09.35.1.21.01.66.02.69-.16.03-.17.05-.49-.07-.74-.12-.25-.46-.82-.36-1.19.1-.37.2-.55.36-.71.16-.16.42-.41.53-.7.1-.29.19-.5.22-.49.02.02.14.1.37.62.13.27.16.36.12.45-.04.09-.13.24-.13.3,0,.06-.01.15.07.12.06-.15.17-.31.17-.31,0,0,.19.34.22.4.03.07-.04.14-.07.17-.04.04-.09.1-.06.14.03.04.13.15.27.31.14.16.21.28.25.27.04-.01.84-.75.85-.85.02-.1-.06-.33-.18-.43-.12-.1-.35-.37-.44-.53-.13-.23-.19-.55-.21-.58-.02-.04-.1.12-.18.24-.07.12-.14.22-.12.39.02.17.02.74-.02.73-.04,0-.22-.42-.22-.45"/>
  <path d="m6.3,21.93s.02.1.03.18c.03.18.27,1.19.32,1.44.06.25.23.89.17,1-.06.11-.2.25-.15.32.04.06.16.07.54.05.17-.02.45.02.47-.1.01-.12-.16-.39-.24-.86-.08-.47-.11-.79-.04-1.16.05-.24.05-.23-.01-.27-.07-.04-.59-.29-.81-.43-.23-.14-.27-.17-.27-.17"/>
  <path d="m11.1,21.74s-.07-.13-.09-.14c-.02,0-.08.12-.1.21-.03.09-.09.35-.27.54-.17.19-.47.45-.47.59,0,.13.07.17.24.35.17.18.4.45.71.64.3.19.43.31.57.51.1.13.14.23.14.39,0,.16.05.45.23.46.17,0,.31-.09.38-.25.07-.16.3-.41.23-.6-.06-.19-.21-.17-.28-.18-.07-.01-.2-.16-.28-.27-.08-.11-.33-.43-.49-.59-.15-.16-.33-.43-.33-.48,0-.05-.03-.33-.03-.59,0-.26,0-.27-.04-.37-.04-.09-.12-.23-.12-.23"/>
  <path d="m11.04,24s.42.24.52.42c0,.03-.14.12-.15.24-.01.11,0,.51-.22.61-.22.11-.37-.07-.43-.2-.06-.14-.33-.51-.27-.64.06-.13.13-.16.24-.18.1-.02.17-.03.23-.14.07-.11.06-.11.08-.1"/>
  <path d="m15.92,18.38c-.02.1.09.24.1.46.01.22-.03.53.06.56.27.05.41.12.55.2.14.07.32.15.38.18.09.05.16.04.24,0,.07-.03.22-.08.28-.04.06.04.15.04.19.01.05-.03.21-.07.35.06.15.13.39.17.46.07.07-.1.23-.21.36-.25.14-.04.17-.21.18-.39.01-.18,0-.43-.13-.54-.13-.11-.34-.12-.38-.21-.05-.09-.15-.27-.28-.33-.13-.06-.34-.1-.36-.12-.02-.02,0-.06.12-.04.13.02.35.04.47.2.11.14.15.24.25.28.15.05.29.1.35.24.03.08.08.08.15-.03.07-.11.12-.17.23-.23.1-.06.21-.15.28-.35.07-.19.19-.4.09-.45-.1-.05-.39.17-.42.12-.03-.05.19-.2.27-.27.08-.07.12-.13.21-.2.12-.1.43-.32.64-.83.16-.39.15-.72.13-.91-.04-.43-.2-.45-.27-.42-.07.02-.07.44-.11.77-.01.11-.1.3-.1.23,0-.06-.07-.6-.27-.98-.2-.38-.26-.54-.15-.63.11-.09.31,0,.58-.12,0,0,.35-.06.38-.45.02-.3-.28-.6-.49-.67-.21-.08-.23-.28-.28-.24-.05.03-.07.31-.02.32.05,0,.55.18.53.59,0,.26-.55.2-.71.23-.17.03-.52.17-.43.55.09.37.54,1.2.25,1.53-.3.33-.69.37-1.01.48-.31.11-1.05.53-1.27.73-.23.2-.43.38-.76.45-.22.05-.38.19-.5.29-.06.05-.11.07-.13.18m3.84-1.14s-.27-.16-.18-.26c.1-.1.49-.3.67-.7.08-.18.13-.4.15-.6.02-.24,0-.44.06-.45,0,0,.1,0,.13.33.03.33-.09.8-.24,1.1-.17.3-.56.62-.59.59m-1.32.1s.04-.07.08-.07c.04,0,.08.04.07.08,0,.04-.04.08-.08.07-.04,0-.07-.04-.07-.08"/>
  <path d="m11.6,22.47s.11.12.07.03c-.04-.09.03-.32.16-.59.23-.51.35-.59.38-.61.03-.02.11.2.21.49.1.29.36.55.51.71.16.16.25.35.35.72.09.37-.26.94-.38,1.18-.12.25-.11.56-.08.73.03.17.47.17.68.17.21,0,.31.02.35-.1.04-.11-.13-.32-.16-.37-.04-.05,0-.32.03-.39.04-.07.12-.27.16-.44.05-.16.55-.71.71-.86.16-.16.19-.32.19-.46,0-.14.05-.24.09-.26.03-.02.56.06.84-.04.29-.09.83-.42,1.38-.71.4.98,1.2,1.8,1.33,1.97.13.16.17.38.23.5.06.12-.03.29-.08.4-.04.1.06.21.12.24.06.03.78.14.84-.02.05-.16-.22-.36-.23-.43-.01-.44-.18-.9-.54-1.6-.36-.71-.58-1.5-.67-1.99-.09-.5,0-.58.02-.62.03-.04.09-.07-.02-.17-.25-.19-.35-.08-.43-.06-.08.02-.14-.06-.24-.04-.1.02-.18.08-.29.08-.11,0-.29-.08-.54-.23-.24-.15-.47-.17-.55-.2-.12-.04-.11-.09-.11-.54,0-.21-.09-.47-.13-.5-.04-.03-.19.07-.19.07-.43.14-.64.15-.8.15-.15,0-.5-.15-.93-.04-.43.11-.78.35-1.29.82-.51.48-.59.89-.65,1.38-.07.49-.24.92-.33,1.22-.07.23,0,.41,0,.41"/>
  <path d="m16.9,21.91s-.02.1-.03.18c-.03.17-.28,1.19-.35,1.44-.06.25-.25.88-.19,1,.06.12.19.26.15.32-.04.06-.16.07-.54.04-.17-.02-.45.02-.47-.11-.01-.12.17-.39.25-.86.08-.47.12-.79.06-1.16-.05-.24-.05-.23.02-.27.07-.03.59-.28.82-.42.23-.14.27-.16.27-.16"/>
  <path d="m18.1,34.28c-.05.05-.1.13-.16.22-.06.09-.12.18-.19.27-.07.09-.13.17-.19.23-.06.06-.11.1-.15.1-.02,0-.03,0-.03-.02,0-.01-.01-.02-.01-.04,0-.09.03-.19.09-.31.06-.12.14-.22.25-.31.1-.09.22-.14.35-.14,0,0,.02,0,.02,0,0,0,.01,0,.01,0m.43-.03s-.04-.02-.12-.06c-.08-.03-.2-.06-.36-.06-.25,0-.46.06-.65.17-.19.11-.33.24-.43.41-.1.16-.16.32-.16.49,0,.09.03.16.07.21.05.05.11.07.19.07.11,0,.2-.03.29-.07.09-.05.16-.1.23-.16-.06.14-.11.28-.18.4-.06.13-.14.23-.22.31-.08.08-.19.12-.31.12-.07,0-.11-.03-.14-.07-.03-.04-.04-.08-.04-.11,0,0-.02,0-.06.02-.04.01-.08.03-.12.06-.04.03-.06.06-.06.1,0,.05.04.1.1.13.07.04.16.05.27.06.27,0,.49-.07.66-.19.17-.12.31-.28.41-.48.1-.19.19-.39.27-.6.05-.14.11-.28.17-.41.06-.13.11-.24.17-.32m-2.07,1.36c.03-.16.08-.31.15-.45.07-.14.14-.28.2-.41.06-.13.1-.26.1-.38,0-.07-.02-.13-.06-.17-.04-.04-.1-.06-.18-.06-.1,0-.21.03-.31.08-.1.05-.19.11-.27.18,0,0,0-.01,0-.03,0-.02,0-.04,0-.05,0-.07-.03-.11-.07-.14-.04-.03-.1-.05-.16-.06-.06,0-.12-.01-.17-.01-.04.15-.11.29-.19.42-.08.13-.16.25-.22.37-.07.11-.1.22-.11.32,0,.08.03.14.1.19.06.05.14.07.24.07.07-.18.16-.34.26-.5.11-.16.21-.29.31-.39.1-.1.18-.15.23-.16.01,0,.02,0,.03.02,0,.01.01.02.01.04,0,.06-.03.14-.08.22-.05.09-.11.18-.16.27-.05.1-.08.19-.08.27,0,.11.04.19.11.25.07.06.17.09.28.09m-1.52-1.45c-.05.11-.11.23-.19.36-.08.13-.15.26-.21.38-.06.13-.09.24-.1.34,0,.1.04.19.12.25.08.07.17.1.28.1,0-.13.02-.25.07-.36.05-.11.1-.21.17-.31.07-.1.12-.19.17-.27.05-.08.08-.17.08-.24,0-.07-.02-.13-.06-.17-.04-.03-.09-.06-.14-.07-.05,0-.1-.01-.14-.01h-.06Zm.71-.4c0-.07-.03-.12-.07-.16-.05-.03-.11-.05-.18-.05-.08,0-.14.02-.19.07-.05.04-.08.1-.08.17,0,.07.03.13.07.16.05.03.11.05.18.05.08,0,.14-.02.19-.07.05-.04.07-.1.08-.17m-1.65.43s-.02-.01-.07-.03c-.04-.02-.1-.03-.17-.03-.07,0-.14.02-.21.05-.06.03-.12.09-.16.16-.05.08-.1.17-.14.28-.04.1-.08.21-.11.31-.03.11-.04.21-.04.3,0,.07.02.14.05.18.04.05.1.07.18.07.16,0,.31-.05.46-.14.15-.09.29-.2.41-.33s.22-.26.3-.38c.07-.13.11-.23.11-.31,0-.06-.02-.11-.06-.15-.04-.04-.1-.07-.19-.09-.03.09-.07.19-.12.31-.05.12-.11.24-.18.36-.07.12-.14.22-.21.3-.07.08-.14.12-.21.12-.02,0-.03,0-.04-.01,0,0-.01-.03-.01-.05,0-.07.02-.16.06-.27.04-.11.09-.22.15-.33.06-.12.12-.23.19-.33m-1.89,1.33c.05-.16.12-.32.22-.48.1-.15.2-.28.3-.38.1-.1.19-.15.26-.15.04,0,.07.02.09.04.02.03.04.05.05.08.01.03.02.04.02.04,0,0,.02-.01.06-.03.04-.02.08-.06.12-.11.04-.05.06-.11.06-.19,0-.06-.02-.11-.06-.14-.04-.04-.09-.05-.17-.05-.09,0-.17.03-.25.1-.08.06-.15.13-.22.21,0-.02,0-.04.01-.06,0-.02,0-.04,0-.05,0-.07-.02-.12-.07-.15-.04-.03-.1-.05-.16-.06-.06-.01-.12-.02-.17-.01-.05.15-.11.3-.18.44-.07.14-.14.27-.19.38-.06.12-.09.22-.09.31,0,.09.04.16.1.21.07.05.15.07.25.07m-1.04-.61c.15-.02.29-.05.42-.11.13-.06.24-.13.32-.21.08-.08.12-.17.13-.27,0-.05-.02-.1-.07-.13-.04-.03-.11-.05-.19-.05-.13,0-.27.03-.41.09-.14.06-.28.14-.41.24-.13.1-.23.21-.31.34-.08.12-.12.25-.12.38,0,.09.03.17.09.22.06.06.16.08.28.08.14,0,.28-.02.41-.06.13-.04.23-.1.31-.17.08-.07.12-.15.12-.23,0-.05-.02-.09-.06-.12-.03-.03-.05-.04-.06-.04-.04.07-.09.13-.14.2-.06.07-.12.12-.18.17-.06.05-.12.07-.18.07-.02,0-.04,0-.05-.02,0-.01-.01-.04-.01-.06,0-.05,0-.1.02-.15.02-.05.04-.11.07-.17m.09-.16c.07-.12.15-.22.24-.31.09-.09.17-.13.23-.14.01,0,.02,0,.03.01,0,0,0,.02,0,.03,0,.06-.03.12-.08.17-.05.05-.12.1-.19.14-.08.04-.16.07-.24.08m-1.54.76c.2,0,.36-.05.49-.14.13-.09.19-.19.2-.32,0-.09-.03-.17-.06-.25-.04-.07-.06-.16-.06-.25,0-.08.02-.14.05-.19.03-.05.08-.08.14-.08.04,0,.08.02.11.04.03.02.05.05.06.07.01.02.02.04.02.04,0,0,.01,0,.04-.01.02,0,.05-.02.07-.05.02-.02.04-.06.04-.11,0-.04-.02-.08-.07-.11-.05-.03-.12-.05-.22-.05-.14,0-.26.03-.37.07-.11.05-.2.11-.27.19-.07.08-.1.16-.1.25,0,.07.01.13.04.19.02.06.05.11.07.16.02.05.04.1.04.15,0,.07-.02.12-.05.16-.03.03-.07.05-.12.05-.05,0-.08-.01-.11-.04-.03-.02-.05-.05-.06-.07-.01-.02-.02-.04-.02-.04,0,0-.01,0-.04.01-.02,0-.05.03-.07.05-.02.02-.04.06-.04.11,0,.04.02.08.07.11.05.03.12.05.23.05m-.53.11c.03-.16.08-.31.15-.45.07-.14.14-.28.2-.41.06-.13.1-.26.1-.38,0-.07-.02-.13-.06-.17-.04-.04-.1-.06-.18-.06-.1,0-.21.03-.31.08-.1.05-.19.11-.27.18,0,0,0-.01,0-.03,0-.02,0-.04,0-.05,0-.07-.03-.11-.07-.14-.04-.03-.1-.05-.16-.06-.06,0-.12-.01-.17-.01-.04.15-.11.29-.19.42-.08.13-.16.25-.22.37-.07.11-.1.22-.11.32,0,.08.03.14.1.19.06.05.14.07.24.07.07-.18.16-.34.26-.5.11-.16.21-.29.31-.39.1-.1.18-.15.23-.16.01,0,.02,0,.03.02,0,.01.01.02.01.04,0,.06-.03.14-.08.22-.05.09-.11.18-.16.27-.05.1-.08.19-.08.27,0,.11.04.19.11.25.07.06.17.09.28.09m-1.5-1.29s.04,0,.05.02c.01.02.02.04.02.07,0,.1-.03.21-.09.33-.06.12-.13.23-.22.32-.09.09-.18.14-.26.15-.02,0-.04,0-.06-.02-.02-.02-.02-.04-.02-.07,0-.11.04-.23.11-.35.07-.12.15-.22.24-.31.09-.08.17-.13.24-.13m.37.09c0-.1-.03-.17-.1-.21-.07-.04-.16-.07-.27-.07-.18,0-.36.06-.53.15-.17.1-.31.23-.42.38-.11.16-.17.32-.17.5,0,.1.03.18.1.24.07.06.17.09.3.09.16,0,.31-.04.44-.12.13-.07.25-.17.35-.29.1-.12.17-.23.23-.36.05-.12.08-.23.08-.34m-1.6.22c-.06.12-.13.23-.21.33-.08.1-.16.18-.25.24-.09.06-.17.09-.25.09-.04,0-.07-.02-.1-.05-.02-.04-.04-.09-.04-.17,0-.15.03-.31.09-.48.06-.17.13-.34.23-.49s.21-.28.33-.38c.12-.1.25-.15.38-.15.08,0,.13.02.17.05.04.03.07.07.08.1.01.03.02.05.02.05,0,0,.02,0,.06-.02.03-.01.07-.03.1-.06.03-.03.05-.08.06-.14,0-.06-.03-.12-.1-.16-.07-.04-.17-.06-.32-.06-.21,0-.41.05-.61.14-.2.09-.38.21-.54.36-.16.15-.29.33-.39.52-.1.19-.15.4-.15.61,0,.17.06.3.16.4.11.1.27.15.47.16.17,0,.32-.03.45-.1.14-.06.25-.15.33-.25.08-.1.12-.21.13-.32,0-.08-.03-.13-.06-.17-.04-.03-.06-.05-.06-.05" style="fill: #558618;"/>
  <path d="m20.37,38.69c.2,0,.36-.05.49-.14.13-.09.19-.19.2-.32,0-.09-.03-.17-.06-.25-.04-.07-.06-.16-.06-.25,0-.08.02-.14.05-.19.03-.05.08-.08.14-.08.04,0,.08.02.11.04.03.02.05.05.06.07.01.02.02.04.02.04,0,0,.01,0,.04-.01.02,0,.05-.02.07-.05.02-.02.04-.06.04-.11,0-.04-.02-.08-.07-.11-.05-.03-.12-.05-.22-.05-.14,0-.26.03-.37.07-.11.05-.2.11-.27.19-.07.08-.1.16-.1.25,0,.07.01.13.04.19.02.06.05.11.07.16.02.05.04.1.04.15,0,.07-.02.12-.05.16-.03.03-.07.05-.12.05-.05,0-.08-.01-.11-.04-.03-.02-.05-.05-.06-.07-.01-.02-.02-.04-.02-.04,0,0-.01,0-.04.01-.02,0-.05.03-.07.05-.02.02-.04.06-.04.11,0,.04.02.08.07.11.05.03.12.05.23.05m-.53.11c.03-.16.08-.31.15-.45.07-.14.14-.28.2-.41.06-.13.1-.26.1-.38,0-.07-.02-.13-.06-.17-.04-.04-.1-.06-.18-.06-.1,0-.21.03-.31.08-.1.05-.19.11-.27.18,0,0,0-.01,0-.03,0-.02,0-.04,0-.05,0-.07-.03-.11-.07-.14-.04-.03-.1-.05-.16-.06-.06,0-.12-.01-.17-.01-.04.15-.11.29-.19.42-.08.13-.16.25-.22.37-.07.11-.1.22-.11.32,0,.08.03.14.1.19.06.05.14.07.24.07.07-.18.16-.34.26-.5.11-.16.21-.29.31-.39.1-.1.18-.15.23-.16.01,0,.02,0,.03.02,0,.01.01.02.01.04,0,.06-.03.14-.08.22-.05.09-.11.18-.16.27-.05.1-.08.19-.08.27,0,.11.04.19.11.25.07.06.17.09.28.09m-1.5-1.29s.04,0,.05.02c.01.02.02.04.02.07,0,.1-.03.21-.09.33-.06.12-.13.23-.22.32-.09.09-.18.14-.26.15-.02,0-.04,0-.06-.02-.02-.02-.02-.04-.02-.07,0-.11.04-.23.11-.35.07-.12.15-.22.24-.31.09-.08.17-.13.24-.13m.37.09c0-.1-.03-.17-.1-.21-.07-.04-.16-.07-.27-.07-.18,0-.36.06-.53.15-.17.1-.31.23-.42.38-.11.16-.17.32-.17.5,0,.1.03.18.1.24.07.06.17.09.3.09.16,0,.31-.04.44-.12.13-.07.25-.17.35-.29.1-.11.17-.23.23-.36.05-.12.08-.23.08-.34m-1.77-.25c-.05.11-.11.23-.19.36-.08.13-.15.26-.21.38-.06.13-.09.24-.1.34,0,.1.04.19.12.25.08.07.17.1.28.1,0-.13.02-.25.07-.36.05-.11.1-.21.17-.31.07-.1.12-.19.17-.27.05-.08.08-.17.08-.24,0-.07-.02-.13-.06-.17-.04-.03-.09-.06-.14-.07-.05,0-.1-.01-.14-.01h-.06Zm.71-.4c0-.07-.03-.12-.07-.16-.05-.03-.11-.05-.18-.05-.08,0-.14.02-.19.07-.05.04-.08.1-.08.17,0,.07.03.13.07.16.05.03.11.05.18.05.08,0,.14-.02.19-.07.05-.04.07-.1.08-.17m-1.12.42c.05-.07.1-.13.15-.2.05-.06.1-.11.14-.14,0,0-.02-.01-.06-.03-.04-.02-.11-.03-.19-.03-.07,0-.13,0-.19.03-.06.02-.1.05-.14.09-.04.04-.08.09-.12.14-.04.05-.08.1-.11.15h-.12c-.08,0-.13.02-.16.06-.03.04-.05.07-.05.1h.23c-.08.14-.14.28-.2.42-.06.14-.08.27-.09.38,0,.13.05.23.14.29.09.06.19.09.29.09,0-.11,0-.23.04-.37.03-.14.08-.28.14-.42.06-.14.12-.27.19-.39h.21c.08,0,.13-.02.16-.06.03-.04.05-.07.05-.1h-.31Zm-1.76.98c0,.12.04.21.11.28.07.07.18.11.32.11,0-.26.06-.5.14-.72.09-.21.18-.41.29-.6,0,0-.04-.03-.12-.06-.08-.04-.2-.06-.36-.06-.25,0-.46.06-.65.17-.19.11-.34.25-.45.42-.11.16-.17.33-.17.49,0,.09.02.16.07.21.04.05.11.07.2.07.13,0,.25-.04.36-.11.11-.07.19-.14.26-.22h0Zm.43-.89c-.05.06-.1.13-.17.22-.06.09-.13.19-.19.28-.07.1-.13.18-.19.24-.06.07-.11.1-.16.1-.01,0-.03,0-.03-.02,0-.01-.01-.03-.01-.05,0-.09.03-.19.1-.32.06-.12.15-.23.26-.32.11-.09.23-.14.36-.15,0,0,.02,0,.02,0,0,0,.01,0,.01,0m-2.28,1.25c.05-.16.12-.32.22-.48.1-.15.2-.28.3-.38.1-.1.19-.15.26-.15.04,0,.07.02.09.04.02.03.04.05.05.08.01.03.02.04.02.04,0,0,.02-.01.06-.03.04-.02.08-.06.12-.11.04-.05.06-.11.06-.19,0-.06-.02-.11-.06-.14-.04-.04-.09-.05-.17-.05-.09,0-.17.03-.25.1-.08.06-.15.13-.22.21,0-.02,0-.04.01-.06,0-.02,0-.04,0-.05,0-.07-.02-.11-.07-.15-.04-.03-.1-.05-.16-.06-.06-.01-.12-.02-.17-.01-.05.15-.11.3-.18.44s-.14.27-.19.38c-.06.12-.09.22-.09.31,0,.09.04.16.1.21.07.05.15.07.25.07m-1.04-.61c.15-.02.29-.05.42-.11.13-.06.24-.13.32-.21.08-.08.12-.17.13-.27,0-.05-.02-.1-.07-.13-.04-.03-.11-.05-.19-.05-.13,0-.27.03-.41.09-.14.06-.28.14-.41.24-.13.1-.23.21-.31.34-.08.12-.12.25-.12.38,0,.09.03.17.09.22.06.06.16.08.28.08.14,0,.28-.02.41-.06.13-.04.23-.1.31-.17.08-.07.12-.15.12-.23,0-.05-.02-.09-.06-.12-.03-.03-.05-.04-.06-.04-.04.07-.09.13-.14.2-.06.07-.12.12-.18.17-.06.05-.12.07-.18.07-.02,0-.04,0-.05-.02,0-.01-.01-.04-.01-.06,0-.05,0-.1.02-.15.02-.05.04-.11.07-.17m.09-.16c.07-.12.15-.22.24-.31.09-.09.16-.13.23-.14.01,0,.02,0,.03.01,0,0,0,.02,0,.03,0,.06-.03.12-.08.17-.05.05-.12.1-.19.14-.08.04-.16.07-.24.08m-1.08.87c.03-.16.08-.31.15-.45.07-.14.14-.28.2-.41.06-.13.1-.26.1-.38,0-.07-.02-.13-.06-.17-.04-.04-.1-.06-.18-.06-.1,0-.21.03-.31.08-.1.05-.19.11-.27.18,0,0,0-.01,0-.03,0-.02,0-.04,0-.05,0-.07-.03-.11-.07-.14-.04-.03-.1-.05-.16-.06-.06,0-.12-.01-.17-.01-.04.15-.11.29-.19.42-.08.13-.16.25-.22.37-.07.11-.1.22-.11.32,0,.08.03.14.1.19.06.05.14.07.24.07.07-.18.16-.34.26-.5.11-.16.21-.29.31-.39.1-.1.18-.15.23-.16.01,0,.02,0,.03.02,0,.01.01.02.01.04,0,.06-.03.14-.08.22-.05.09-.11.18-.16.27-.05.1-.08.19-.08.27,0,.11.04.19.11.25.07.06.17.09.28.09m-1.94-.7c.15-.02.29-.05.42-.11.13-.06.24-.13.32-.21.08-.08.12-.17.13-.27,0-.05-.02-.1-.07-.13-.04-.03-.11-.05-.19-.05-.13,0-.27.03-.41.09-.14.06-.28.14-.41.24-.13.1-.23.21-.31.34-.08.12-.12.25-.12.38,0,.09.03.17.09.22.06.06.16.08.28.08.14,0,.28-.02.41-.06.13-.04.23-.1.31-.17.08-.07.12-.15.12-.23,0-.05-.02-.09-.06-.12-.03-.03-.05-.04-.06-.04-.04.07-.09.13-.14.2-.06.07-.12.12-.18.17-.06.05-.12.07-.18.07-.02,0-.04,0-.05-.02,0-.01-.01-.04-.01-.06,0-.05,0-.1.02-.15.02-.05.04-.11.07-.17m.09-.16c.07-.12.15-.22.24-.31.09-.09.17-.13.23-.14.01,0,.02,0,.03.01,0,0,0,.02,0,.03,0,.06-.03.12-.08.17-.05.05-.12.1-.19.14-.08.04-.16.07-.24.08m-.98.91c0-.16.04-.3.09-.42.05-.12.11-.22.16-.32.05-.09.08-.19.09-.29,0-.07-.03-.13-.07-.16-.05-.04-.1-.06-.17-.07-.07-.01-.13-.02-.19-.01,0,.1-.04.21-.1.33-.07.13-.15.24-.25.34-.1.1-.21.15-.32.15-.04,0-.07-.01-.09-.04-.03-.03-.04-.07-.04-.14,0-.15.04-.31.11-.48.07-.17.16-.34.28-.49.11-.16.24-.28.38-.38.14-.1.27-.15.4-.15.08,0,.13.02.17.06.04.03.07.07.08.1.01.03.02.05.02.06,0,0,.02,0,.06-.01.03-.01.07-.03.11-.06.04-.03.05-.08.06-.14,0-.07-.03-.12-.1-.16-.07-.04-.17-.06-.32-.06-.21,0-.42.05-.63.13-.21.09-.41.2-.59.35-.18.15-.33.32-.44.51-.11.19-.17.39-.17.6,0,.16.06.29.16.39.11.1.25.15.44.16.1,0,.19-.02.27-.04.08-.03.14-.06.2-.1,0,0,0,0,0,.02,0,.02,0,.03,0,.04,0,.09.04.16.11.21.07.05.18.07.32.08m-3.47-.14c.05-.16.12-.32.22-.48.1-.15.2-.28.3-.38.1-.1.19-.15.26-.15.04,0,.07.02.09.04.02.03.04.05.05.08.01.03.02.04.02.04,0,0,.02-.01.06-.03.04-.02.08-.06.12-.11.04-.05.06-.11.06-.19,0-.06-.02-.11-.06-.14-.04-.04-.09-.05-.17-.05-.09,0-.17.03-.25.1-.08.06-.15.13-.22.21,0-.02,0-.04.01-.06,0-.02,0-.04,0-.05,0-.07-.02-.11-.07-.15-.04-.03-.1-.05-.16-.06-.06-.01-.12-.02-.17-.01-.05.15-.11.3-.18.44-.07.14-.14.27-.19.38-.06.12-.09.22-.09.31,0,.09.04.16.1.21.07.05.15.07.25.07m-.6-1.2s.04,0,.05.02c.01.02.02.04.02.07,0,.1-.03.21-.09.33-.06.12-.13.23-.22.32-.09.09-.18.14-.27.15-.02,0-.04,0-.06-.02-.02-.02-.02-.04-.02-.07,0-.11.04-.23.11-.35.07-.12.15-.22.24-.31.09-.08.17-.13.24-.13m.37.09c0-.1-.03-.17-.1-.21-.07-.04-.16-.07-.27-.07-.18,0-.36.06-.53.15-.17.1-.31.23-.42.38-.11.16-.17.32-.17.5,0,.1.03.18.1.24.07.06.17.09.3.09.16,0,.31-.04.44-.12.13-.07.25-.17.35-.29.1-.11.17-.23.23-.36.05-.12.08-.23.08-.34m-1.2-.06c.07,0,.13-.02.16-.06.03-.04.05-.07.05-.1h-.43c.04-.08.09-.16.15-.27.06-.1.14-.19.22-.27.08-.08.16-.12.25-.13.04,0,.07.01.09.03.02.02.04.04.05.06,0,.02.01.03.01.03,0,0,.01,0,.04-.01.02,0,.05-.02.07-.05.02-.02.04-.06.04-.1,0-.04-.02-.08-.07-.1-.05-.03-.12-.04-.22-.04-.21,0-.38.04-.52.12-.14.08-.26.19-.36.31-.1.13-.18.26-.26.41h-.11c-.08,0-.13.02-.16.06-.03.04-.05.07-.05.1h.25c-.08.17-.15.35-.22.54-.07.19-.13.37-.18.55-.05.18-.07.33-.07.45,0,.13.04.22.09.28.05.06.1.09.15.1.06-.2.14-.41.22-.63.08-.22.17-.44.26-.66.09-.22.18-.43.27-.62h.29Z" style="fill: #558618;"/>
  <rect x="1.13" y=".31" width="21.08" height="40.04" style="fill: none;"/>
</svg>