<?xml version="1.0" encoding="UTF-8"?>
<svg id="Layer_1" xmlns="http://www.w3.org/2000/svg" viewBox="0 0 206.86 70.11">
  <defs>
    <style>
      .cls-1 {
        fill: #fff;
      }

      .cls-2 {
        fill: #e0b873;
      }
    </style>
  </defs>
  <path class="cls-1" d="M96.5,40.05c-3.34,10.85-13.44,18.73-25.39,18.73-14.67,0-26.56-11.89-26.56-26.56,0-5.51,1.68-10.64,4.55-14.88-.63,2.28-.97,4.67-.97,7.15,0,14.74,11.95,26.69,26.69,26.69,8.93,0,16.84-4.39,21.68-11.13Z"/>
  <g>
    <path class="cls-1" d="M144.43,57.89c-8.95-7.79-17.86-15.54-26.79-23.3v22.21h-6.4V20.6c8.97,8.16,17.75,16.14,26.75,24.33v-22.48h6.44v35.44Z"/>
    <path class="cls-1" d="M35.37,56.02H12.65V22h6.18v29.34c3.96,0,10.24.01,14.74,0,.46,1.63,1.06,3.19,1.8,4.68Z"/>
  </g>
  <path class="cls-2" d="M176.63,57.32c.05.09.05.17,0,.25-.06.11-.08.22-.05.32h-21.26l9.11-16.58c.17.18.31.39.45.6.47.8,1.17,1.34,2,1.73.26.12.53.15.8.03.42-.21.86-.25,1.3-.1.21.07.39.05.6-.03.47-.19.94-.36,1.41-.52.27-.09.52-.04.74.15.09.08.17.16.26.24.21.19.45.29.74.29.17,0,.34-.02.51-.01.17.01.33.06.4.23.05.14.07.27.05.42-.06.31-.13.63-.23.94-.11.35-.05.68.19.96.17.21.38.39.56.6,0,0,0,.03.01.03.26.34.45.69.56,1.1.1.4.19.79.3,1.17.1.35.05.67-.16.96-.12.16-.21.35-.29.53-.18.33-.27.69-.26,1.07.02.28.1.54.25.79.06.13.14.24.23.36.33.46.52.99.54,1.56.02.53.15,1.02.42,1.48.29.48.58.95.83,1.45Z"/>
  <path class="cls-2" d="M180.07,33.32c-.1-.04-.2-.06-.29-.07-.41-.04-.8-.14-1.15-.36-.2-.13-.43-.17-.67-.14-.32.05-.56.27-.61.59-.02.06-.02.11-.03.17-.03.17-.1.21-.26.19-.14-.03-.26-.07-.37-.14-.26-.16-.55-.3-.78-.51-.23-.2-.49-.35-.78-.43-.25-.06-.5-.12-.75-.18-.05-.01-.07-.04-.07-.08v-.42c0-.15-.02-.31.02-.46.02-.1,0-.17-.09-.21-.15-.07-.31-.08-.47-.1-.26-.02-.51,0-.75,0-.52.03-1.02.05-1.54.12-.55.08-1.08.21-1.59.44-.08.04-.16.06-.24.08l6.87-12.51,11.58,21.72c-.26.05-.51.08-.77.08-.18,0-.38,0-.55-.05-.2-.05-.28-.15-.27-.36,0-.08,0-.17-.02-.25-.06-.17-.18-.28-.34-.37-.28-.18-.56-.35-.83-.54-.05-.04-.11-.08-.13-.14-.1-.33-.28-.6-.5-.86-.22-.27-.42-.55-.52-.9-.11-.35-.29-.67-.48-.98-.23-.36-.47-.72-.71-1.09-.13-.21-.25-.42-.37-.64-.03-.05-.02-.06.04-.06h.06c.16,0,.21-.05.26-.21.04-.18.07-.35.08-.52.03-.34-.16-.58-.47-.67-.13-.04-.26-.05-.39-.04-.09,0-.18-.02-.26-.06-.06-.05-.14-.06-.22-.06-.13,0-.27.03-.4.06-.42.09-.83.1-1.24-.05Z"/>
  <path class="cls-1" d="M197.08,57.89h-16.79c.08-.07.17-.13.25-.21.16-.15.35-.29.52-.44.43-.37.8-.79,1.14-1.23.21-.26.31-.53.24-.86-.03-.11.02-.18.13-.22.03-.01.06-.01.1-.02.36-.09.62-.3.76-.65.17-.44.14-.86-.08-1.28-.07-.13-.06-.18.06-.26.12-.08.23-.16.35-.24.24-.17.49-.34.72-.5.24-.17.49-.3.73-.49.22-.18.36-.41.4-.71.02-.17.04-.35.05-.52.03-.48-.06-.94-.36-1.34-.14-.18-.19-.37-.16-.59.02-.19,0-.36-.02-.55,0-.21-.04-.41,0-.62.09-.47.33-.86.65-1.19.57-.56,1.14-1.12,1.76-1.63.51-.43.95-.91,1.3-1.48.05-.07.09-.14.13-.22l8.13,15.25Z"/>
  <g>
    <path class="cls-2" d="M57.99,26.32l-1.75-13.45c-.28-2.13-.72-3-1.28-3.81v-.05h5.03v.05c-.47.66-.89,2.11-.67,3.84l1.17,9.31,4.62-8.49-.08-.84c-.22-2.13-.7-3-1.25-3.81v-.05h5.03v.05c-.69.68-.86,2.06-.69,3.84l.95,9.41,4.78-8.45c1.47-2.6,1.36-4.07,1.03-4.8v-.05h3.17v.05c-1.28,1.1-2,2.11-2.98,3.84l-7.65,13.43h-.89l-1.31-11.61-6.37,11.61h-.86Z"/>
    <path class="cls-2" d="M75.15,26.09c.81-1.1,1.08-2.34,1.59-4.33l.67-2.6c.42-1.71.25-2.88-.58-3.44v-.05l4.39-1.17-1.84,7.25c-.58,2.36-.7,3.3-.45,4.33v.05h-3.78v-.05ZM80.33,12.12c-.89,0-1.64-.63-1.64-1.38s.75-1.4,1.64-1.4,1.64.63,1.64,1.4-.72,1.38-1.64,1.38Z"/>
    <path class="cls-2" d="M81.22,26.13v-.05c.64-1.03,1.06-2.34,1.56-4.33l2.34-9.17c.36-1.43.5-2.69-.58-3.44v-.05l4.34-1.17-3.48,13.78c-.61,2.41-.67,3.35-.42,4.38v.05h-3.75Z"/>
    <path class="cls-2" d="M96.46,20.59c-1.5,3.09-3.67,5.9-6.15,5.9-1.53,0-2.59-1.05-2.59-3.18,0-4.07,3.37-8.68,8.93-8.68.42,0,.83.02,1.22.07l.53-2.11c.36-1.43.5-2.69-.58-3.44v-.05l4.34-1.17-3.75,14.93c-.47,1.94-.58,2.62.95,2.88v.05l-4.39.56,1.53-5.76h-.03ZM96.85,18.65l.75-2.95c-.25-.42-.75-.54-1.39-.54-3.37,0-5.87,4.42-5.87,7.65,0,1.8.81,1.99,1.31,1.99,1.59,0,3.25-1.99,5.2-6.15Z"/>
  </g>
</svg>