<?xml version="1.0" encoding="UTF-8"?>
<svg id="Layer_1" data-name="Layer 1" xmlns="http://www.w3.org/2000/svg" viewBox="0 0 108 23">
  <defs>
    <style>
      .cls-1 {
        fill: #fff;
      }
    </style>
  </defs>
  <path d="m32.96.69h-5.07l-7.17,17.86,13.28-4.47,7.09,7.09L32.96.69Zm-4.4,11.21l1.74-4.68,2.33,2.92-4.07,1.76Z"/>
  <path class="cls-1" d="m32.96.69V.22h-5.41l-7.67,19.12,13.98-4.71,8.56,8.55L33.3.22h-.34v.47l-.46.17,7.27,18.3-5.63-5.62-12.57,4.23L28.23,1.16h4.73s0-.47,0-.47l-.46.17.46-.17Zm-4.4,11.21l.47.16,1.43-3.85,1.4,1.75-3.51,1.52.21.43.47.16-.47-.16.21.43,4.63-2.01-3.26-4.08-2.43,6.55,1.06-.46-.21-.43Z"/>
  <path d="m98.61.69h-5.07l-7.17,17.86,13.28-4.47,7.09,7.09L98.61.69Zm-4.4,11.21l1.73-4.68,2.33,2.92-4.06,1.76Z"/>
  <path class="cls-1" d="m98.61.69V.22h-5.41l-7.67,19.12,13.98-4.71,8.56,8.55L98.96.22h-.34v.47l-.46.17,7.27,18.3-5.63-5.62-12.57,4.23,6.67-16.61h4.73s0-.47,0-.47l-.46.17.46-.17Zm-4.4,11.21l.47.16,1.42-3.85,1.4,1.75-3.5,1.52.21.43.47.16-.47-.16.21.43,4.62-2.01-3.26-4.08-2.42,6.55,1.06-.46-.21-.43Z"/>
  <polygon points="61.61 .65 61.61 15.98 56.81 18.81 50.56 10.34 50.36 16.33 44.95 18.74 44.94 4.95 43.05 5.01 44.84 .65 50.06 .65 56.42 9.43 56.42 .65 61.61 .65"/>
  <polygon class="cls-1" points="61.61 .65 61.12 .65 61.12 15.72 56.94 18.18 50.11 8.91 49.87 16.03 45.44 18 45.43 4.46 43.78 4.52 45.18 1.12 49.8 1.12 56.92 10.95 56.92 1.12 61.61 1.12 61.61 .65 61.12 .65 61.61 .65 61.61 .18 55.92 .18 55.92 7.92 50.32 .18 44.5 .18 42.31 5.51 44.44 5.44 44.45 19.48 50.85 16.63 51.01 11.77 56.67 19.45 62.11 16.24 62.11 .18 61.61 .18 61.61 .65"/>
  <path d="m21.71,4.36c-.07-.77-.32-1.44-.76-1.99-.44-.55-1.08-.98-1.88-1.27-.79-.29-1.76-.43-2.86-.43h-7.78l-3.06,3.88,1.76-.11L.9,21.09l5.85-2.17,2.2-5.88,2.16.31c1.04,0,2.09-.14,3.1-.41,1.04-.27,2.02-.68,2.94-1.21.91-.53,1.74-1.21,2.45-2.02.71-.8,1.28-1.74,1.66-2.78.36-.95.52-1.82.45-2.58m-4.77,2.65c-.3.78-.8,1.4-1.56,1.87-.77.48-1.72.73-2.78.73h-3.17l1.94-5.19h3.17c1.07,0,1.83.23,2.27.67.43.42.47,1.05.14,1.93"/>
  <path class="cls-1" d="m22.2,4.32c-.07-.85-.36-1.61-.86-2.24-.51-.63-1.23-1.11-2.1-1.43h0c-.87-.32-1.9-.46-3.04-.46h-8.02l-3.85,4.89,2.08-.14L.07,21.91l7.07-2.62,2.14-5.71,1.79.26h.04c1.09,0,2.18-.14,3.24-.42h0c1.09-.28,2.11-.71,3.07-1.26.96-.56,1.83-1.27,2.57-2.12h0c.76-.85,1.35-1.83,1.75-2.93l-.47-.16.47.16c.32-.85.5-1.65.5-2.39,0-.13,0-.26-.02-.39l-.99.08c0,.1.01.21.01.31,0,.61-.14,1.31-.44,2.07h0s0,0,0,0c-.37.99-.9,1.88-1.57,2.63h0c-.68.78-1.47,1.42-2.33,1.92-.87.51-1.81.9-2.81,1.16h0s0,0,0,0c-.97.26-1.97.39-2.97.39v.47l.08-.46-2.56-.37-2.26,6.04-4.63,1.72L7.85,3.91l-1.44.09,2.26-2.87h7.53c1.06,0,1.97.13,2.68.4h0c.73.27,1.29.65,1.66,1.12.38.48.6,1.05.66,1.75l.99-.08h0Zm-5.73,2.53c-.27.69-.69,1.21-1.37,1.63h0s0,0,0,0c-.68.42-1.52.65-2.51.65h-2.47l1.59-4.25h2.82c1,0,1.61.22,1.91.52h0s0,0,0,0c.14.14.21.3.22.59,0,.22-.06.51-.19.86l.93.32c.16-.42.25-.81.25-1.17,0-.47-.16-.92-.5-1.24l-.36.33.36-.32c-.59-.58-1.49-.81-2.62-.81h-3.52l-2.29,6.13h3.87c1.15,0,2.19-.27,3.06-.81h0c.84-.52,1.43-1.23,1.76-2.1l-.93-.32h0Z"/>
  <path d="m83.13,6.22l-.02-.05c-.46-1.09-1.14-2.07-2-2.89-.86-.81-1.89-1.45-3.07-1.91-1.19-.45-2.5-.69-3.89-.69h-7.05l-1.78,4.51,1.89-.03v13.74h7.24l8.57-5.27c.03-.07.08-.16.11-.25.47-1.12.7-2.33.7-3.61s-.23-2.46-.69-3.55m-3.78,2.65v.18s-6.13,3.76-6.13,3.76h-.53V4.44h1.45c.84,0,1.62.14,2.3.41.68.27,1.25.65,1.72,1.12.44.45.98,1.19,1.11,1.74.07.28.1.74.08,1.17"/>
  <path class="cls-1" d="m83.59,6.05l-.02-.05c-.49-1.15-1.21-2.19-2.11-3.04-.91-.86-2-1.53-3.23-2.01h0s0,0,0,0c-1.25-.47-2.62-.72-4.08-.72h-7.39l-2.16,5.46,2.12-.03v13.73h7.88l8.82-5.43.06-.13c.02-.05.08-.15.12-.29l-.47-.15.46.18c.5-1.18.74-2.46.74-3.78,0-1.32-.24-2.57-.73-3.73l-.92.35c.44,1.03.66,2.17.66,3.38,0,1.22-.22,2.38-.67,3.43h0s0,.03,0,.03c-.02.05-.05.12-.1.21l.46.19-.27-.39-8.57,5.27.27.39v-.47c-.1,0-.2,0-.3,0h-6.44V4.69s-1.67.03-1.67.03l1.41-3.56h6.71c1.34,0,2.58.23,3.71.65l.18-.44-.19.43c1.12.44,2.1,1.04,2.91,1.8.81.77,1.45,1.69,1.89,2.73l.02.05.92-.35h0Zm-4.74,2.79v.18s.48.03.48.03l-.27-.39-5.99,3.69h-.38v.47h.5v-7.9h.96c.78,0,1.5.13,2.11.37.62.25,1.13.58,1.55,1h0c.2.2.43.48.61.76.19.28.33.57.38.76h0c.04.17.07.48.07.79v.25s.98.05.98.05c0-.1,0-.2,0-.29,0-.37-.03-.72-.1-1h0c-.09-.37-.28-.72-.5-1.06-.22-.34-.48-.65-.73-.9h0c-.51-.52-1.15-.93-1.89-1.23-.75-.3-1.6-.44-2.49-.44h-1.95v9.31h1.17l6.45-3.97.03-.41-.99-.06h0Z"/>
</svg>