<?xml version="1.0" encoding="UTF-8"?>
<svg id="Layer_1" xmlns="http://www.w3.org/2000/svg" viewBox="0 0 37.8 26.09">
  <defs>
    <style>
      .cls-1 {
        fill: #ec0000;
      }

      .cls-1, .cls-2, .cls-3, .cls-4, .cls-5 {
        fill-rule: evenodd;
      }

      .cls-2 {
        fill: #f2f2f2;
      }

      .cls-3 {
        fill: #fff;
      }

      .cls-5 {
        fill: #070808;
      }
    </style>
  </defs>
  <path class="cls-1" d="M37.79,17.14s-.53-7.31-3.46-9.63c0,0,1.73-6.16-3.84-6.38-.39-.01-.91.01-1.67.33-.72.31-1.45.73-1.45.73C27.38,2.19,24.07.02,18.93,0h0s-.02,0-.03,0h-.04c-5.14.02-8.44,2.19-8.44,2.19,0,0-.72-.43-1.45-.73-.75-.32-1.27-.35-1.67-.33-5.57.22-3.84,6.38-3.84,6.38C.54,9.84,0,17.14,0,17.14c-.1.58.74,1.42,1.62.8.16-.11.1.09.04.48-.27,1.63.45,3.07.76,3.4.31.33,1.51-.84,1.51-.84l.99.38s3.31,1.32,4.16,1.63c.84.31.74-.54.74-.54.09,1.11.93,2.26,1.74,2.95.57.48,2.03.65,7.29.68h0s.02,0,.03,0c.01,0,.02,0,.03,0h0c5.26-.04,6.72-.21,7.29-.69.82-.69,1.65-1.84,1.75-2.95,0,0-.1.85.74.54.85-.31,4.16-1.63,4.16-1.63l.99-.38s1.21,1.16,1.51.84c.31-.33,1.03-1.77.76-3.4-.07-.39-.13-.59.04-.48.88.62,1.72-.22,1.62-.8"/>
  <path class="cls-3" d="M36.12,15.64c-.61-2.28-.75-4.29-2.08-6.3-.33-.49-.77-1.22-1.11-1.62-.1-.12-.16-.23-.04-.39.65-.87.78-2.07.47-3.1-.4-1.46-2.13-2.23-3.69-1.81-.64.17-1.37.84-1.8,1.16-.01.01-.04.04-.1.03-.63-.37-1.2-.61-1.88-.9-1.63-.69-3.33-1.11-5.09-1.31-.63-.07-1.26-.11-1.89-.11h0s-.02,0-.03,0c-.01,0-.02,0-.03,0h0c-.63,0-1.26.04-1.89.11-1.76.2-3.46.62-5.09,1.31-.67.28-1.25.53-1.88.9-.06,0-.09-.02-.1-.03-.43-.33-1.15-.99-1.79-1.16-1.56-.43-3.29.34-3.69,1.81-.31,1.03-.17,2.23.47,3.1.12.16.07.27-.04.39-.33.4-.78,1.12-1.11,1.62-1.33,2.01-1.47,4.02-2.08,6.3-.02.06-.02.13.04.16.06.04.11-.02.16-.05.4-.26.79-.51,1.18-.76.46-.29.92-.58,1.38-.88-1.01,1.94-1.63,3.95-1.64,6.13.25-.45.47-.9.67-1.37.09-.22.18-.23.39-.14,1.65.67,3.32,1.33,4.97,2,.19.08.3.09.31-.18.03-1.04.21-2.05.53-3.04.25-.77.6-1.48,1.17-2.08.13.13.08.26.07.38-.09,1.33-.08,2.66.06,3.98.15,1.34.39,2.65.99,3.87.26.31.28.1.31-.26.03-.45,0-.9-.03-1.35-.17-2.16.33-4,.84-6.08.47-1.9.88-2.56,1.21-3.83.05-.19.1-.39.15-.58,0-.01,0-.02.01-.04.04-.12.08-.24.13-.37.02-.03.03-.06.04-.1.03-.09.06-.18.1-.28h0c-.04.22-.1.42-.11.62-.01.24.08.4.24.45,0,0,.21.02.34-.03.3-.13.63-.16.97-.17.72-.01,1.45-.04,2.12-.38.04-.01.07-.03.1-.06.24-.18.4-.42.51-.73.11.31.28.55.51.73.03.02.07.05.1.06.67.34,1.4.37,2.12.38.35,0,.67.04.97.17.13.06.34.03.34.03.17-.04.26-.2.25-.45-.01-.2-.07-.4-.11-.62h0c.04.11.07.19.1.28.01.03.02.07.04.1.05.12.09.24.13.37,0,.01,0,.02.01.04.05.19.09.39.14.58.33,1.27.74,1.93,1.21,3.83.52,2.08,1.01,3.92.84,6.08-.04.45-.06.9-.03,1.35.03.36.05.57.31.26.61-1.22.85-2.53.99-3.87.14-1.33.16-2.65.06-3.98,0-.12-.06-.25.07-.38.57.59.92,1.31,1.17,2.08.32.99.5,2,.53,3.04,0,.26.12.25.31.18,1.66-.67,3.32-1.33,4.97-2,.2-.08.29-.08.39.14.19.47.41.92.67,1.37-.02-2.18-.64-4.19-1.65-6.13.46.29.92.58,1.38.88.4.25.79.51,1.18.76.05.03.1.09.16.05.06-.04.06-.1.04-.16"/>
  <path class="cls-5" d="M5.04,4.64c.09-.32.24-.62.46-.91-.22.27-.37.58-.46.91"/>
  <path class="cls-4" d="M9.42,3.92s-.04-.04-.06-.05c-.03-.03-.07-.06-.11-.09-.21-.17-.41-.33-.64-.47-.07-.05-.15-.09-.22-.13-.01,0-.02-.01-.04-.02-.34-.17-.59-.28-.97-.28-.03,0-.07,0-.1,0-.03,0-.06,0-.09,0-.04,0-.07,0-.11.01-.04,0-.07.01-.11.02-.31.06-.62.19-.91.36-.02.02-.05.03-.07.04-.01,0-.02.02-.03.03,0,0,.01-.02.02-.03-.17.11-.32.22-.45.34-.02.02-.05.05-.07.07,0,0,0,0,0,0-.05.05-.1.1-.14.16-.22.29-.37.6-.46.92-.02.06-.03.13-.04.19-.01.06-.02.12-.02.18,0,.03,0,.05,0,.08,0,.05,0,.11,0,.16,0,.07,0,.14.01.21,0,.04,0,.07.01.11.06.37.22.71.4,1.04.04.07.08.13.11.2.1.16.21.22.36.04.11-.12.22-.25.35-.35.05-.04.09-.07.13-.11.24-.26.64-.69.64-.69,0,0-.09-.38-.11-.49,0-.01,0-.03,0-.04,0-.05-.02-.21-.02-.25,0-.01,0-.03,0-.04.01-.31.07-.53.32-.83.08.26.08.51.13.74,0,.05.02.09.03.13.13.36.2.39.49.17.31-.24.63-.46.95-.68.16-.11.33-.23.49-.35.07-.05.3-.28.39-.26-.01,0-.02-.01-.03-.02"/>
  <path class="cls-2" d="M13.36,7.16c0,.12-.13.13-.22.15-.24.06-.46.18-.6.18-.48,0-.72-.23-.92-.5-.05-.06-.07-.13,0-.2.05-.05.11-.05.17-.03.42.21.88.21,1.32.25.1.01.25,0,.26.14"/>
  <path class="cls-5" d="M32.76,4.64c-.09-.32-.24-.62-.46-.91.22.27.38.58.46.91"/>
  <path class="cls-4" d="M28.38,3.92s.04-.04.06-.05c.03-.03.07-.06.11-.09.21-.17.41-.33.64-.47.07-.05.15-.09.22-.13.01,0,.02-.01.04-.02.34-.17.59-.28.97-.28.03,0,.07,0,.1,0,.03,0,.06,0,.09,0,.04,0,.07,0,.11.01.04,0,.07.01.11.02.31.06.62.19.91.36.02.02.05.03.07.04,0,0,.02.02.02.03,0,0-.01-.02-.02-.03.17.11.32.22.45.34.02.02.05.05.07.07,0,0,0,0,0,0,.05.05.1.1.14.16.22.29.37.6.46.92.02.06.03.13.04.19.01.06.02.12.02.18,0,.03,0,.05,0,.08,0,.05,0,.11,0,.16,0,.07,0,.14-.01.21,0,.04,0,.07-.01.11-.06.37-.22.71-.4,1.04-.04.07-.08.13-.11.2-.1.16-.21.22-.36.04-.11-.12-.22-.25-.35-.35-.05-.04-.09-.07-.13-.11-.24-.26-.64-.69-.64-.69,0,0,.09-.38.1-.49,0-.01,0-.03,0-.04,0-.05.02-.21.02-.25,0-.01,0-.03,0-.04-.01-.31-.07-.53-.32-.83-.08.26-.08.51-.13.74,0,.05-.02.09-.03.13-.13.36-.2.39-.49.17-.31-.24-.63-.46-.95-.68-.16-.11-.33-.23-.49-.35-.07-.05-.3-.28-.39-.26.01,0,.02-.01.03-.02"/>
  <path class="cls-3" d="M15.07,14.67c.01.09.05.2.16.2.1,0,.15-.06.18-.14.04-.12.09-.24.16-.34.07-.12.22-.57.51-.57.94.02,4.72.02,5.66,0,.29,0,.44.45.51.57.06.11.11.23.15.34.03.08.08.14.18.14.11,0,.14-.11.16-.2.02-.11.04-.23.05-.35.01-.11.01-.23,0-.34,0-.23-.05-.45-.08-.68-.02-.12-.04-.25-.06-.37-.06-.39-.34-.58-.74-.58-.99,0-5.02,0-6.02,0-.4,0-.67.2-.73.58-.02.12-.04.25-.06.37-.04.22-.07.45-.09.68,0,.11,0,.23.01.34.01.11.03.23.05.35"/>
  <path class="cls-3" d="M24.49,21.15c-.05-.51-.05-1.04-.22-1.55,0,.01-.17.29-.19.34-.04.12-.06.24-.09.37-.14.72-.33,1.41-.49,2.12-.05.24-.25.19-.42.19h-8.38c-.17,0-.37.05-.42-.19-.15-.71-.35-1.41-.49-2.12-.02-.12-.05-.25-.09-.37-.02-.05-.19-.32-.19-.34-.17.52-.17,1.04-.22,1.55-.08.86-.18,1.73-.09,2.6.03.31.16.39.45.39,1.65-.01,3.3,0,4.96-.01h.55c1.65,0,3.3,0,4.96.01.28,0,.41-.07.44-.39.09-.87,0-1.74-.09-2.6"/>
  <path class="cls-2" d="M24.43,7.16c0,.12.13.13.22.15.24.06.46.18.6.18.48,0,.72-.23.92-.5.05-.06.07-.13,0-.2-.05-.05-.11-.05-.17-.03-.42.21-.88.21-1.33.25-.1.01-.25,0-.26.14"/>
  <path class="cls-4" d="M31.52,11.58c-.48-1.01-1.06-1.96-1.68-2.88-1.02-1.34-2.3-2.37-3.77-3.17-1.03-.56-3.33-1.21-3.39-1.21.37.18.74.34,1.1.53.28.14.33.37.13.6-.54.66-1.19,1.01-2.07.85-.64-.12-1.29-.12-1.95,0-.32.06-.66-.04-.99-.02,0,0,0,0-.01,0s0,0-.01,0c-.33-.02-.67.08-.99.02-.65-.11-1.3-.11-1.95,0-.88.16-1.53-.19-2.07-.85-.19-.24-.15-.46.13-.6.36-.18.73-.35,1.1-.53-.06,0-2.36.65-3.39,1.21-1.46.8-2.75,1.82-3.77,3.17-.62.92-1.2,1.87-1.68,2.88-.04.08-.09.16-.03.24,0,.01.02.02.02.03.42-.12.85-.22,1.28-.3.76-.15,1.54-.23,2.34-.25.06,0,.12,0,.16,0h0c.21.03.13.08.01.38-.12.33-.2.68-.24,1.09-.02.14.06.15.12.06h0c.28-.55.62-1.04.99-1.52.12-.16.24-.33.37-.49.5-.58,1-1.15,1.61-1.63,1.08-.85,2.2-1.62,3.53-2.04.28-.08.43-.08.58.25.35.76,1.02,1.1,1.82,1.09.01,0,.03,0,.04,0s.03,0,.04,0c.81,0,1.47-.34,1.82-1.09.15-.33.3-.33.58-.25,1.33.41,2.45,1.19,3.53,2.04.61.48,1.11,1.04,1.61,1.63.13.16.25.32.37.49.36.48.71.97.99,1.51h0c.06.09.14.08.12-.06-.05-.4-.12-.75-.24-1.09-.11-.3-.2-.35.01-.38h0s.1,0,.16,0c.8.02,1.58.11,2.34.25.43.08.86.18,1.28.3,0,0,.02-.02.02-.03.06-.08,0-.16-.03-.24M13.14,7.31c-.24.06-.46.18-.6.18-.04,0-.07,0-.11,0-.03,0-.06,0-.09-.01-.04,0-.08-.01-.12-.03-.04-.01-.07-.02-.11-.04-.01,0-.03,0-.04-.02-.05-.02-.09-.05-.13-.07,0,0-.01,0-.01-.01-.04-.03-.08-.06-.11-.09-.02-.02-.04-.03-.06-.05-.02-.02-.04-.04-.05-.06-.03-.04-.07-.08-.1-.12-.05-.06-.07-.13,0-.2h0s.01-.02.02-.02c0,0,.02-.01.02-.01.04-.02.08-.01.12,0,.05.03.11.05.16.07.09.03.19.06.29.08.05,0,.1.02.15.03.05,0,.09.01.15.02.19.02.4.03.59.06.1.01.25,0,.26.14,0,.12-.13.13-.22.15M26.18,6.99s-.06.08-.1.12c-.01.02-.03.04-.05.06-.02.02-.04.04-.06.05-.04.03-.07.06-.11.09,0,0,0,0-.01.01-.04.02-.08.05-.13.07-.01,0-.02.01-.04.02-.03.01-.07.02-.11.04-.04.01-.08.02-.12.03-.03,0-.06,0-.09.01-.04,0-.07,0-.11,0-.14,0-.36-.12-.6-.18-.09-.02-.23-.03-.22-.15,0-.15.15-.13.26-.14.19-.02.4-.03.59-.06.05,0,.1-.01.15-.02.05,0,.1-.02.15-.03.1-.02.19-.05.29-.08.05-.02.11-.04.16-.07.04-.02.08-.02.12,0,0,0,.02,0,.02.01,0,0,.02,0,.02.02h0c.06.07.04.14,0,.2"/>
</svg>