<?xml version="1.0" encoding="utf-8"?>
<!-- Generator: Adobe Illustrator 27.3.1, SVG Export Plug-In . SVG Version: 6.00 Build 0)  -->
<svg version="1.1" id="Layer_1" xmlns="http://www.w3.org/2000/svg" xmlns:xlink="http://www.w3.org/1999/xlink" x="0px" y="0px"
	 viewBox="0 0 81.34 17.37" style="enable-background:new 0 0 81.34 17.37;" xml:space="preserve">
<style type="text/css">
	.st0{fill:#FF0000;}
	.st1{fill:#FFFFFF;}
	.st2{fill:#FF0000;stroke:#FFFFFF;stroke-width:2;stroke-miterlimit:10;}
	.st3{stroke:#000000;stroke-miterlimit:10;}
	.st4{fill-rule:evenodd;clip-rule:evenodd;fill:#FFFFFF;}
	.st5{fill-rule:evenodd;clip-rule:evenodd;fill:#FF0000;}
	.st6{fill-rule:evenodd;clip-rule:evenodd;fill:#070808;}
	.st7{fill-rule:evenodd;clip-rule:evenodd;}
	.st8{fill-rule:evenodd;clip-rule:evenodd;fill:#F2F2F2;}
</style>
<g>
	<g>
		<g>
			<path class="st1" d="M43.66,3.28h-2.54l-3.59,9.44l6.65-2.36l3.55,3.75L43.66,3.28z M41.45,9.21l0.87-2.47l1.17,1.54L41.45,9.21z
				"/>
			<path class="st1" d="M76.54,3.28H74l-3.59,9.44l6.65-2.36l3.55,3.75L76.54,3.28z M74.33,9.21l0.87-2.47l1.17,1.54L74.33,9.21z"/>
			<polygon class="st1" points="58.01,3.26 58.01,11.36 55.6,12.86 52.47,8.38 52.37,11.55 49.66,12.82 49.66,5.54 48.71,5.57 
				49.61,3.26 52.23,3.26 55.41,7.9 55.41,3.26 			"/>
			<path class="st1" d="M38.02,5.22c-0.03-0.41-0.16-0.76-0.38-1.05c-0.22-0.29-0.54-0.52-0.94-0.67c-0.4-0.15-0.88-0.23-1.43-0.23
				h-3.9l-1.53,2.05l0.88-0.06l-3.12,8.81l2.93-1.15l1.1-3.11l1.08,0.16c0.52,0,1.04-0.07,1.55-0.21c0.52-0.14,1.02-0.36,1.47-0.64
				c0.46-0.28,0.87-0.64,1.23-1.07c0.36-0.43,0.64-0.92,0.83-1.47C37.98,6.09,38.05,5.63,38.02,5.22 M35.63,6.62
				c-0.15,0.41-0.4,0.74-0.78,0.99c-0.39,0.25-0.86,0.38-1.4,0.38h-1.59l0.97-2.74h1.59c0.53,0,0.92,0.12,1.14,0.35
				C35.77,5.83,35.8,6.16,35.63,6.62"/>
			<path class="st1" d="M68.78,6.21l-0.01-0.03c-0.23-0.58-0.57-1.1-1-1.53c-0.43-0.43-0.95-0.77-1.54-1.01
				c-0.59-0.24-1.25-0.36-1.95-0.36h-3.53l-0.89,2.39l0.95-0.02v7.26h3.47c0.05,0,0.1,0,0.15,0l4.29-2.79
				c0.02-0.04,0.04-0.08,0.05-0.13c0.24-0.59,0.35-1.23,0.35-1.91C69.13,7.42,69.01,6.79,68.78,6.21 M66.89,7.61l0,0.09l-3.07,1.99
				h-0.26V5.27h0.73c0.42,0,0.81,0.07,1.15,0.22c0.34,0.14,0.63,0.34,0.86,0.59c0.22,0.24,0.49,0.63,0.56,0.92
				C66.88,7.14,66.9,7.38,66.89,7.61"/>
		</g>
	</g>
	<g>
		<path class="st5" d="M25.23,11.31c0,0-0.34-4.69-2.24-6.18c0,0,1.12-3.96-2.49-4.1c-0.26-0.01-0.59,0.01-1.08,0.21
			c-0.47,0.2-0.94,0.47-0.94,0.47S16.33,0.32,13,0.31v0c-0.01,0-0.01,0-0.02,0c-0.01,0-0.01,0-0.02,0v0
			C9.63,0.32,7.48,1.72,7.48,1.72S7.01,1.44,6.54,1.25c-0.49-0.2-0.82-0.22-1.08-0.21c-3.61,0.14-2.49,4.1-2.49,4.1
			c-1.9,1.49-2.24,6.18-2.24,6.18c-0.06,0.37,0.48,0.91,1.05,0.52c0.1-0.07,0.07,0.06,0.02,0.31c-0.18,1.05,0.29,1.97,0.49,2.18
			c0.2,0.21,0.98-0.54,0.98-0.54l0.64,0.25c0,0,2.15,0.85,2.7,1.05c0.55,0.2,0.48-0.35,0.48-0.35c0.06,0.71,0.6,1.45,1.13,1.89
			c0.37,0.31,1.32,0.41,4.73,0.44v0c0.01,0,0.01,0,0.02,0c0.01,0,0.01,0,0.02,0v0c3.41-0.03,4.36-0.13,4.73-0.44
			c0.53-0.44,1.07-1.18,1.13-1.89c0,0-0.06,0.55,0.48,0.35c0.55-0.2,2.7-1.05,2.7-1.05l0.64-0.25c0,0,0.78,0.75,0.98,0.54
			c0.2-0.21,0.67-1.14,0.49-2.18c-0.04-0.25-0.08-0.38,0.02-0.31C24.74,12.22,25.29,11.69,25.23,11.31"/>
		<path class="st4" d="M24.14,10.35c-0.4-1.46-0.49-2.75-1.35-4.04c-0.21-0.32-0.5-0.78-0.72-1.04c-0.07-0.08-0.1-0.15-0.02-0.25
			c0.42-0.56,0.51-1.33,0.31-1.99c-0.26-0.94-1.38-1.43-2.39-1.16c-0.41,0.11-0.89,0.54-1.16,0.75c-0.01,0.01-0.03,0.02-0.06,0.02
			c-0.41-0.24-0.78-0.39-1.22-0.58c-1.06-0.44-2.16-0.71-3.3-0.84C13.82,1.17,13.41,1.14,13,1.14v0c-0.01,0-0.01,0-0.02,0
			c-0.01,0-0.01,0-0.02,0v0c-0.41,0-0.82,0.03-1.22,0.07c-1.14,0.13-2.24,0.4-3.3,0.84C8,2.24,7.63,2.39,7.22,2.63
			C7.19,2.64,7.17,2.62,7.16,2.61C6.88,2.4,6.41,1.98,5.99,1.87C4.99,1.59,3.86,2.09,3.6,3.03C3.4,3.69,3.49,4.46,3.91,5.02
			c0.08,0.1,0.04,0.17-0.02,0.25c-0.22,0.26-0.5,0.72-0.72,1.04C2.31,7.6,2.21,8.89,1.82,10.35c-0.01,0.04-0.02,0.08,0.03,0.1
			c0.04,0.02,0.07-0.01,0.11-0.03c0.26-0.16,0.51-0.33,0.77-0.49c0.3-0.19,0.59-0.38,0.89-0.56c-0.65,1.25-1.06,2.54-1.07,3.93
			c0.16-0.29,0.31-0.58,0.43-0.88c0.06-0.14,0.12-0.15,0.25-0.09c1.07,0.43,2.15,0.86,3.22,1.29c0.12,0.05,0.19,0.05,0.2-0.11
			c0.02-0.67,0.14-1.32,0.34-1.95c0.16-0.49,0.39-0.95,0.76-1.33c0.08,0.08,0.05,0.17,0.05,0.24c-0.06,0.85-0.05,1.71,0.04,2.56
			c0.09,0.86,0.25,1.7,0.64,2.48c0.17,0.2,0.18,0.06,0.2-0.17c0.02-0.29,0-0.58-0.02-0.86c-0.11-1.39,0.21-2.57,0.55-3.91
			C9.51,9.35,9.77,8.92,9.99,8.1c0.03-0.12,0.06-0.25,0.09-0.37c0-0.01,0.01-0.02,0.01-0.03c0.03-0.08,0.05-0.16,0.08-0.23
			c0.01-0.02,0.02-0.04,0.03-0.06c0.02-0.06,0.04-0.11,0.06-0.18l0,0c-0.03,0.14-0.06,0.27-0.07,0.4c-0.01,0.16,0.05,0.26,0.16,0.29
			c0,0,0.14,0.02,0.22-0.02c0.19-0.08,0.41-0.1,0.63-0.11c0.47-0.01,0.94-0.03,1.38-0.25c0.02-0.01,0.05-0.02,0.07-0.04
			c0.15-0.12,0.26-0.27,0.33-0.47c0.07,0.2,0.18,0.35,0.33,0.47c0.02,0.02,0.04,0.03,0.07,0.04c0.44,0.22,0.91,0.24,1.38,0.25
			c0.22,0.01,0.44,0.03,0.63,0.11c0.08,0.04,0.22,0.02,0.22,0.02c0.11-0.03,0.17-0.13,0.16-0.29c-0.01-0.13-0.05-0.26-0.07-0.4l0,0
			c0.02,0.07,0.04,0.12,0.06,0.18c0.01,0.02,0.02,0.04,0.03,0.06c0.03,0.08,0.06,0.16,0.08,0.23c0,0.01,0.01,0.02,0.01,0.03
			c0.03,0.12,0.06,0.25,0.09,0.37c0.22,0.82,0.48,1.24,0.78,2.46c0.34,1.34,0.66,2.52,0.55,3.91c-0.02,0.29-0.04,0.57-0.02,0.86
			c0.02,0.23,0.03,0.37,0.2,0.17c0.39-0.78,0.55-1.62,0.64-2.48c0.09-0.85,0.1-1.7,0.04-2.56c0-0.08-0.04-0.16,0.05-0.24
			c0.37,0.38,0.6,0.84,0.76,1.33c0.21,0.63,0.32,1.28,0.34,1.95c0.01,0.17,0.08,0.16,0.2,0.11c1.07-0.43,2.15-0.85,3.22-1.29
			c0.13-0.05,0.19-0.05,0.25,0.09c0.12,0.3,0.27,0.59,0.43,0.88c-0.01-1.4-0.41-2.69-1.07-3.93c0.3,0.19,0.6,0.38,0.89,0.56
			c0.26,0.16,0.51,0.32,0.77,0.49c0.03,0.02,0.06,0.06,0.11,0.03C24.16,10.43,24.15,10.39,24.14,10.35"/>
		<path class="st6" d="M3.99,3.28c0.06-0.2,0.16-0.4,0.3-0.59C4.15,2.87,4.05,3.07,3.99,3.28"/>
		<path class="st7" d="M6.83,2.82C6.82,2.81,6.81,2.8,6.79,2.79C6.77,2.77,6.74,2.75,6.72,2.74c-0.13-0.11-0.27-0.21-0.41-0.3
			C6.26,2.4,6.21,2.38,6.16,2.35c-0.01,0-0.02-0.01-0.02-0.01C5.92,2.23,5.76,2.15,5.51,2.15c-0.02,0-0.05,0-0.07,0
			c-0.02,0-0.04,0-0.06,0c-0.02,0-0.05,0.01-0.07,0.01c-0.02,0-0.05,0.01-0.07,0.01c-0.2,0.04-0.4,0.12-0.59,0.23
			C4.64,2.42,4.62,2.43,4.61,2.44c-0.01,0-0.01,0.01-0.02,0.02c0-0.01,0.01-0.01,0.01-0.02C4.5,2.5,4.4,2.58,4.32,2.65
			C4.3,2.67,4.28,2.68,4.27,2.7c0,0,0,0,0,0C4.23,2.73,4.2,2.77,4.17,2.8c-0.14,0.19-0.24,0.38-0.3,0.59
			C3.86,3.43,3.85,3.47,3.85,3.51C3.84,3.55,3.83,3.59,3.83,3.63c0,0.02,0,0.03-0.01,0.05c0,0.03,0,0.07,0,0.1
			c0,0.05,0,0.09,0.01,0.14c0,0.02,0.01,0.05,0.01,0.07C3.87,4.22,3.98,4.44,4.1,4.65C4.12,4.7,4.14,4.74,4.17,4.78
			C4.23,4.89,4.3,4.92,4.4,4.81c0.07-0.08,0.14-0.16,0.23-0.23c0.03-0.02,0.06-0.05,0.08-0.07c0.15-0.17,0.41-0.44,0.41-0.44
			S5.06,3.81,5.06,3.75c0-0.01,0-0.02,0-0.03c0-0.03-0.01-0.14-0.01-0.16c0-0.01,0-0.02,0-0.03C5.05,3.33,5.09,3.19,5.25,3
			C5.3,3.17,5.3,3.32,5.33,3.47C5.34,3.5,5.35,3.53,5.36,3.56c0.08,0.23,0.13,0.25,0.32,0.11c0.2-0.15,0.41-0.3,0.61-0.44
			C6.39,3.15,6.5,3.08,6.6,3c0.04-0.03,0.2-0.18,0.25-0.17C6.85,2.83,6.84,2.83,6.83,2.82"/>
		<path class="st8" d="M9.39,4.91c0,0.08-0.09,0.08-0.14,0.1c-0.15,0.04-0.3,0.11-0.39,0.12c-0.31,0-0.47-0.15-0.6-0.32
			C8.23,4.76,8.22,4.71,8.26,4.67c0.03-0.03,0.07-0.03,0.11-0.02c0.27,0.13,0.57,0.13,0.86,0.16C9.29,4.82,9.39,4.81,9.39,4.91"/>
		<path class="st6" d="M21.97,3.28c-0.06-0.2-0.16-0.4-0.3-0.59C21.81,2.87,21.91,3.07,21.97,3.28"/>
		<path class="st7" d="M19.13,2.82c0.01-0.01,0.03-0.02,0.04-0.03c0.02-0.02,0.05-0.04,0.07-0.05c0.13-0.11,0.27-0.21,0.41-0.3
			c0.05-0.03,0.1-0.05,0.14-0.08c0.01,0,0.02-0.01,0.02-0.01c0.22-0.11,0.38-0.18,0.63-0.18c0.02,0,0.05,0,0.07,0
			c0.02,0,0.04,0,0.06,0c0.02,0,0.05,0.01,0.07,0.01c0.02,0,0.05,0.01,0.07,0.01c0.2,0.04,0.4,0.12,0.59,0.23
			c0.02,0.01,0.03,0.02,0.05,0.03c0.01,0,0.01,0.01,0.02,0.02c0-0.01-0.01-0.01-0.01-0.02c0.11,0.07,0.21,0.14,0.29,0.22
			c0.02,0.01,0.03,0.03,0.05,0.05c0,0,0,0,0,0c0.03,0.03,0.06,0.07,0.09,0.1c0.14,0.19,0.24,0.38,0.3,0.59
			c0.01,0.04,0.02,0.08,0.03,0.12c0.01,0.04,0.01,0.07,0.02,0.11c0,0.02,0,0.03,0.01,0.05c0,0.03,0,0.07,0,0.1
			c0,0.05,0,0.09-0.01,0.14c0,0.02-0.01,0.05-0.01,0.07c-0.04,0.24-0.14,0.46-0.26,0.67c-0.02,0.04-0.05,0.09-0.07,0.13
			c-0.06,0.11-0.14,0.14-0.23,0.03c-0.07-0.08-0.14-0.16-0.23-0.23c-0.03-0.02-0.06-0.05-0.08-0.07c-0.15-0.17-0.41-0.44-0.41-0.44
			s0.06-0.25,0.07-0.31c0-0.01,0-0.02,0-0.03c0-0.03,0.01-0.14,0.01-0.16c0-0.01,0-0.02,0-0.03c-0.01-0.2-0.05-0.34-0.21-0.53
			c-0.05,0.17-0.05,0.33-0.09,0.48c-0.01,0.03-0.01,0.06-0.02,0.08c-0.08,0.23-0.13,0.25-0.32,0.11c-0.2-0.15-0.41-0.3-0.61-0.44
			C19.57,3.15,19.46,3.08,19.36,3c-0.04-0.03-0.2-0.18-0.25-0.17C19.11,2.83,19.12,2.83,19.13,2.82"/>
		<path class="st4" d="M10.5,9.73c0.01,0.06,0.03,0.13,0.1,0.13c0.07,0,0.1-0.04,0.12-0.09c0.03-0.07,0.06-0.15,0.1-0.22
			c0.04-0.08,0.14-0.37,0.33-0.36c0.61,0.02,3.06,0.02,3.67,0c0.19,0,0.29,0.29,0.33,0.36c0.04,0.07,0.07,0.15,0.1,0.22
			c0.02,0.05,0.05,0.09,0.12,0.09c0.07,0,0.09-0.07,0.1-0.13c0.01-0.07,0.02-0.15,0.03-0.22c0.01-0.07,0.01-0.15,0.01-0.22
			c-0.01-0.15-0.03-0.29-0.05-0.43c-0.01-0.08-0.03-0.16-0.04-0.24c-0.04-0.25-0.22-0.38-0.48-0.38c-0.64,0-3.26,0-3.9,0
			c-0.26,0-0.44,0.13-0.48,0.38c-0.01,0.08-0.03,0.16-0.04,0.24c-0.02,0.14-0.05,0.29-0.05,0.43c0,0.07,0,0.15,0.01,0.22
			C10.47,9.58,10.48,9.65,10.5,9.73"/>
		<path class="st4" d="M16.6,13.89c-0.03-0.33-0.03-0.67-0.14-1c0,0.01-0.11,0.19-0.12,0.22c-0.03,0.08-0.04,0.16-0.06,0.24
			c-0.09,0.46-0.22,0.91-0.32,1.36c-0.03,0.16-0.16,0.12-0.27,0.12H13h-0.04h-2.7c-0.11,0-0.24,0.03-0.27-0.12
			c-0.1-0.46-0.23-0.9-0.32-1.36c-0.02-0.08-0.03-0.16-0.06-0.24C9.61,13.07,9.5,12.9,9.5,12.89c-0.11,0.33-0.11,0.67-0.14,1
			C9.3,14.44,9.24,15,9.3,15.56c0.02,0.2,0.1,0.25,0.29,0.25c1.07-0.01,2.14-0.01,3.21-0.01h0.16H13h0.16c1.07,0,2.14,0,3.21,0.01
			c0.18,0,0.27-0.05,0.29-0.25C16.72,15,16.66,14.44,16.6,13.89"/>
		<path class="st8" d="M16.57,4.91c0,0.08,0.09,0.08,0.14,0.1c0.15,0.04,0.3,0.11,0.39,0.12c0.31,0,0.47-0.15,0.6-0.32
			c0.03-0.04,0.04-0.09,0.01-0.13c-0.03-0.03-0.07-0.03-0.11-0.02c-0.27,0.13-0.57,0.13-0.86,0.16C16.67,4.82,16.57,4.81,16.57,4.91
			"/>
		<path class="st7" d="M21.16,7.75c-0.31-0.65-0.68-1.26-1.09-1.85c-0.66-0.86-1.49-1.52-2.44-2.03c-0.67-0.36-2.16-0.78-2.2-0.78
			c0.24,0.11,0.48,0.22,0.71,0.34c0.18,0.09,0.21,0.23,0.09,0.39c-0.35,0.42-0.77,0.65-1.34,0.55c-0.42-0.07-0.84-0.08-1.26-0.01
			c-0.21,0.04-0.43-0.03-0.64-0.01c0,0,0,0-0.01,0c0,0,0,0-0.01,0c-0.21-0.01-0.43,0.05-0.64,0.01c-0.42-0.07-0.84-0.07-1.26,0.01
			c-0.57,0.1-0.99-0.12-1.34-0.55C9.6,3.66,9.63,3.52,9.81,3.42c0.23-0.12,0.47-0.22,0.71-0.34c-0.04,0-1.53,0.42-2.2,0.78
			C7.38,4.38,6.55,5.04,5.89,5.9C5.48,6.49,5.11,7.1,4.8,7.75C4.77,7.8,4.74,7.85,4.78,7.9c0.01,0.01,0.01,0.01,0.02,0.02
			c0.27-0.08,0.55-0.14,0.83-0.19c0.49-0.09,1-0.15,1.52-0.16c0.04-0.01,0.08-0.01,0.11,0h0C7.39,7.58,7.33,7.61,7.26,7.8
			C7.18,8.02,7.13,8.24,7.1,8.5C7.09,8.59,7.14,8.6,7.18,8.54l0,0c0.18-0.35,0.4-0.66,0.64-0.97c0.08-0.1,0.16-0.21,0.24-0.31
			C8.38,6.88,8.71,6.52,9.1,6.21c0.7-0.55,1.43-1.04,2.29-1.31c0.18-0.05,0.28-0.05,0.38,0.16c0.23,0.49,0.66,0.7,1.18,0.7
			c0.01,0,0.02,0,0.03,0c0.01,0,0.02,0,0.03,0c0.52,0,0.95-0.22,1.18-0.7c0.1-0.21,0.2-0.21,0.38-0.16
			c0.86,0.27,1.59,0.76,2.29,1.31c0.39,0.31,0.72,0.67,1.04,1.05c0.08,0.1,0.16,0.21,0.24,0.31c0.24,0.31,0.46,0.62,0.64,0.97l0,0
			c0.04,0.05,0.09,0.05,0.08-0.04c-0.03-0.26-0.08-0.48-0.16-0.7c-0.07-0.2-0.13-0.22,0.01-0.25h0c0.03,0,0.07,0,0.11,0
			c0.52,0.01,1.02,0.07,1.52,0.16c0.28,0.05,0.56,0.12,0.83,0.19c0.01-0.01,0.01-0.01,0.02-0.02C21.22,7.85,21.19,7.8,21.16,7.75
			 M9.25,5c-0.15,0.04-0.3,0.11-0.39,0.12c-0.02,0-0.05,0-0.07,0c-0.02,0-0.04,0-0.06-0.01C8.7,5.1,8.68,5.1,8.65,5.09
			C8.63,5.08,8.61,5.08,8.58,5.07c-0.01,0-0.02-0.01-0.03-0.01C8.53,5.05,8.5,5.03,8.48,5.01c0,0-0.01,0-0.01-0.01
			C8.44,4.99,8.42,4.97,8.39,4.95C8.38,4.93,8.37,4.92,8.36,4.91C8.35,4.9,8.34,4.89,8.33,4.88C8.3,4.85,8.28,4.82,8.26,4.8
			C8.23,4.76,8.22,4.71,8.26,4.67v0c0-0.01,0.01-0.01,0.01-0.01c0.01-0.01,0.01-0.01,0.02-0.01c0.03-0.01,0.05-0.01,0.08,0
			c0.03,0.02,0.07,0.03,0.1,0.04c0.06,0.02,0.12,0.04,0.19,0.05c0.03,0.01,0.06,0.01,0.09,0.02c0.03,0.01,0.06,0.01,0.09,0.01
			C8.97,4.79,9.1,4.8,9.23,4.81c0.07,0.01,0.16-0.01,0.17,0.09C9.39,4.99,9.31,4.99,9.25,5 M17.7,4.8
			c-0.02,0.03-0.04,0.05-0.06,0.08c-0.01,0.01-0.02,0.03-0.03,0.04c-0.01,0.01-0.02,0.02-0.04,0.03c-0.02,0.02-0.05,0.04-0.07,0.06
			c0,0-0.01,0.01-0.01,0.01c-0.03,0.02-0.05,0.03-0.08,0.05c-0.01,0.01-0.02,0.01-0.03,0.01c-0.02,0.01-0.05,0.02-0.07,0.02
			c-0.03,0.01-0.05,0.01-0.08,0.02c-0.02,0-0.04,0.01-0.06,0.01c-0.02,0-0.05,0-0.07,0c-0.09,0-0.23-0.08-0.39-0.12
			c-0.06-0.01-0.15-0.02-0.14-0.1c0-0.1,0.1-0.08,0.17-0.09c0.13-0.01,0.26-0.02,0.38-0.04c0.03,0,0.06-0.01,0.09-0.01
			c0.03-0.01,0.06-0.01,0.09-0.02c0.06-0.01,0.12-0.03,0.19-0.05c0.03-0.01,0.07-0.03,0.1-0.04c0.03-0.01,0.05-0.01,0.08,0
			c0.01,0,0.01,0,0.02,0.01c0.01,0,0.01,0.01,0.01,0.01v0C17.74,4.71,17.73,4.76,17.7,4.8"/>
	</g>
</g>
</svg>
