<?xml version="1.0" encoding="utf-8"?>
<!-- Generator: Adobe Illustrator 27.3.1, SVG Export Plug-In . SVG Version: 6.00 Build 0)  -->
<svg version="1.1" id="Layer_1" xmlns="http://www.w3.org/2000/svg" xmlns:xlink="http://www.w3.org/1999/xlink" x="0px" y="0px"
	 viewBox="0 0 146.32 32.92" style="enable-background:new 0 0 146.32 32.92;" xml:space="preserve">
<style type="text/css">
	.st0{fill:none;stroke:#FFFFFF;stroke-miterlimit:10;}
	.st1{fill:#FFFFFF;}
	.st2{fill:#FF0000;}
	.st3{fill:#FF0000;stroke:#FFFFFF;stroke-width:2;stroke-miterlimit:10;}
	.st4{stroke:#000000;stroke-miterlimit:10;}
	.st5{fill-rule:evenodd;clip-rule:evenodd;fill:#FFFFFF;}
	.st6{fill-rule:evenodd;clip-rule:evenodd;fill:#FF0000;}
	.st7{fill-rule:evenodd;clip-rule:evenodd;fill:#070808;}
	.st8{fill-rule:evenodd;clip-rule:evenodd;}
	.st9{fill-rule:evenodd;clip-rule:evenodd;fill:#F2F2F2;}
</style>
<g>
	<g>
		<path class="st0" d="M76.4,7.82h-4.61l-6.52,17.14l12.07-4.29l6.45,6.8L76.4,7.82z M72.4,18.58l1.58-4.49l2.12,2.8L72.4,18.58z"/>
		<path class="st0" d="M136.09,7.82h-4.61l-6.52,17.14l12.07-4.29l6.45,6.8L136.09,7.82z M132.09,18.58l1.57-4.49l2.12,2.8
			L132.09,18.58z"/>
		<polygon class="st0" points="102.45,7.78 102.45,22.49 98.08,25.21 92.4,17.08 92.22,22.83 87.3,25.14 87.29,11.91 85.57,11.97 
			87.2,7.78 91.95,7.78 97.73,16.21 97.73,7.78 		"/>
		<path class="st0" d="M66.17,11.34c-0.06-0.74-0.29-1.38-0.69-1.91c-0.4-0.53-0.98-0.94-1.71-1.22c-0.72-0.28-1.6-0.41-2.6-0.41
			H54.1l-2.78,3.72l1.6-0.11l-5.67,15.99l5.32-2.08l2-5.64l1.96,0.3c0.95,0,1.9-0.13,2.82-0.39c0.95-0.26,1.84-0.65,2.67-1.16
			c0.83-0.51,1.58-1.16,2.23-1.94c0.65-0.77,1.16-1.67,1.51-2.67C66.09,12.91,66.23,12.07,66.17,11.34 M61.83,13.88
			c-0.27,0.75-0.73,1.34-1.42,1.79c-0.7,0.46-1.56,0.7-2.53,0.7H55l1.76-4.98h2.88c0.97,0,1.66,0.22,2.06,0.64
			C62.09,12.43,62.13,13.04,61.83,13.88"/>
		<path class="st0" d="M122.01,13.13l-0.02-0.05c-0.42-1.05-1.04-1.99-1.82-2.77c-0.78-0.78-1.72-1.39-2.79-1.83
			c-1.08-0.43-2.27-0.66-3.54-0.66h-6.41l-1.62,4.33l1.72-0.03V25.3h6.31c0.09,0,0.18,0,0.27,0l7.79-5.06
			c0.03-0.07,0.07-0.15,0.1-0.24c0.43-1.07,0.64-2.24,0.64-3.46C122.64,15.33,122.43,14.18,122.01,13.13 M118.57,15.67l-0.01,0.17
			L113,19.45h-0.48v-8.03h1.32c0.76,0,1.47,0.13,2.09,0.39c0.62,0.26,1.14,0.62,1.56,1.07c0.4,0.43,0.89,1.14,1.01,1.67
			C118.56,14.82,118.59,15.26,118.57,15.67"/>
	</g>
	<g>
		<g>
			<path class="st1" d="M72.75,15.08c1.93,0,1.93-3,0-3C70.82,12.08,70.81,15.08,72.75,15.08L72.75,15.08z"/>
		</g>
	</g>
</g>
<g>
	<g>
		<path d="M76.4,7.82h-4.61l-6.52,17.14l12.07-4.29l6.45,6.8L76.4,7.82z M72.4,18.58l1.58-4.49l2.12,2.8L72.4,18.58z"/>
		<path d="M136.09,7.82h-4.61l-6.52,17.14l12.07-4.29l6.45,6.8L136.09,7.82z M132.09,18.58l1.57-4.49l2.12,2.8L132.09,18.58z"/>
		<polygon points="102.45,7.78 102.45,22.49 98.08,25.21 92.4,17.08 92.22,22.83 87.3,25.14 87.29,11.91 85.57,11.97 87.2,7.78 
			91.95,7.78 97.73,16.21 97.73,7.78 		"/>
		<path d="M66.17,11.34c-0.06-0.74-0.29-1.38-0.69-1.91c-0.4-0.53-0.98-0.94-1.71-1.22c-0.72-0.28-1.6-0.41-2.6-0.41H54.1
			l-2.78,3.72l1.6-0.11l-5.67,15.99l5.32-2.08l2-5.64l1.96,0.3c0.95,0,1.9-0.13,2.82-0.39c0.95-0.26,1.84-0.65,2.67-1.16
			c0.83-0.51,1.58-1.16,2.23-1.94c0.65-0.77,1.16-1.67,1.51-2.67C66.09,12.91,66.23,12.07,66.17,11.34 M61.83,13.88
			c-0.27,0.75-0.73,1.34-1.42,1.79c-0.7,0.46-1.56,0.7-2.53,0.7H55l1.76-4.98h2.88c0.97,0,1.66,0.22,2.06,0.64
			C62.09,12.43,62.13,13.04,61.83,13.88"/>
		<path d="M122.01,13.13l-0.02-0.05c-0.42-1.05-1.04-1.99-1.82-2.77c-0.78-0.78-1.72-1.39-2.79-1.83c-1.08-0.43-2.27-0.66-3.54-0.66
			h-6.41l-1.62,4.33l1.72-0.03V25.3h6.31c0.09,0,0.18,0,0.27,0l7.79-5.06c0.03-0.07,0.07-0.15,0.1-0.24
			c0.43-1.07,0.64-2.24,0.64-3.46C122.64,15.33,122.43,14.18,122.01,13.13 M118.57,15.67l-0.01,0.17L113,19.45h-0.48v-8.03h1.32
			c0.76,0,1.47,0.13,2.09,0.39c0.62,0.26,1.14,0.62,1.56,1.07c0.4,0.43,0.89,1.14,1.01,1.67C118.56,14.82,118.59,15.26,118.57,15.67
			"/>
	</g>
</g>
<g>
	<path class="st6" d="M40.78,9.76c0,0,1.97-6.96-4.37-7.21c-0.45-0.01-1.04,0.02-1.9,0.38c-0.83,0.34-1.65,0.82-1.65,0.82
		s-3.77-2.45-9.63-2.47h-0.07c-2.93,0.01-5.34,0.63-7.01,1.24c-1.68,0.62-2.62,1.23-2.62,1.23s-0.82-0.48-1.65-0.82
		c-0.86-0.36-1.45-0.39-1.9-0.38C3.64,2.8,5.61,9.76,5.61,9.76c-3.34,2.62-3.94,10.86-3.94,10.86c-0.11,0.66,0.85,1.6,1.85,0.91
		c0.18-0.13,0.12,0.1,0.04,0.54c-0.31,1.84,0.52,3.46,0.87,3.83c0.34,0.37,1.72-0.94,1.72-0.94l1.13,0.43c0,0,3.77,1.5,4.74,1.84
		c0.96,0.36,0.84-0.61,0.84-0.61c0.11,1.25,1.06,2.55,1.99,3.33c0.65,0.54,2.32,0.73,8.31,0.77h0.07c3-0.02,4.91-0.08,6.16-0.2
		c1.24-0.12,1.82-0.3,2.15-0.57c0.93-0.78,1.88-2.08,1.99-3.33c0,0-0.12,0.97,0.84,0.61c0.97-0.34,4.74-1.84,4.74-1.84l1.13-0.43
		c0,0,1.38,1.31,1.72,0.94c0.35-0.37,1.18-1.99,0.87-3.83c-0.07-0.44-0.14-0.67,0.04-0.54c1,0.69,1.96-0.25,1.85-0.91
		C44.72,20.62,44.12,12.38,40.78,9.76z M29.67,28.08c-0.04,0.36-0.19,0.44-0.51,0.44c-1.88-0.01-3.77-0.01-5.65-0.01h-0.63
		c-1.88,0-3.77,0-5.65,0.01c-0.32,0-0.47-0.08-0.51-0.44c-0.1-0.99,0.01-1.96,0.11-2.94c0.05-0.57,0.05-1.17,0.25-1.75
		c0,0.03,0.19,0.33,0.21,0.38c0.05,0.13,0.07,0.28,0.1,0.42c0.15,0.81,0.38,1.59,0.56,2.39c0.06,0.28,0.28,0.22,0.47,0.22h9.55
		c0.19,0,0.41,0.06,0.47-0.22c0.18-0.8,0.41-1.58,0.56-2.39c0.03-0.14,0.05-0.29,0.1-0.42c0.02-0.05,0.21-0.35,0.21-0.38
		c0.2,0.58,0.2,1.18,0.25,1.75C29.66,26.12,29.77,27.09,29.67,28.08z M18.76,17.05c0.01-0.26,0.05-0.51,0.1-0.76
		c0.02-0.14,0.05-0.28,0.07-0.42c0.07-0.44,0.38-0.66,0.84-0.66h6.85c0.46,0,0.77,0.22,0.84,0.66c0.02,0.14,0.05,0.28,0.07,0.42
		c0.05,0.25,0.09,0.5,0.1,0.76c0,0.13,0,0.26-0.01,0.39c-0.02,0.13-0.04,0.26-0.06,0.39c-0.01,0.1-0.05,0.22-0.17,0.23
		c-0.12,0-0.18-0.07-0.21-0.16c-0.05-0.13-0.11-0.26-0.18-0.38c-0.07-0.14-0.25-0.65-0.58-0.64c-1.08,0.02-5.37,0.02-6.45,0
		c-0.33-0.01-0.51,0.5-0.58,0.64c-0.07,0.12-0.13,0.25-0.18,0.38c-0.03,0.09-0.09,0.16-0.2,0.16c-0.13-0.01-0.17-0.13-0.18-0.23
		c-0.02-0.13-0.04-0.26-0.06-0.39C18.76,17.31,18.76,17.18,18.76,17.05z M42.77,19.11c-0.07,0.04-0.13-0.02-0.18-0.05
		c-0.46-0.29-0.9-0.58-1.35-0.86c-0.52-0.33-1.05-0.66-1.57-0.99c1.15,2.18,1.86,4.45,1.87,6.91c-0.28-0.5-0.53-1.02-0.75-1.54
		c-0.11-0.25-0.21-0.26-0.44-0.16c-1.89,0.76-3.78,1.5-5.67,2.25c-0.21,0.09-0.34,0.1-0.35-0.2c-0.04-1.17-0.24-2.31-0.61-3.42
		c-0.28-0.87-0.67-1.68-1.33-2.35c-0.14,0.15-0.08,0.29-0.08,0.43c0.11,1.5,0.09,3-0.07,4.49c-0.17,1.52-0.44,3-1.13,4.37
		c-0.3,0.35-0.32,0.11-0.35-0.3c-0.04-0.51-0.01-1.01,0.03-1.52c0.19-2.44-0.37-4.52-0.96-6.86c-0.54-2.15-1-2.89-1.38-4.33
		c-0.05-0.21-0.11-0.43-0.16-0.65c0-0.02-0.01-0.03-0.01-0.05c-0.05-0.14-0.1-0.27-0.15-0.41c-0.02-0.03-0.04-0.07-0.05-0.11
		c-0.03-0.1-0.07-0.2-0.11-0.32c0.04,0.25,0.11,0.47,0.12,0.7c0.02,0.28-0.08,0.46-0.28,0.51c0,0-0.24,0.03-0.39-0.04
		c-0.34-0.14-0.71-0.18-1.1-0.19c-0.83-0.01-1.66-0.04-2.42-0.43c-0.05-0.01-0.08-0.04-0.12-0.07c-0.27-0.2-0.46-0.47-0.58-0.81
		c-0.13,0.34-0.32,0.61-0.59,0.81c-0.04,0.03-0.07,0.06-0.11,0.07c-0.77,0.39-1.6,0.42-2.43,0.43c-0.39,0.01-0.76,0.05-1.1,0.19
		c-0.15,0.07-0.39,0.04-0.39,0.04c-0.2-0.05-0.3-0.23-0.28-0.51c0.01-0.23,0.08-0.45,0.12-0.7c-0.04,0.12-0.08,0.22-0.11,0.32
		c-0.01,0.04-0.03,0.08-0.05,0.11c-0.05,0.14-0.1,0.27-0.15,0.41c0,0.02-0.01,0.03-0.01,0.05c-0.05,0.22-0.11,0.44-0.16,0.65
		c-0.38,1.44-0.84,2.18-1.38,4.33c-0.59,2.34-1.15,4.42-0.96,6.86c0.04,0.51,0.07,1.01,0.03,1.52c-0.02,0.41-0.05,0.65-0.35,0.3
		c-0.69-1.37-0.96-2.85-1.13-4.37c-0.16-1.49-0.18-2.99-0.07-4.49c0-0.14,0.06-0.28-0.08-0.43c-0.65,0.67-1.05,1.48-1.33,2.35
		c-0.37,1.11-0.57,2.25-0.61,3.42c-0.01,0.3-0.14,0.29-0.35,0.2c-1.89-0.75-3.78-1.49-5.67-2.25c-0.23-0.1-0.33-0.09-0.44,0.16
		c-0.22,0.52-0.47,1.04-0.75,1.54c0.01-2.46,0.72-4.73,1.87-6.91c-0.52,0.33-1.05,0.66-1.57,0.99c-0.45,0.28-0.89,0.57-1.34,0.86
		c-0.06,0.03-0.12,0.09-0.19,0.05C3.54,19.07,3.55,19,3.57,18.93c0.7-2.57,0.86-4.84,2.38-7.11c0.37-0.55,0.88-1.37,1.26-1.82
		c0.12-0.14,0.18-0.26,0.04-0.44c-0.74-0.98-0.89-2.34-0.54-3.5c0.46-1.66,2.43-2.52,4.21-2.04c0.73,0.19,1.55,0.94,2.04,1.31
		c0.02,0.01,0.05,0.04,0.11,0.03c0.72-0.41,1.38-0.69,2.14-1.01c1.86-0.78,3.8-1.26,5.8-1.48c0.72-0.08,1.43-0.12,2.15-0.13h0.07
		c0.72,0.01,1.43,0.05,2.15,0.13c2,0.22,3.94,0.7,5.8,1.48c0.76,0.32,1.42,0.6,2.14,1.01c0.06,0.01,0.09-0.02,0.11-0.03
		c0.49-0.37,1.31-1.12,2.04-1.31c1.78-0.48,3.75,0.38,4.21,2.04c0.35,1.16,0.2,2.52-0.54,3.5C39,9.74,39.06,9.86,39.18,10
		c0.38,0.45,0.89,1.27,1.26,1.82c1.52,2.27,1.68,4.54,2.38,7.11C42.84,19,42.85,19.07,42.77,19.11z"/>
	<path class="st8" d="M12.43,5.72c-0.1-0.03-0.37,0.24-0.45,0.29c-0.18,0.14-0.37,0.27-0.55,0.4c-0.36,0.25-0.73,0.5-1.08,0.77
		c-0.33,0.25-0.41,0.21-0.56-0.19L9.76,6.84C9.69,6.58,9.69,6.3,9.6,6C9.32,6.34,9.25,6.59,9.24,6.94v0.05
		c0,0.05,0.01,0.23,0.02,0.28c0,0.02,0,0.04,0.01,0.05c0.01,0.12,0.12,0.55,0.12,0.55S8.93,8.36,8.66,8.66
		C8.62,8.7,8.57,8.74,8.51,8.78c-0.14,0.13-0.27,0.26-0.4,0.4c-0.17,0.2-0.29,0.14-0.4-0.04C7.66,9.07,7.62,8.99,7.58,8.92
		C7.37,8.54,7.19,8.16,7.12,7.74c0-0.04-0.01-0.08-0.01-0.12C7.1,7.55,7.1,7.47,7.1,7.39V7.2c0-0.03,0.01-0.06,0.01-0.09
		c0.01-0.07,0.02-0.13,0.03-0.2C7.15,6.84,7.17,6.77,7.19,6.7c0.1-0.36,0.28-0.71,0.53-1.04c0.04-0.06,0.1-0.12,0.16-0.18
		C7.91,5.45,7.94,5.43,7.96,5.4c0.16-0.14,0.32-0.26,0.51-0.37l0.01-0.01C8.51,5,8.53,4.99,8.56,4.97C8.89,4.78,9.24,4.63,9.6,4.56
		c0.04,0,0.08-0.01,0.12-0.02c0.04,0,0.08-0.01,0.13-0.01c0.03,0,0.06,0,0.1-0.01h0.12c0.43,0,0.71,0.13,1.1,0.32
		c0.01,0.01,0.03,0.02,0.04,0.03c0.09,0.04,0.17,0.09,0.25,0.14c0.26,0.16,0.5,0.34,0.73,0.53c0.04,0.04,0.09,0.07,0.13,0.1
		c0.02,0.02,0.05,0.04,0.07,0.06C12.4,5.71,12.42,5.72,12.43,5.72z"/>
	<path class="st8" d="M39.29,7.2v0.19c0,0.08,0,0.16-0.01,0.23c0,0.04-0.01,0.08-0.01,0.12c-0.07,0.42-0.25,0.8-0.46,1.18
		c-0.04,0.07-0.08,0.15-0.13,0.22c-0.11,0.18-0.23,0.24-0.4,0.04c-0.13-0.14-0.26-0.27-0.4-0.4c-0.06-0.04-0.11-0.08-0.15-0.12
		C37.46,8.36,37,7.87,37,7.87s0.11-0.43,0.12-0.55c0.01-0.01,0.01-0.03,0.01-0.05c0.01-0.05,0.02-0.23,0.02-0.28V6.94
		c-0.01-0.35-0.08-0.6-0.36-0.94c-0.09,0.3-0.09,0.58-0.15,0.84c-0.02,0.05-0.03,0.1-0.04,0.15c-0.15,0.4-0.23,0.44-0.56,0.19
		c-0.35-0.27-0.72-0.52-1.08-0.77c-0.18-0.13-0.37-0.26-0.55-0.4c-0.08-0.05-0.34-0.32-0.45-0.29c0.01,0,0.03-0.01,0.04-0.02
		c0.02-0.02,0.05-0.04,0.07-0.06c0.04-0.03,0.09-0.06,0.13-0.1c0.23-0.19,0.47-0.37,0.73-0.53c0.08-0.05,0.16-0.1,0.25-0.14
		c0.01-0.01,0.03-0.02,0.04-0.03c0.39-0.19,0.67-0.32,1.1-0.32h0.12c0.04,0.01,0.07,0.01,0.1,0.01c0.05,0,0.09,0.01,0.13,0.01
		c0.04,0.01,0.08,0.02,0.13,0.02c0.35,0.07,0.7,0.22,1.03,0.41c0.03,0.02,0.05,0.03,0.08,0.05c0.01,0.01,0.01,0.01,0.02,0.02
		c0.18,0.11,0.35,0.23,0.5,0.36c0.02,0.03,0.05,0.05,0.08,0.08c0.06,0.06,0.12,0.12,0.17,0.18c0.25,0.33,0.42,0.68,0.52,1.04
		c0.02,0.07,0.04,0.14,0.05,0.21c0.01,0.07,0.02,0.13,0.03,0.2C39.28,7.14,39.29,7.17,39.29,7.2z"/>
	<path class="st8" d="M37.58,14.35c-0.55-1.14-1.2-2.21-1.91-3.25c-1.17-1.51-2.63-2.67-4.3-3.57c-1.17-0.64-3.79-1.37-3.86-1.37
		c0.42,0.2,0.84,0.39,1.25,0.59c0.32,0.17,0.38,0.42,0.15,0.68c-0.61,0.74-1.36,1.14-2.36,0.96c-0.73-0.13-1.47-0.13-2.21-0.01
		c-0.37,0.07-0.76-0.05-1.13-0.02c-0.01,0-0.01,0-0.01,0c-0.01,0-0.01,0-0.02,0c-0.37-0.03-0.76,0.09-1.13,0.02
		c-0.74-0.12-1.48-0.12-2.21,0.01c-1,0.18-1.75-0.22-2.36-0.96c-0.23-0.26-0.17-0.51,0.15-0.68c0.41-0.2,0.83-0.39,1.25-0.59
		c-0.07,0-2.69,0.73-3.86,1.37c-1.67,0.9-3.13,2.06-4.3,3.57c-0.71,1.04-1.36,2.11-1.91,3.25c-0.04,0.09-0.1,0.18-0.03,0.27
		c0.01,0.02,0.02,0.03,0.03,0.03c0.47-0.13,0.96-0.25,1.45-0.34c0.87-0.16,1.76-0.26,2.67-0.28c0.07-0.01,0.13-0.01,0.19-0.01
		c0.11,0.02,0.15,0.04,0.15,0.08c0,0.06-0.06,0.16-0.13,0.35c-0.14,0.38-0.23,0.78-0.28,1.23c-0.02,0.16,0.07,0.17,0.14,0.07
		c0.32-0.62,0.71-1.17,1.13-1.71c0.14-0.18,0.27-0.37,0.42-0.55c0.56-0.66,1.14-1.3,1.83-1.84c1.24-0.96,2.51-1.83,4.02-2.3
		c0.32-0.09,0.49-0.09,0.67,0.29c0.4,0.85,1.16,1.23,2.08,1.23h0.09c0.92,0,1.68-0.38,2.08-1.23c0.18-0.38,0.35-0.38,0.67-0.29
		c1.51,0.47,2.78,1.34,4.02,2.3c0.69,0.54,1.27,1.18,1.83,1.84c0.15,0.18,0.28,0.37,0.42,0.55c0.42,0.54,0.81,1.09,1.13,1.71
		c0.03,0.04,0.06,0.06,0.09,0.06c0.04,0,0.06-0.04,0.05-0.13c-0.05-0.45-0.14-0.85-0.28-1.23c-0.12-0.34-0.22-0.39,0.02-0.43
		c0.06,0,0.12,0,0.19,0.01c0.91,0.02,1.8,0.12,2.67,0.28c0.49,0.09,0.98,0.21,1.46,0.34c0,0,0.01-0.01,0.02-0.03
		C37.68,14.53,37.62,14.44,37.58,14.35z M16.86,9.44c-0.02,0.02-0.04,0.04-0.07,0.05c-0.03,0.02-0.06,0.03-0.09,0.03
		c-0.02,0-0.04,0.01-0.06,0.01c-0.27,0.07-0.53,0.2-0.69,0.2h-0.12l-0.01-0.01H15.8c-0.01,0-0.01,0-0.01,0h-0.01
		c-0.02,0-0.04,0-0.06-0.01c-0.04,0-0.09-0.01-0.13-0.02c-0.04-0.02-0.08-0.03-0.12-0.04c-0.02-0.01-0.03-0.01-0.05-0.02
		c-0.01-0.01-0.03-0.01-0.04-0.03c-0.01,0-0.01,0-0.02-0.01c-0.01,0-0.01-0.01-0.02-0.01c-0.02-0.01-0.04-0.02-0.06-0.03
		c-0.01-0.01-0.01-0.01-0.02-0.02c-0.04-0.03-0.08-0.06-0.13-0.1l-0.12-0.12c-0.03-0.05-0.07-0.09-0.11-0.14
		c-0.05-0.07-0.08-0.15-0.01-0.23c0.01-0.01,0.02-0.02,0.03-0.02c0.01-0.01,0.02-0.01,0.03-0.01h0.01c0.04-0.02,0.08-0.02,0.13,0
		c0.06,0.03,0.12,0.06,0.18,0.08c0.1,0.04,0.2,0.07,0.3,0.08c0.01,0.01,0.01,0.01,0.02,0.01c0.06,0.01,0.11,0.02,0.17,0.03
		c0.05,0.01,0.11,0.02,0.16,0.02c0.17,0.02,0.33,0.03,0.49,0.05c0.07,0,0.13,0.01,0.19,0.02c0.11,0.01,0.28-0.01,0.29,0.16
		C16.89,9.4,16.88,9.43,16.86,9.44z M31.49,9.17c-0.04,0.05-0.08,0.09-0.11,0.14l-0.12,0.12c-0.05,0.04-0.09,0.07-0.13,0.1
		c-0.01,0.01-0.01,0.01-0.02,0.02c-0.02,0.01-0.04,0.02-0.06,0.03c0,0-0.01,0.01-0.02,0.01L31.02,9.6C31,9.61,30.99,9.62,30.97,9.63
		s-0.03,0.01-0.05,0.02c-0.04,0.01-0.08,0.02-0.12,0.04c-0.04,0.01-0.09,0.02-0.13,0.02c-0.02,0.01-0.04,0.01-0.06,0.01h-0.03
		c-0.01,0-0.01,0-0.01,0s0,0.01-0.01,0.01h-0.12c-0.16,0-0.42-0.13-0.69-0.2c-0.1-0.02-0.25-0.03-0.25-0.17
		c0.01-0.17,0.18-0.15,0.29-0.16c0.06-0.01,0.13-0.02,0.19-0.02c0.16-0.02,0.32-0.03,0.49-0.05c0.05,0,0.11-0.01,0.16-0.02
		c0.06-0.01,0.11-0.02,0.17-0.03c0.01,0,0.01,0,0.02-0.01c0.1-0.01,0.2-0.04,0.3-0.08c0.06-0.02,0.12-0.05,0.18-0.08
		c0.05-0.02,0.09-0.02,0.13,0h0.01c0.01,0,0.02,0,0.03,0.01c0.01,0,0.02,0.01,0.03,0.02c0.03,0.03,0.04,0.07,0.04,0.1
		C31.54,9.09,31.52,9.13,31.49,9.17z"/>
</g>
<g>
	<path class="st5" d="M27.63,17.05c0,0.13,0,0.26-0.01,0.39c-0.02,0.13-0.04,0.26-0.06,0.39c-0.01,0.1-0.05,0.22-0.17,0.23
		c-0.12,0-0.18-0.07-0.21-0.16c-0.05-0.13-0.11-0.26-0.18-0.38c-0.07-0.14-0.25-0.65-0.58-0.64c-1.08,0.02-5.37,0.02-6.45,0
		c-0.33-0.01-0.51,0.5-0.58,0.64c-0.07,0.12-0.13,0.25-0.18,0.38c-0.03,0.09-0.09,0.16-0.2,0.16c-0.13-0.01-0.17-0.13-0.18-0.23
		c-0.02-0.13-0.04-0.26-0.06-0.39c-0.01-0.13-0.01-0.26-0.01-0.39c0.01-0.26,0.05-0.51,0.1-0.76c0.02-0.14,0.05-0.28,0.07-0.42
		c0.07-0.44,0.38-0.66,0.84-0.66h6.85c0.46,0,0.77,0.22,0.84,0.66c0.02,0.14,0.05,0.28,0.07,0.42
		C27.58,16.54,27.62,16.79,27.63,17.05z"/>
	<path class="st5" d="M29.67,28.08c-0.04,0.36-0.19,0.44-0.51,0.44c-1.88-0.01-3.77-0.01-5.65-0.01h-0.63c-1.88,0-3.77,0-5.65,0.01
		c-0.32,0-0.47-0.08-0.51-0.44c-0.1-0.99,0.01-1.96,0.11-2.94c0.05-0.57,0.05-1.17,0.25-1.75c0,0.03,0.19,0.33,0.21,0.38
		c0.05,0.13,0.07,0.28,0.1,0.42c0.15,0.81,0.38,1.59,0.56,2.39c0.06,0.28,0.28,0.22,0.47,0.22h9.55c0.19,0,0.41,0.06,0.47-0.22
		c0.18-0.8,0.41-1.58,0.56-2.39c0.03-0.14,0.05-0.29,0.1-0.42c0.02-0.05,0.21-0.35,0.21-0.38c0.2,0.58,0.2,1.18,0.25,1.75
		C29.66,26.12,29.77,27.09,29.67,28.08z"/>
	<path class="st5" d="M42.82,18.93c-0.7-2.57-0.86-4.84-2.38-7.11c-0.37-0.55-0.88-1.37-1.26-1.82C39.06,9.86,39,9.74,39.14,9.56
		c0.74-0.98,0.89-2.34,0.54-3.5c-0.46-1.66-2.43-2.52-4.21-2.04c-0.73,0.19-1.55,0.94-2.04,1.31c-0.02,0.01-0.05,0.04-0.11,0.03
		c-0.72-0.41-1.38-0.69-2.14-1.01c-1.86-0.78-3.8-1.26-5.8-1.48c-0.72-0.08-1.43-0.12-2.15-0.13h-0.07
		c-0.72,0.01-1.43,0.05-2.15,0.13c-2,0.22-3.94,0.7-5.8,1.48c-0.76,0.32-1.42,0.6-2.14,1.01c-0.06,0.01-0.09-0.02-0.11-0.03
		c-0.49-0.37-1.31-1.12-2.04-1.31C9.14,3.54,7.17,4.4,6.71,6.06c-0.35,1.16-0.2,2.52,0.54,3.5C7.39,9.74,7.33,9.86,7.21,10
		c-0.38,0.45-0.89,1.27-1.26,1.82c-1.52,2.27-1.68,4.54-2.38,7.11C3.55,19,3.54,19.07,3.62,19.11c0.07,0.04,0.13-0.02,0.19-0.05
		c0.45-0.29,0.89-0.58,1.34-0.86c0.52-0.33,1.05-0.66,1.57-0.99c-1.15,2.18-1.86,4.45-1.87,6.91c0.28-0.5,0.53-1.02,0.75-1.54
		c0.11-0.25,0.21-0.26,0.44-0.16c1.89,0.76,3.78,1.5,5.67,2.25c0.21,0.09,0.34,0.1,0.35-0.2c0.04-1.17,0.24-2.31,0.61-3.42
		c0.28-0.87,0.68-1.68,1.33-2.35c0.14,0.15,0.08,0.29,0.08,0.43c-0.11,1.5-0.09,3,0.07,4.49c0.17,1.52,0.44,3,1.13,4.37
		c0.3,0.35,0.33,0.11,0.35-0.3c0.04-0.51,0.01-1.01-0.03-1.52c-0.19-2.44,0.37-4.52,0.96-6.86c0.54-2.15,1-2.89,1.38-4.33
		c0.05-0.21,0.11-0.43,0.16-0.65c0-0.02,0.01-0.03,0.01-0.05c0.05-0.14,0.1-0.27,0.15-0.41c0.02-0.03,0.04-0.07,0.05-0.11
		c0.03-0.1,0.07-0.2,0.11-0.32c-0.04,0.25-0.11,0.47-0.12,0.7c-0.02,0.28,0.08,0.46,0.28,0.51c0,0,0.24,0.03,0.39-0.04
		c0.34-0.14,0.71-0.18,1.1-0.19c0.83-0.01,1.66-0.04,2.43-0.43c0.04-0.01,0.07-0.04,0.11-0.07c0.27-0.2,0.46-0.47,0.59-0.81
		c0.12,0.34,0.31,0.61,0.58,0.81c0.04,0.03,0.07,0.06,0.12,0.07c0.76,0.39,1.59,0.42,2.42,0.43c0.39,0.01,0.76,0.05,1.1,0.19
		c0.15,0.07,0.39,0.04,0.39,0.04c0.2-0.05,0.3-0.23,0.28-0.51c-0.01-0.23-0.08-0.45-0.12-0.7c0.04,0.12,0.08,0.22,0.11,0.32
		c0.01,0.04,0.03,0.08,0.05,0.11c0.05,0.14,0.1,0.27,0.15,0.41c0,0.02,0.01,0.03,0.01,0.05c0.05,0.22,0.11,0.44,0.16,0.65
		c0.38,1.44,0.84,2.18,1.38,4.33c0.59,2.34,1.15,4.42,0.96,6.86c-0.04,0.51-0.07,1.01-0.03,1.52c0.03,0.41,0.05,0.65,0.35,0.3
		c0.69-1.37,0.96-2.85,1.13-4.37c0.16-1.49,0.18-2.99,0.07-4.49c0-0.14-0.06-0.28,0.08-0.43c0.66,0.67,1.05,1.48,1.33,2.35
		c0.37,1.11,0.57,2.25,0.61,3.42c0.01,0.3,0.14,0.29,0.35,0.2c1.89-0.75,3.78-1.49,5.67-2.25c0.23-0.1,0.33-0.09,0.44,0.16
		c0.22,0.52,0.47,1.04,0.75,1.54c-0.01-2.46-0.72-4.73-1.87-6.91c0.52,0.33,1.05,0.66,1.57,0.99c0.45,0.28,0.89,0.57,1.35,0.86
		c0.05,0.03,0.11,0.09,0.18,0.05C42.85,19.07,42.84,19,42.82,18.93z M8.51,8.78c-0.14,0.13-0.27,0.26-0.4,0.4
		c-0.17,0.2-0.29,0.14-0.4-0.04C7.66,9.07,7.62,8.99,7.58,8.92C7.37,8.54,7.19,8.16,7.12,7.74c0-0.04-0.01-0.08-0.01-0.12
		C7.1,7.55,7.1,7.47,7.1,7.39V7.2c0-0.03,0.01-0.06,0.01-0.09c0.01-0.07,0.02-0.13,0.03-0.2C7.15,6.84,7.17,6.77,7.19,6.7
		c0.1-0.36,0.28-0.71,0.53-1.04c0.04-0.06,0.1-0.12,0.16-0.18C7.91,5.45,7.94,5.43,7.96,5.4c0.16-0.14,0.32-0.26,0.51-0.37
		l0.01-0.01C8.51,5,8.53,4.99,8.56,4.97C8.89,4.78,9.24,4.63,9.6,4.56c0.04,0,0.08-0.01,0.12-0.02c0.04,0,0.08-0.01,0.13-0.01
		c0.03,0,0.06,0,0.1-0.01h0.12c0.43,0,0.71,0.13,1.1,0.32c0.01,0.01,0.03,0.02,0.04,0.03c0.09,0.04,0.17,0.09,0.25,0.14
		c0.26,0.16,0.5,0.34,0.73,0.53c0.04,0.04,0.09,0.07,0.13,0.1c0.02,0.02,0.05,0.04,0.07,0.06c0.01,0.01,0.03,0.02,0.04,0.02
		c-0.1-0.03-0.37,0.24-0.45,0.29c-0.18,0.14-0.37,0.27-0.55,0.4c-0.36,0.25-0.73,0.5-1.08,0.77c-0.33,0.25-0.41,0.21-0.56-0.19
		L9.76,6.84C9.69,6.58,9.69,6.3,9.6,6C9.32,6.34,9.25,6.59,9.24,6.94v0.05c0,0.05,0.01,0.23,0.02,0.28c0,0.02,0,0.04,0.01,0.05
		c0.01,0.12,0.12,0.55,0.12,0.55S8.93,8.36,8.66,8.66C8.62,8.7,8.57,8.74,8.51,8.78z M37.61,14.62c-0.01,0.02-0.02,0.03-0.02,0.03
		c-0.48-0.13-0.97-0.25-1.46-0.34c-0.87-0.16-1.76-0.26-2.67-0.28c-0.07-0.01-0.13-0.01-0.19-0.01c-0.24,0.04-0.14,0.09-0.02,0.43
		c0.14,0.38,0.23,0.78,0.28,1.23c0.01,0.09-0.01,0.13-0.05,0.13c-0.03,0-0.06-0.02-0.09-0.06c-0.32-0.62-0.71-1.17-1.13-1.71
		c-0.14-0.18-0.27-0.37-0.42-0.55c-0.56-0.66-1.14-1.3-1.83-1.84c-1.24-0.96-2.51-1.83-4.02-2.3c-0.32-0.09-0.49-0.09-0.67,0.29
		c-0.4,0.85-1.16,1.23-2.08,1.23h-0.09c-0.92,0-1.68-0.38-2.08-1.23c-0.18-0.38-0.35-0.38-0.67-0.29c-1.51,0.47-2.78,1.34-4.02,2.3
		c-0.69,0.54-1.27,1.18-1.83,1.84c-0.15,0.18-0.28,0.37-0.42,0.55c-0.42,0.54-0.81,1.09-1.13,1.71c-0.07,0.1-0.16,0.09-0.14-0.07
		c0.05-0.45,0.14-0.85,0.28-1.23c0.07-0.19,0.13-0.29,0.13-0.35c0-0.04-0.04-0.06-0.15-0.08c-0.06,0-0.12,0-0.19,0.01
		c-0.91,0.02-1.8,0.12-2.67,0.28c-0.49,0.09-0.98,0.21-1.45,0.34c-0.01,0-0.02-0.01-0.03-0.03c-0.07-0.09-0.01-0.18,0.03-0.27
		c0.55-1.14,1.2-2.21,1.91-3.25c1.17-1.51,2.63-2.67,4.3-3.57c1.17-0.64,3.79-1.37,3.86-1.37c-0.42,0.2-0.84,0.39-1.25,0.59
		c-0.32,0.17-0.38,0.42-0.15,0.68c0.61,0.74,1.36,1.14,2.36,0.96c0.73-0.13,1.47-0.13,2.21-0.01c0.37,0.07,0.76-0.05,1.13-0.02
		c0.01,0,0.01,0,0.02,0c0,0,0,0,0.01,0c0.37-0.03,0.76,0.09,1.13,0.02c0.74-0.12,1.48-0.12,2.21,0.01c1,0.18,1.75-0.22,2.36-0.96
		c0.23-0.26,0.17-0.51-0.15-0.68c-0.41-0.2-0.83-0.39-1.25-0.59c0.07,0,2.69,0.73,3.86,1.37c1.67,0.9,3.13,2.06,4.3,3.57
		c0.71,1.04,1.36,2.11,1.91,3.25C37.62,14.44,37.68,14.53,37.61,14.62z M38.68,9.14c-0.11,0.18-0.23,0.24-0.4,0.04
		c-0.13-0.14-0.26-0.27-0.4-0.4c-0.06-0.04-0.11-0.08-0.15-0.12C37.46,8.36,37,7.87,37,7.87s0.11-0.43,0.12-0.55
		c0.01-0.01,0.01-0.03,0.01-0.05c0.01-0.05,0.02-0.23,0.02-0.28V6.94c-0.01-0.35-0.08-0.6-0.36-0.94c-0.09,0.3-0.09,0.58-0.15,0.84
		c-0.02,0.05-0.03,0.1-0.04,0.15c-0.15,0.4-0.23,0.44-0.56,0.19c-0.35-0.27-0.72-0.52-1.08-0.77c-0.18-0.13-0.37-0.26-0.55-0.4
		c-0.08-0.05-0.34-0.32-0.45-0.29c0.01,0,0.03-0.01,0.04-0.02c0.02-0.02,0.05-0.04,0.07-0.06c0.04-0.03,0.09-0.06,0.13-0.1
		c0.23-0.19,0.47-0.37,0.73-0.53c0.08-0.05,0.16-0.1,0.25-0.14c0.01-0.01,0.03-0.02,0.04-0.03c0.39-0.19,0.67-0.32,1.1-0.32h0.12
		c0.04,0.01,0.07,0.01,0.1,0.01c0.05,0,0.09,0.01,0.13,0.01c0.04,0.01,0.08,0.02,0.13,0.02c0.35,0.07,0.7,0.22,1.03,0.41
		c0.03,0.02,0.05,0.03,0.08,0.05c0.01,0.01,0.01,0.01,0.02,0.02c0.18,0.11,0.35,0.23,0.5,0.36c0.02,0.03,0.05,0.05,0.08,0.08
		c0.06,0.06,0.12,0.12,0.17,0.18c0.25,0.33,0.42,0.68,0.52,1.04c0.02,0.07,0.04,0.14,0.05,0.21c0.01,0.07,0.02,0.13,0.03,0.2
		c0,0.03,0.01,0.06,0.01,0.09v0.19c0,0.08,0,0.16-0.01,0.23c0,0.04-0.01,0.08-0.01,0.12c-0.07,0.42-0.25,0.8-0.46,1.18
		C38.77,8.99,38.73,9.07,38.68,9.14z"/>
	<path class="st5" d="M16.89,9.36c0,0.04-0.01,0.07-0.03,0.08c-0.02,0.02-0.04,0.04-0.07,0.05c-0.03,0.02-0.06,0.03-0.09,0.03
		c-0.02,0-0.04,0.01-0.06,0.01c-0.27,0.07-0.53,0.2-0.69,0.2c-0.05,0-0.09,0-0.13-0.01H15.8c-0.01,0-0.01,0-0.01,0h-0.01
		c-0.02,0-0.04,0-0.06-0.01c-0.04,0-0.09-0.01-0.13-0.02c-0.08-0.02-0.15-0.05-0.21-0.09c-0.01,0-0.01,0-0.02-0.01
		c-0.01,0-0.01-0.01-0.02-0.01c-0.02-0.01-0.04-0.02-0.06-0.03c-0.01-0.01-0.01-0.01-0.02-0.02c-0.04-0.03-0.08-0.06-0.13-0.1
		l-0.12-0.12c-0.03-0.05-0.07-0.09-0.11-0.14c-0.05-0.07-0.08-0.15-0.01-0.23c0.01-0.01,0.02-0.02,0.03-0.02
		c0.01-0.01,0.02-0.01,0.03-0.01h0.01c0.04-0.02,0.08-0.02,0.13,0c0.06,0.03,0.12,0.06,0.18,0.08c0.1,0.04,0.2,0.07,0.3,0.08
		c0.01,0.01,0.01,0.01,0.02,0.01c0.06,0.01,0.11,0.02,0.17,0.03c0.05,0.01,0.11,0.02,0.16,0.02c0.17,0.02,0.33,0.03,0.49,0.05
		c0.07,0,0.13,0.01,0.19,0.02C16.71,9.21,16.88,9.19,16.89,9.36z"/>
	<path class="st5" d="M31.54,9.04c0,0.05-0.02,0.09-0.05,0.13c-0.04,0.05-0.08,0.09-0.11,0.14l-0.12,0.12
		c-0.05,0.04-0.09,0.07-0.13,0.1c-0.01,0.01-0.01,0.01-0.02,0.02c-0.02,0.01-0.04,0.02-0.06,0.03c0,0-0.01,0.01-0.02,0.01L31.02,9.6
		C31,9.61,30.99,9.62,30.97,9.63s-0.03,0.01-0.05,0.02c-0.04,0.01-0.08,0.02-0.12,0.04c-0.04,0.01-0.09,0.02-0.13,0.02
		c-0.02,0.01-0.04,0.01-0.06,0.01h-0.03c-0.01,0-0.01,0-0.01,0c-0.04,0.01-0.08,0.01-0.13,0.01c-0.16,0-0.42-0.13-0.69-0.2
		c-0.1-0.02-0.25-0.03-0.25-0.17c0.01-0.17,0.18-0.15,0.29-0.16c0.06-0.01,0.13-0.02,0.19-0.02c0.16-0.02,0.32-0.03,0.49-0.05
		c0.05,0,0.11-0.01,0.16-0.02c0.06-0.01,0.11-0.02,0.17-0.03c0.01,0,0.01,0,0.02-0.01c0.1-0.01,0.2-0.04,0.3-0.08
		c0.06-0.02,0.12-0.05,0.18-0.08c0.05-0.02,0.09-0.02,0.13,0h0.01c0.01,0,0.02,0,0.03,0.01c0.01,0,0.02,0.01,0.03,0.02
		C31.53,8.97,31.54,9.01,31.54,9.04z"/>
</g>
</svg>
