<?xml version="1.0" encoding="UTF-8"?>
<svg xmlns="http://www.w3.org/2000/svg" version="1.1" viewBox="0 0 129.91 36.86">
  <defs>
    <style>
      .cls-1 {
        fill: #939393;
      }
    </style>
  </defs>
  <!-- Generator: Adobe Illustrator 28.7.1, SVG Export Plug-In . SVG Version: 1.2.0 Build 142)  -->
  <g>
    <g id="Layer_1">
      <g>
        <path class="cls-1" d="M83.73.72v35.42h46.18V.72h-46.18ZM96.25,22.5h-2.13l-1.78-5.1-1.79,5.1h-2.14l-2.97-8.93h2.6l1.55,5.13,1.71-5.15h2.12l1.71,5.15,1.54-5.13h2.55l-2.97,8.93ZM105.25,22.43h-2.45v-8.86h2.45v8.86ZM116.17,22.43h-6.76v-8.86h2.46v6.71h4.3v2.15ZM128.19,17.98c0,2.57-1.86,4.45-5.04,4.45h-3.38v-8.86h3.43c3.16,0,4.99,1.81,4.99,4.39v.02ZM123.22,15.73h-.98v4.53h.98c1.5,0,2.46-.82,2.46-2.25v-.02c0-1.43-.96-2.26-2.46-2.26Z"/>
        <polygon class="cls-1" points="59.3 1.38 58.78 .72 74.15 .72 74.15 20.46 59.3 1.38"/>
        <polygon class="cls-1" points="74.29 35.02 75.16 36.14 59.17 36.14 59.17 15.68 74.29 35.02"/>
        <rect class="cls-1" y=".72" width="2.2" height="35.42"/>
        <path class="cls-1" d="M17.9,15.11h-6.63v-7.17h6.89c1.56,0,2.76.26,3.6.84.85.58,1.29,1.52,1.28,2.64v.22c0,1.14-.5,2.07-1.4,2.63-.9.58-2.16.83-3.75.84h0Z"/>
        <path class="cls-1" d="M24.11,23.44v.06c-.22-.43-.54-.79-.96-1.08-.89-.62-2.19-.94-3.9-.94h-7.98v-.04h7.98c1.72,0,3.01.32,3.9.93.43.29.75.65.96,1.07h0Z"/>
        <path class="cls-1" d="M23.04,11.42v.22c0,1.14-.5,2.07-1.4,2.63-.9.58-2.16.83-3.75.84h-6.63v-7.03h6.89c1.56,0,2.76.26,3.6.83.82.56,1.26,1.44,1.28,2.51h0Z"/>
        <path class="cls-1" d="M24.48,25v.22c0,.12,0,.23-.02.35-.05.43-.16.82-.36,1.17-.23.44-.57.82-1.01,1.12-.9.62-2.16.92-3.75.92h-8.08v-7.3h7.98c1.72,0,3.01.32,3.9.94.42.29.74.66.96,1.08.24.45.36.95.38,1.5h0Z"/>
        <path class="cls-1" d="M24.48,25c-.01-.55-.14-1.06-.38-1.5-.22-.43-.54-.79-.96-1.08-.89-.62-2.19-.94-3.9-.94h-7.98v-.04h7.98c1.72,0,3.01.31,3.9.93.43.29.75.65.96,1.07.25.46.38.99.38,1.56h0Z"/>
        <path class="cls-1" d="M58.21,29.13c-1.66,2.21-3.57,4.1-5.97,5.46-.27.15-.54.29-.82.43-.23.12-.46.23-.7.33-.25.1-.49.21-.75.3-.23.09-.45.16-.69.24-1.87.62-4.02.97-6.52.97-2.94,0-5.71-.65-8.17-1.84-1.01-.48-1.96-1.06-2.85-1.72l-.45-.34c1.56-1.53,2.42-3.52,2.5-5.95,0-.16.01-.32.01-.49v-.1c0-.12,0-.23,0-.34,0-.27-.03-.54-.05-.8-.19-1.82-.81-3.21-1.8-4.34-.78-.88-1.79-1.61-3-2.19-.18-.09-.36-.16-.54-.25-.24-.1-.49-.21-.75-.3-.25-.1-.52-.19-.79-.28l-.84-.29.82-.35c1.58-.68,2.92-1.61,3.86-2.87s1.5-2.83,1.5-4.86v-.1h0v-.12c0-1.98-.55-3.55-1.51-4.84.14-.14.29-.25.44-.38,1.39-1.12,2.94-2.04,4.64-2.73,2.22-.89,4.69-1.38,7.34-1.38,2.3,0,4.33.31,6.15.86.23.07.46.14.69.23.25.09.51.19.75.29.13.05.26.1.39.16.12.05.25.1.36.16.51.23,1.01.49,1.47.78.18.11.36.22.54.34.18.12.35.23.52.36.34.24.68.49.99.75.23.19.46.39.68.6.14.12.27.25.41.39.14.13.27.27.39.4.13.13.26.27.38.41.38.43.75.88,1.09,1.34l-2.04,1.58-4.96,3.83c-.07-.1-.16-.19-.24-.27-.25-.29-.49-.56-.75-.82-.22-.22-.45-.43-.69-.63-.5-.45-1.03-.83-1.6-1.16-1.32-.77-2.85-1.21-4.66-1.21-2.63,0-4.88,1.13-6.46,2.94-1.58,1.8-2.5,4.29-2.5,6.99v.1c0,2.79.91,5.27,2.5,7.08,1.58,1.8,3.83,2.91,6.46,2.91,1.93,0,3.48-.45,4.83-1.26.5-.3.97-.64,1.43-1.03.23-.2.46-.4.69-.63.25-.25.51-.51.75-.78.17-.19.34-.38.5-.57l4.7,3.35,2.29,1.63Z"/>
      </g>
    </g>
  </g>
</svg>