<?xml version="1.0" encoding="UTF-8"?>
<svg xmlns="http://www.w3.org/2000/svg" version="1.1" viewBox="0 0 182.46 52.94">
  <defs>
    <style>
      .cls-1 {
        fill: #ecc61c;
      }
    </style>
  </defs>
  <!-- Generator: Adobe Illustrator 28.7.1, SVG Export Plug-In . SVG Version: 1.2.0 Build 142)  -->
  <g>
    <g id="Layer_1">
      <g>
        <rect class="cls-1" x="117.58" y="1.61" width="64.81" height="49.71"/>
        <g>
          <path d="M172.98,19.64h-4.82v12.44h4.74c4.47,0,7.08-2.65,7.08-6.25v-.03c0-3.62-2.57-6.16-7.01-6.16ZM176.46,25.88c0,2-1.36,3.16-3.45,3.16h-1.39v-6.36h1.39c2.09,0,3.45,1.17,3.45,3.17v.03Z"/>
          <polygon points="163.11 29.06 163.11 32.08 153.63 32.08 153.63 19.64 157.07 19.64 157.07 29.06 163.11 29.06"/>
          <rect x="144.34" y="19.64" width="3.45" height="12.44"/>
          <polygon points="139.32 19.64 135.15 32.17 132.16 32.17 129.67 25.01 127.16 32.17 124.15 32.17 119.98 19.64 123.63 19.64 125.8 26.85 128.2 19.61 131.18 19.61 133.58 26.85 135.75 19.64 139.32 19.64"/>
        </g>
        <polygon points="83.29 2.54 82.57 1.61 104.14 1.61 104.14 29.31 83.29 2.54"/>
        <polygon points="104.33 49.75 105.55 51.32 83.12 51.32 83.12 22.61 104.33 49.75"/>
        <rect x=".07" y="1.61" width="3.09" height="49.71"/>
        <path d="M25.19,21.81h-9.31v-10.06h9.68c2.18,0,3.87.37,5.05,1.18,1.19.82,1.81,2.13,1.8,3.71v.31c0,1.6-.7,2.91-1.96,3.7-1.26.81-3.03,1.17-5.26,1.17"/>
        <path d="M33.9,33.5v.09c-.31-.6-.76-1.11-1.35-1.52-1.25-.88-3.07-1.32-5.48-1.32h-11.2v-.06h11.2c2.41,0,4.23.44,5.48,1.31.6.4,1.05.92,1.35,1.5"/>
        <path d="M32.41,16.63v.31c0,1.6-.7,2.91-1.96,3.7-1.26.81-3.03,1.17-5.26,1.17h-9.31v-9.87h9.68c2.19,0,3.87.37,5.05,1.17,1.15.78,1.77,2.02,1.8,3.52"/>
        <path d="M34.43,35.69v.31c0,.16-.01.33-.03.49-.07.6-.23,1.15-.5,1.64-.33.62-.8,1.15-1.41,1.57-1.26.87-3.03,1.29-5.27,1.29h-11.34v-10.24h11.2c2.41,0,4.23.44,5.48,1.32.59.41,1.04.93,1.35,1.52.34.62.51,1.34.53,2.11"/>
        <path d="M34.43,35.69c-.02-.77-.19-1.48-.53-2.11-.31-.6-.76-1.11-1.35-1.52-1.25-.88-3.07-1.32-5.48-1.32h-11.2v-.06h11.2c2.41,0,4.23.44,5.48,1.31.6.4,1.05.92,1.35,1.5.36.65.53,1.4.53,2.19"/>
        <path d="M81.76,41.48c-2.33,3.1-5.01,5.75-8.38,7.66-.38.21-.76.41-1.16.61-.32.16-.64.32-.98.46-.35.15-.69.29-1.06.42-.32.12-.63.23-.96.34-2.63.88-5.64,1.36-9.15,1.36-4.13,0-8.02-.91-11.47-2.58-1.42-.67-2.74-1.48-4-2.41l-.63-.48c2.2-2.15,3.4-4.94,3.51-8.35,0-.22.02-.45.02-.68v-.14c0-.16,0-.33-.01-.48,0-.39-.04-.76-.08-1.13-.26-2.55-1.14-4.51-2.52-6.09-1.1-1.24-2.51-2.25-4.22-3.07-.25-.12-.5-.23-.75-.35-.34-.14-.68-.29-1.05-.42-.36-.14-.73-.27-1.11-.4l-1.18-.4,1.15-.49c2.22-.95,4.1-2.26,5.42-4.02s2.1-3.98,2.11-6.83v-.32c-.01-2.77-.77-4.98-2.12-6.8.2-.19.4-.36.62-.53,1.95-1.57,4.13-2.87,6.52-3.83,3.12-1.25,6.59-1.93,10.3-1.93,3.23,0,6.08.43,8.64,1.21.33.1.64.2.96.32.36.13.71.26,1.06.4.18.07.37.14.55.23.17.07.35.14.51.23.72.33,1.42.69,2.07,1.09.26.15.51.31.76.47.25.16.49.33.73.5.48.34.95.69,1.4,1.06.33.27.64.55.95.84.19.17.39.36.58.55.19.18.38.38.55.57.18.18.37.38.54.58.54.61,1.05,1.23,1.53,1.88l-2.87,2.21-6.96,5.38c-.11-.14-.22-.26-.34-.39-.35-.4-.69-.78-1.06-1.15-.31-.31-.63-.61-.96-.88-.7-.63-1.45-1.17-2.24-1.63-1.86-1.08-4.01-1.7-6.54-1.7-3.69,0-6.86,1.59-9.07,4.13-2.21,2.53-3.51,6.02-3.51,9.81v.14c0,3.91,1.28,7.4,3.51,9.94,2.21,2.53,5.38,4.08,9.07,4.08,2.71,0,4.89-.64,6.78-1.76.7-.42,1.37-.91,2-1.44.33-.28.64-.57.96-.89.36-.35.71-.71,1.06-1.1.23-.26.47-.53.7-.8l6.6,4.7,3.22,2.29Z"/>
      </g>
    </g>
  </g>
</svg>