<?xml version="1.0" encoding="UTF-8"?>
<svg id="Layer_1" xmlns="http://www.w3.org/2000/svg" viewBox="0 0 126.87 32.06">
  <defs>
    <style>
      .cls-1 {
        fill: #fff;
      }

      .cls-2 {
        fill: #ecc61c;
      }
    </style>
  </defs>
  <rect class="cls-2" x="77.86" y=".59" width="49.02" height="30.73"/>
  <path d="M122.8,12.02c-1.05-.95-2.57-1.49-4.42-1.49h-4.28v10.8h4.22c1.87,0,3.4-.56,4.46-1.53,1.06-.97,1.63-2.35,1.63-3.89v-.02c0-1.55-.56-2.91-1.61-3.86ZM120.76,15.95c0,.71-.23,1.21-.62,1.56-.39.35-.97.56-1.74.56h-.7v-4.28h.7c.77,0,1.35.21,1.74.56.39.35.61.86.62,1.57v.02Z"/>
  <polygon points="107.64 18.09 107.64 10.53 104.05 10.53 104.05 21.34 112.48 21.34 112.48 18.09 112.07 18.09 107.64 18.09"/>
  <polygon points="98.21 10.53 98.21 21.34 101.8 21.34 101.8 10.53 101.39 10.53 98.21 10.53"/>
  <polygon points="93.07 10.53 91.61 15.36 90 10.51 87.03 10.51 85.41 15.36 83.96 10.53 80.16 10.53 83.78 21.41 86.77 21.41 88.49 16.5 90.2 21.41 93.19 21.41 96.81 10.53 96.24 10.53 93.07 10.53"/>
  <polygon class="cls-1" points="55.43 1.2 54.98 .63 68.35 .63 68.35 17.79 55.43 1.2"/>
  <polygon class="cls-1" points="68.47 30.46 69.22 31.44 55.32 31.44 55.32 13.64 68.47 30.46"/>
  <rect class="cls-1" x="0" y=".63" width="1.92" height="30.81"/>
  <path class="cls-1" d="M15.57,13.15h-5.77v-6.24h6c1.35,0,2.4.23,3.13.73.74.51,1.12,1.32,1.12,2.3v.19c0,.99-.44,1.8-1.22,2.29-.78.5-1.88.72-3.26.73"/>
  <path class="cls-1" d="M20.97,20.39v.05c-.19-.37-.47-.69-.84-.94-.78-.54-1.9-.82-3.4-.82h-6.94v-.04h6.94c1.49,0,2.62.27,3.4.81.37.25.65.57.84.93"/>
  <path class="cls-1" d="M20.04,9.94v.19c0,.99-.44,1.8-1.22,2.29-.78.5-1.88.72-3.26.73h-5.77v-6.12h6c1.35,0,2.4.23,3.13.72.72.48,1.1,1.25,1.12,2.18"/>
  <path class="cls-1" d="M21.3,21.75v.19c0,.1,0,.2-.02.3-.04.37-.14.71-.31,1.01-.2.38-.5.72-.88.97-.78.54-1.88.8-3.26.8h-7.03v-6.35h6.94c1.49,0,2.62.27,3.4.82.36.26.64.57.83.94.21.39.32.83.33,1.31"/>
  <path class="cls-1" d="M21.3,21.75c-.01-.48-.12-.92-.33-1.31-.19-.37-.47-.69-.83-.94-.78-.54-1.9-.82-3.4-.82h-6.94v-.04h6.94c1.49,0,2.62.27,3.4.81.37.25.65.57.83.93.22.4.33.87.33,1.36"/>
  <path class="cls-1" d="M50.63,25.34c-1.44,1.92-3.1,3.56-5.19,4.75-.23.13-.47.26-.72.38-.2.1-.4.2-.61.29-.21.09-.43.18-.66.26-.2.08-.39.14-.6.21-1.63.54-3.5.84-5.67.84-2.56,0-4.97-.57-7.11-1.6-.88-.42-1.7-.92-2.48-1.49l-.39-.3c1.36-1.33,2.11-3.06,2.17-5.17,0-.14.01-.28.01-.42v-.09c0-.1,0-.2,0-.3,0-.24-.02-.47-.05-.7-.16-1.58-.7-2.79-1.56-3.77-.68-.77-1.56-1.4-2.61-1.9-.15-.08-.31-.14-.47-.22-.21-.09-.42-.18-.65-.26-.22-.08-.45-.17-.69-.24l-.73-.25.71-.3c1.38-.59,2.54-1.4,3.36-2.49.82-1.09,1.3-2.46,1.31-4.23v-.09h0v-.11c0-1.72-.48-3.08-1.31-4.21.13-.12.25-.22.38-.33,1.21-.97,2.56-1.78,4.04-2.38C33.06.42,35.21,0,37.51,0c2,0,3.77.27,5.35.75.2.06.4.13.6.2.22.08.44.16.66.25.11.04.23.09.34.14.11.04.22.09.32.14.45.2.88.43,1.28.67.16.1.32.19.47.29.15.1.3.2.45.31.3.21.59.43.87.66.2.17.4.34.59.52.12.11.24.22.36.34.12.11.23.23.34.35.11.11.23.23.33.36.33.38.65.76.95,1.16l-1.78,1.37-4.31,3.34-.21-.24c-.21-.25-.43-.48-.66-.71-.19-.19-.39-.38-.6-.55-.44-.39-.9-.72-1.39-1.01-1.15-.67-2.48-1.06-4.05-1.06-2.29,0-4.25.98-5.62,2.56-1.37,1.57-2.17,3.73-2.17,6.08v.09c0,2.42.79,4.59,2.17,6.16,1.37,1.57,3.34,2.53,5.62,2.53,1.68,0,3.03-.39,4.2-1.09.44-.26.85-.56,1.24-.9.2-.17.4-.35.6-.55.22-.22.44-.44.66-.68.14-.16.29-.33.44-.5l4.09,2.91,1.99,1.42Z"/>
</svg>