<?xml version="1.0" encoding="UTF-8"?>
<svg xmlns="http://www.w3.org/2000/svg" version="1.1" viewBox="0 0 196.37 51.73">
  <defs>
    <style>
      .cls-1 {
        fill: #fff;
      }

      .cls-2 {
        fill: #ecc61c;
      }
    </style>
  </defs>
  <!-- Generator: Adobe Illustrator 28.7.1, SVG Export Plug-In . SVG Version: 1.2.0 Build 142)  -->
  <g>
    <g id="Layer_1">
      <g>
        <polygon class="cls-2" points="133.43 1.01 133.43 5.51 121.92 5.51 121.92 14.95 117.51 14.95 117.51 1.01 133.43 1.01"/>
        <polygon class="cls-2" points="121.92 46.21 133.43 46.21 133.43 50.72 117.51 50.72 117.51 36.79 121.92 36.79 121.92 46.21"/>
        <path class="cls-2" d="M192.14,46.21h-12.51v4.51h16.74v-13.93h-4.23v9.42ZM179.63,1.01v4.5h12.51v9.44h4.23V1.01h-16.74Z"/>
      </g>
      <g>
        <polygon class="cls-1" points="83.22 1.93 82.5 1.01 104.07 1.01 104.07 28.71 83.22 1.93"/>
        <polygon class="cls-1" points="104.26 49.15 105.48 50.72 83.05 50.72 83.05 22.01 104.26 49.15"/>
        <rect class="cls-1" y="1.01" width="3.09" height="49.71"/>
        <path class="cls-1" d="M25.12,21.21h-9.31v-10.06h9.68c2.18,0,3.87.37,5.05,1.18,1.19.82,1.81,2.13,1.8,3.71v.31c0,1.6-.7,2.91-1.96,3.7-1.26.81-3.03,1.17-5.26,1.17h0Z"/>
        <path class="cls-1" d="M33.83,32.9v.09c-.31-.6-.76-1.11-1.35-1.52-1.25-.88-3.07-1.32-5.48-1.32h-11.2v-.06h11.2c2.41,0,4.23.44,5.48,1.31.6.4,1.05.92,1.35,1.5h0Z"/>
        <path class="cls-1" d="M32.34,16.03v.31c0,1.6-.7,2.91-1.96,3.7-1.26.81-3.03,1.17-5.26,1.17h-9.31v-9.87h9.68c2.19,0,3.87.37,5.05,1.17,1.15.78,1.77,2.02,1.8,3.52h0Z"/>
        <path class="cls-1" d="M34.36,35.09v.31c0,.16-.01.33-.03.49-.07.6-.23,1.15-.5,1.64-.33.62-.8,1.15-1.41,1.57-1.26.87-3.03,1.29-5.27,1.29h-11.34v-10.24h11.2c2.41,0,4.23.44,5.48,1.32.59.41,1.04.93,1.35,1.52.34.62.51,1.34.53,2.11h0Z"/>
        <path class="cls-1" d="M34.36,35.09c-.02-.77-.19-1.48-.53-2.11-.31-.6-.76-1.11-1.35-1.52-1.25-.88-3.07-1.32-5.48-1.32h-11.2v-.06h11.2c2.41,0,4.23.44,5.48,1.31.6.4,1.05.92,1.35,1.5.36.65.53,1.4.53,2.19h0Z"/>
        <path class="cls-1" d="M81.69,40.88c-2.33,3.1-5.01,5.75-8.38,7.66-.38.21-.76.41-1.16.61-.32.16-.64.32-.98.46-.35.15-.69.29-1.06.42-.32.12-.63.23-.96.34-2.63.88-5.64,1.36-9.15,1.36-4.13,0-8.02-.91-11.47-2.58-1.42-.67-2.74-1.48-4-2.41l-.63-.48c2.2-2.15,3.4-4.94,3.51-8.35,0-.22.02-.45.02-.68v-.14c0-.16,0-.33-.01-.48,0-.39-.04-.76-.08-1.13-.26-2.55-1.14-4.51-2.52-6.09-1.1-1.24-2.51-2.25-4.22-3.07-.25-.12-.5-.23-.75-.35-.34-.14-.68-.29-1.05-.42-.36-.14-.73-.27-1.11-.4l-1.18-.4,1.15-.49c2.22-.95,4.1-2.26,5.42-4.02s2.1-3.98,2.11-6.83v-.32c-.01-2.77-.77-4.98-2.12-6.8.2-.19.4-.36.62-.53,1.95-1.57,4.13-2.87,6.52-3.83,3.12-1.25,6.59-1.93,10.3-1.93,3.23,0,6.08.43,8.64,1.21.33.1.64.2.96.32.36.13.71.26,1.06.4.18.07.37.14.55.23.17.07.35.14.51.23.72.33,1.42.69,2.07,1.09.26.15.51.31.76.47.25.16.49.33.73.5.48.34.95.69,1.4,1.06.33.27.64.55.95.84.19.17.39.36.58.55.19.18.38.38.55.57.18.18.37.38.54.58.54.61,1.05,1.23,1.53,1.88l-2.87,2.21-6.96,5.38c-.11-.14-.22-.26-.34-.39-.35-.4-.69-.78-1.06-1.15-.31-.31-.63-.61-.96-.88-.7-.63-1.45-1.17-2.24-1.63-1.86-1.08-4.01-1.7-6.54-1.7-3.69,0-6.86,1.59-9.07,4.13-2.21,2.53-3.51,6.02-3.51,9.81v.14c0,3.91,1.28,7.4,3.51,9.94,2.21,2.53,5.38,4.08,9.07,4.08,2.71,0,4.89-.64,6.78-1.76.7-.42,1.37-.91,2-1.44.33-.28.64-.57.96-.89.36-.35.71-.71,1.06-1.1.23-.26.47-.53.7-.8l6.6,4.7,3.22,2.29Z"/>
      </g>
      <g>
        <path class="cls-1" d="M184.36,21.35c-1.2-1.09-2.96-1.73-5.18-1.73h-4.82v12.44h4.74c2.26,0,4.05-.68,5.26-1.81,1.18-1.12,1.83-2.66,1.83-4.44v-.04c0-1.79-.64-3.33-1.83-4.42ZM182.66,25.85c0,2-1.36,3.16-3.45,3.16h-1.39v-6.36h1.39c2.09,0,3.45,1.17,3.45,3.17v.03Z"/>
        <polygon class="cls-1" points="169.31 29.04 169.31 32.06 159.82 32.06 159.82 19.62 163.27 19.62 163.27 29.04 169.31 29.04"/>
        <rect class="cls-1" x="150.54" y="19.62" width="3.45" height="12.44"/>
        <polygon class="cls-1" points="145.52 19.62 141.35 32.15 138.36 32.15 137.7 30.25 135.87 24.99 133.36 32.15 130.35 32.15 128.19 25.66 126.18 19.62 129.83 19.62 132 26.82 134.4 19.58 137.37 19.58 137.7 20.57 139.78 26.82 141.95 19.62 145.52 19.62"/>
      </g>
    </g>
  </g>
</svg>